<?xml version="1.0" encoding="UTF-8" standalone="no"?>
<svg
   xmlns:dc="http://purl.org/dc/elements/1.1/"
   xmlns:cc="http://creativecommons.org/ns#"
   xmlns:rdf="http://www.w3.org/1999/02/22-rdf-syntax-ns#"
   xmlns:svg="http://www.w3.org/2000/svg"
   xmlns="http://www.w3.org/2000/svg"
   xmlns:sodipodi="http://sodipodi.sourceforge.net/DTD/sodipodi-0.dtd"
   xmlns:inkscape="http://www.inkscape.org/namespaces/inkscape"
   version="1.1"
   id="svg2"
   xml:space="preserve"
   width="3733.3333"
   height="1698.6667"
   viewBox="0 0 3733.3333 1698.6667"
   sodipodi:docname="logo-cs_group.eps"><metadata
     id="metadata8"><rdf:RDF><cc:Work
         rdf:about=""><dc:format>image/svg+xml</dc:format><dc:type
           rdf:resource="http://purl.org/dc/dcmitype/StillImage" /></cc:Work></rdf:RDF></metadata><defs
     id="defs6"><clipPath
       clipPathUnits="userSpaceOnUse"
       id="clipPath54"><path
         d="m 22507.1,7647.19 c -156.9,416.82 -581.2,798.87 -1164.2,1048.11 -246.5,105.41 -1987,795.21 -1987,795.21 -990.8,396.26 -1846.5,738.49 -1822.6,1290.69 30.4,703.8 856.2,1082.8 1682.9,1106.3 1698,-24.9 2518.7,-704 2553.4,-733.4 -0.3,0.2 26.5,-22.9 26.5,-22.9 l 19.4,-16.7 h 177.1 l 162.6,36.6 -80.5,919.3 -103.6,50.8 c -40.8,20.1 -1018.5,490.3 -2653.5,490.3 -25.8,0 -143.2,0 -177,0 -1958.8,0 -3334.3,-725.4 -3504.2,-1848.1 -191.2,-1263.1 1504.7,-1881.13 2867.3,-2377.71 0,0 1265.8,-460.46 1573.1,-603.99 338.9,-158.28 569.1,-387.02 648.4,-644.12 55.5,-180.17 31.6,-365.15 -69.2,-534.94 -238,-400.78 -862.5,-603.05 -1906.9,-617.28 -1899.4,19.02 -2977.4,979.97 -3095,1090.59 l -7.6,7.18 -1.7,0.59 -287.3,272.68 -14.7,14.01 c -0.2,0.17 -532.5,0.17 -532.5,0.17 l -15.3,-18.21 c -1.5,-1.81 -155.1,-184.14 -351.8,-349.74 C 14162.7,6765.54 13107,6001.14 11172.7,5977.24 10128.2,5989 9241.45,6216.99 8536.9,6656.67 7720.2,7166.31 7291.19,7927.32 7328.89,8799.53 c 34.79,804.85 526.23,1680.77 1222.93,2179.57 835.81,598.4 1851.48,905.2 3018.88,913.2 1342,-15.8 2342.8,-277.3 2899.3,-758.9 l 19.5,-16.8 h 177 l 177.8,40.1 -74.6,1055.7 -32,10.9 c -46.4,15.8 -1158.9,388.2 -3030.7,388.2 -20.5,0 -40.3,-0.6 -60.7,-0.7 -38.6,0.3 -77.1,0.7 -116.3,0.7 -1771.74,0 -3116.41,-328.3 -4360.01,-1064.7 -1016.82,-602 -1729.51,-1688.99 -1773.4,-2704.72 -49.62,-1148.18 394.66,-1998.62 1358.17,-2599.9 1088.78,-679.43 2499.25,-1038.57 4078.94,-1038.57 40,0 157.8,0 177,0 1975.9,0 3714.3,597.79 3731.7,603.81 l 35.2,17.17 292,778.92 338.7,-791.28 23.6,-10.68 c 13.2,-5.94 1452.7,-598.52 3075.6,-598.52 34.2,0 151.5,0 177,0 2061.2,0 2959,558.01 3185.1,729.05 625.4,473.12 863.8,1114.29 637.5,1715.11 z"
         id="path52" /></clipPath><linearGradient
       x1="0"
       y1="0"
       x2="1"
       y2="0"
       gradientUnits="userSpaceOnUse"
       gradientTransform="matrix(0,7435.09,7435.09,0,13991.9,5229.07)"
       spreadMethod="pad"
       id="linearGradient72"><stop
         style="stop-opacity:1;stop-color:#003555"
         offset="0"
         id="stop56" /><stop
         style="stop-opacity:1;stop-color:#003555"
         offset="0.06335022"
         id="stop58" /><stop
         style="stop-opacity:1;stop-color:#eaf3f6"
         offset="0.19"
         id="stop60" /><stop
         style="stop-opacity:1;stop-color:#053d5d"
         offset="0.35"
         id="stop62" /><stop
         style="stop-opacity:1;stop-color:#eaf3f6"
         offset="0.51"
         id="stop64" /><stop
         style="stop-opacity:1;stop-color:#053d5d"
         offset="0.67"
         id="stop66" /><stop
         style="stop-opacity:1;stop-color:#eaf3f6"
         offset="0.86"
         id="stop68" /><stop
         style="stop-opacity:1;stop-color:#053d5d"
         offset="1"
         id="stop70" /></linearGradient><clipPath
       clipPathUnits="userSpaceOnUse"
       id="clipPath82"><path
         d="m 21631.1,6013.24 c -219.6,-166.17 -1094.2,-708.42 -3123.6,-708.42 -1491.2,0 -2822,505.06 -3010.3,580.02 l -527.1,1150.24 c 0,0 -451.2,-1064.6 -465.9,-1140.8 -226.7,-75.07 -1846.3,-588.88 -3670.5,-588.88 -1560.63,0 -2952.46,353.8 -4025.04,1023.13 -929.65,580.12 -1358.25,1400.89 -1310.37,2509.15 42.48,982.79 735.12,2036.32 1723.58,2621.52 1227.01,726.6 2555.67,1050.5 4308.13,1050.5 1706.2,0 2770.3,-310.4 2965.9,-372.4 l 63.7,-900.5 -43,-9.7 c -604.5,509.4 -1639,767.8 -3076,767.8 -1209,0 -2260.39,-313.9 -3125.12,-933 -720.77,-516.1 -1229.27,-1423.5 -1265.36,-2257.96 -39.34,-910.48 406.64,-1703.73 1255.85,-2233.65 740.04,-461.81 1673.49,-695.98 2774.43,-695.98 2028.1,0 3136.9,804.07 3428.4,1050.5 169.5,142.67 304.3,292.94 348.6,343.98 h 267.5 l 280.8,-266.53 7.7,-7.3 c -0.1,0.09 0.8,-0.19 1.9,-0.55 217.1,-201.75 1302.9,-1111.75 3213.4,-1111.75 1156.1,-0.01 1847.9,218.5 2114.8,668 115.9,195.19 143.2,408.51 79,616.91 -87.9,284.91 -337.4,535.79 -702.6,706.37 -311.4,145.43 -1581.3,607.38 -1581.3,607.38 -1327.8,483.9 -2980.3,1086.11 -2801.6,2266.88 162,1070.1 1498,1761.5 3403.6,1761.5 1611.6,0 2568.7,-460.3 2608.6,-479.9 0,0 29.4,-14.4 52.1,-25.5 l 67.7,-773.4 -25.8,-5.8 -7.4,6.3 c -36.8,31.3 -914.8,759.1 -2714.9,759.1 -901.6,0 -1832.2,-413.9 -1866.4,-1205 -27,-624.2 859.8,-978.88 1886.5,-1389.52 0,0 1739.7,-689.46 1984.9,-794.28 557.5,-238.41 961.7,-599.38 1108.9,-990.37 209.4,-556.27 -16.2,-1153.68 -603.7,-1598.09 z"
         id="path80" /></clipPath><linearGradient
       x1="0"
       y1="0"
       x2="1"
       y2="0"
       gradientUnits="userSpaceOnUse"
       gradientTransform="matrix(0,7228.54,7228.54,0,13903.1,5317.59)"
       spreadMethod="pad"
       id="linearGradient94"><stop
         style="stop-opacity:1;stop-color:#205e7c"
         offset="0"
         id="stop84" /><stop
         style="stop-opacity:1;stop-color:#205e7c"
         offset="0.17807152"
         id="stop86" /><stop
         style="stop-opacity:1;stop-color:#eaf3f6"
         offset="0.5"
         id="stop88" /><stop
         style="stop-opacity:1;stop-color:#eaf3f6"
         offset="0.67807152"
         id="stop90" /><stop
         style="stop-opacity:1;stop-color:#205e7c"
         offset="1"
         id="stop92" /></linearGradient></defs><sodipodi:namedview
     pagecolor="#ffffff"
     bordercolor="#666666"
     borderopacity="1"
     objecttolerance="10"
     gridtolerance="10"
     guidetolerance="10"
     inkscape:pageopacity="0"
     inkscape:pageshadow="2"
     inkscape:window-width="640"
     inkscape:window-height="480"
     id="namedview4" /><g
     id="g10"
     inkscape:groupmode="layer"
     inkscape:label="ink_ext_XXXXXX"
     transform="matrix(1.3333333,0,0,-1.3333333,0,1698.6667)"><g
       id="g12"
       transform="scale(0.1)"><path
         d="m 14000,7910.36 c -6337.88,0 -11043.56,-1003.2 -12306.59,-1395.38 0,0 -1248.906,-358.28 -1603.2108,-524.86 C 63.2813,5977.48 0,5944.71 0,5944.71 l 551.316,965.82 C 2533.55,7942.77 7814.63,9745.09 14000,9745.09 c 6185.4,0 11466.4,-1802.32 13448.7,-2834.56 l 551.3,-965.82 c 0,0 -63.3,32.77 -90.2,45.41 -354.3,166.58 -1603.2,524.86 -1603.2,524.86 -1263,392.18 -5968.7,1395.38 -12306.6,1395.38"
         style="fill:#ffffff;fill-opacity:1;fill-rule:evenodd;stroke:none"
         id="path14" /><path
         d="m 14000,7940.89 c -6065.55,0 -10836.04,-917.12 -12341.25,-1402.48 0,0 -1116.492,-321.93 -1464.223,-476.57 -29.949,-13.11 -92.101,-43.22 -92.101,-43.22 l 515.172,891.91 C 2600.51,7932.73 7862.24,9697.86 14000,9697.86 c 6137.8,0 11399.5,-1765.13 13382.4,-2787.33 l 515.2,-891.91 c 0,0 -62.2,30.11 -92.1,43.22 -347.8,154.64 -1464.2,476.57 -1464.2,476.57 C 24836,7023.77 20065.6,7940.89 14000,7940.89"
         style="fill:#f3fbf8;fill-opacity:1;fill-rule:evenodd;stroke:none"
         id="path16" /><path
         d="m 14000,7971.41 c -5793.2,0 -10628.5,-831.03 -12375.9,-1409.56 0,0 -984.084,-285.6 -1325.237,-428.27 -32.98,-13.61 -93.996,-41.05 -93.996,-41.05 l 479.012,818 C 2667.45,7922.69 7909.87,9650.63 14000,9650.63 c 6090.1,0 11332.5,-1727.94 13316.1,-2740.1 l 479,-818 c 0,0 -61,27.44 -94,41.05 -341.1,142.67 -1325.2,428.27 -1325.2,428.27 -1747.4,578.53 -6582.7,1409.56 -12375.9,1409.56"
         style="fill:#e7f7f1;fill-opacity:1;fill-rule:evenodd;stroke:none"
         id="path18" /><path
         d="m 14000,8001.93 c -5520.86,0 -10420.97,-744.96 -12410.56,-1416.64 0,0 -851.674,-249.25 -1186.256,-380 -35.996,-14.07 -95.887,-38.84 -95.887,-38.84 l 442.859,744.08 C 2734.4,7912.66 7957.49,9603.42 14000,9603.42 c 6042.5,0 11265.6,-1690.76 13249.9,-2692.89 l 442.8,-744.08 c 0,0 -59.9,24.77 -95.9,38.84 -334.6,130.75 -1186.2,380 -1186.2,380 C 24421,7256.97 19520.9,8001.93 14000,8001.93"
         style="fill:#daf2ea;fill-opacity:1;fill-rule:evenodd;stroke:none"
         id="path20" /><path
         d="m 14000,8032.44 c -5531.9,0 -10445.07,-736.3 -12445.21,-1423.73 0,0 -763.544,-223.54 -1050.083,-337.79 -40.621,-16.47 -97.996,-37 -97.996,-37 l 394.672,658.54 C 2727.71,7882.53 7973.38,9556.2 14000,9556.2 c 6026.6,0 11272.3,-1673.67 13198.7,-2663.74 l 394.6,-658.54 c 0,0 -57.4,20.53 -98,37 -286.5,114.25 -1050.1,337.79 -1050.1,337.79 -2000.1,687.43 -6913.3,1423.73 -12445.2,1423.73"
         style="fill:#ceeee4;fill-opacity:1;fill-rule:evenodd;stroke:none"
         id="path22" /><path
         d="m 14000,8062.96 c -5542.93,0 -10469.17,-727.66 -12479.88,-1430.82 0,0 -675.386,-197.83 -913.882,-295.59 -45.23,-18.86 -100.101,-35.15 -100.101,-35.15 l 346.445,572.98 C 2721.01,7852.41 7989.27,9508.98 14000,9508.98 c 6010.7,0 11279,-1656.57 13147.4,-2634.6 l 346.5,-572.98 c 0,0 -54.9,16.29 -100.1,35.15 -238.5,97.76 -913.9,295.59 -913.9,295.59 -2010.7,703.16 -6937,1430.82 -12479.9,1430.82"
         style="fill:#c2eade;fill-opacity:1;fill-rule:evenodd;stroke:none"
         id="path24" /><path
         d="m 14000,8093.47 c -5553.97,0 -10493.26,-719.01 -12514.54,-1437.89 0,0 -587.245,-172.13 -777.69,-253.39 -49.86,-21.27 -102.223,-33.32 -102.223,-33.32 l 298.258,487.44 C 2714.31,7822.29 8005.16,9461.77 14000,9461.77 c 5994.8,0 11285.7,-1639.48 13096.2,-2605.46 l 298.3,-487.44 c 0,0 -52.4,12.05 -102.3,33.32 -190.4,81.26 -777.6,253.39 -777.6,253.39 C 24493.3,7374.46 19554,8093.47 14000,8093.47"
         style="fill:#b6e6d8;fill-opacity:1;fill-rule:evenodd;stroke:none"
         id="path26" /><path
         d="m 14000,8123.99 c -5565.01,0 -10526.41,-719.4 -12549.21,-1444.97 0,0 -527.466,-161.5 -654.423,-215.67 -33.226,-14.18 -91.406,-30.21 -91.406,-30.21 l 259.098,417.14 C 2757.83,7805.55 8021.06,9414.56 14000,9414.56 c 5978.9,0 11242.2,-1609.01 13036,-2564.28 l 259,-417.14 c 0,0 -56.6,15.5 -89.8,29.67 -127,54.17 -656,216.21 -656,216.21 C 24526.4,7404.59 19565,8123.99 14000,8123.99"
         style="fill:#a9e1d2;fill-opacity:1;fill-rule:evenodd;stroke:none"
         id="path28" /><path
         d="m 14000,8154.51 c -5576.06,0 -10559.54,-719.79 -12583.86,-1452.06 0,0 -467.683,-150.85 -531.167,-177.93 -16.614,-7.09 -80.582,-27.11 -80.582,-27.11 l 219.909,346.86 c 1777.05,944.54 7012.66,2523.08 12975.7,2523.08 5963,0 11198.6,-1578.54 12975.7,-2523.08 l 219.9,-346.86 c 0,0 -60.8,18.94 -77.4,26.03 -63.5,27.08 -534.3,179.01 -534.3,179.01 -2024.3,732.27 -7007.8,1452.06 -12583.9,1452.06"
         style="fill:#9dddcd;fill-opacity:1;fill-rule:evenodd;stroke:none"
         id="path30" /><path
         d="m 14000,8185.03 c -5587.11,0 -10592.69,-720.17 -12618.53,-1459.14 l -407.896,-140.22 -69.769,-23.98 180.755,276.55 c 880.15,466.91 2622.22,1087.39 4887.66,1591.14 2265.43,503.74 5054.18,890.76 8027.78,890.76 2928.3,0 5677.5,-375.34 7924.1,-867.87 2315.9,-507.73 4097.8,-1140.01 4991.4,-1614.03 l 180.7,-276.55 -65.1,22.37 -412.6,141.83 C 24592.7,7464.86 19587.1,8185.03 14000,8185.03"
         style="fill:#91d9c7;fill-opacity:1;fill-rule:evenodd;stroke:none"
         id="path32" /><path
         d="M 13999.8,8219.81 C 8378.69,8219.81 3439.11,7494 1391.72,6765.1 c -6.42,-2.17 -284.71,-97.83 -290.98,-100.01 -8.88,-3.08 -64.12,-22.15 -72.69,-25.22 14.66,7.6 150.34,199.65 166.07,207.42 907.46,469.51 2611.41,1070.79 4820.46,1557.18 2241.93,493.46 5004.12,868.46 7985.22,868.46 2951,0 5686.8,-367.21 7916.2,-853.19 2242.7,-489.05 3973.2,-1098.21 4889.6,-1572.45 15.7,-7.77 151.4,-199.82 166.1,-207.42 -8.6,3.07 -60.7,21.06 -69.6,24.15 -6.3,2.17 -287.7,98.91 -294.1,101.08 -2047.4,728.9 -6987,1454.71 -12608.2,1454.71"
         style="fill:#85d5c2;fill-opacity:1;fill-rule:evenodd;stroke:none"
         id="path34" /><path
         d="m 13999.7,8254.6 c -5655.22,0 -10528.8,-731.46 -12597.72,-1450.28 -12.86,-4.36 -161.53,-55.45 -174.07,-59.81 -17.76,-6.16 -58.47,-20.32 -75.61,-26.47 29.31,15.22 119.94,122.78 151.39,138.29 934.76,472.1 2600.58,1054.2 4753.26,1523.23 2218.43,483.18 4954.05,846.15 7942.75,846.15 2973.6,0 5696,-359.08 7908.2,-838.51 2169.5,-470.36 3848.6,-1056.4 4787.8,-1530.87 31.4,-15.51 122.1,-123.07 151.4,-138.29 -17.1,6.15 -56.3,19.77 -74.1,25.93 -12.5,4.35 -162.7,55.99 -175.6,60.35 -2068.9,718.82 -6942.5,1450.28 -12597.7,1450.28"
         style="fill:#79d1be;fill-opacity:1;fill-rule:evenodd;stroke:none"
         id="path36" /><path
         d="m 13999.5,8289.38 c -5689.22,0 -10496.81,-737.09 -12587.28,-1445.84 -19.29,-6.55 -38.33,-13.08 -57.16,-19.61 -26.64,-9.25 -52.81,-18.49 -78.52,-27.72 43.96,22.83 89.53,45.9 136.72,69.17 962.04,474.7 2589.76,1037.61 4686.07,1489.28 2194.91,472.89 4903.97,823.83 7900.17,823.83 2996.2,0 5705.3,-350.94 7900.3,-823.83 2096.3,-451.67 3724,-1014.58 4686,-1489.28 47.2,-23.27 92.8,-46.34 136.7,-69.17 -25.7,9.23 -51.9,18.47 -78.5,27.72 -18.8,6.53 -37.9,13.06 -57.1,19.61 -2090.5,708.75 -6898.1,1445.84 -12587.4,1445.84"
         style="fill:#6ccdb9;fill-opacity:1;fill-rule:evenodd;stroke:none"
         id="path38" /><path
         d="m 21895.6,8314.9 c 1898.1,-409.04 3430.2,-923.73 4387.2,-1360.99 -2154.1,677.27 -6793.6,1375.43 -12282.8,1375.43 -5489.23,0 -10128.66,-698.16 -12282.75,-1375.43 956.95,442.72 2475.9,952.5 4361.29,1360.64 2300.24,497.6 5024.66,818.74 7921.46,818.74 2885,0 5599.9,-323.61 7895.6,-818.39"
         style="fill:#60c9b5;fill-opacity:1;fill-rule:evenodd;stroke:none"
         id="path40" /><path
         d="m 21891.5,8275.14 c 1597,-344.25 2977.8,-777.4 3951.4,-1163.5 -2295.8,631.66 -6680.5,1257.67 -11842.9,1257.67 -5162.42,0 -9547.12,-626.01 -11842.95,-1257.67 979.18,399.89 2347.9,827.37 3938.54,1171.16 2398.73,518.07 5124.61,805.3 7904.41,805.3 2773.9,0 5495,-296.29 7891.5,-812.96"
         style="fill:#54c5b1;fill-opacity:1;fill-rule:evenodd;stroke:none"
         id="path42" /><path
         d="m 14000,9042.91 c -2662.7,0 -5390.15,-253.29 -7887.36,-791.84 C 4816.75,7971.6 3598.24,7626.43 2596.83,7269.35 5034.39,7855.4 9164.38,8409.27 14000,8409.27 c 4835.6,0 8965.6,-553.87 11403.2,-1139.92 -990.4,334.96 -2219.9,686.57 -3515.8,966.03 -2497.3,538.56 -5224.7,807.53 -7887.4,807.53"
         style="fill:#47c1ad;fill-opacity:1;fill-rule:evenodd;stroke:none"
         id="path44" /><path
         d="m 19415.4,11793.4 c 1405.4,-5.6 2397,-769 2397,-769 h 503.5 l 237.9,66.4 -89.2,1037.1 -148.5,72.8 c -41.6,20.4 -1042.3,504 -2680,539.3 H 19153 c -2005,0 -3427.3,-794.9 -3604.2,-1963.3 -202,-1334.77 1531.6,-1966.56 2924.6,-2474.2 0,0 1262.1,-459.12 1565.9,-601 316,-147.58 529.5,-357.08 601.3,-590 47.9,-155.63 27,-315.97 -60.8,-463.68 -209.7,-353.19 -759.4,-539.66 -1680.6,-570.06 l 6.2,-0.02 c -1775.4,66 -2776.4,960.89 -2884.7,1062.7 l -296.2,280.18 -14.7,13.99 c -24.9,24.43 -24.9,24.43 -480.3,24.48 l -460.5,0.03 -41.8,-49.86 c -1.4,-1.7 -151.6,-179.42 -341,-338.92 -259.9,-219.66 -1248.4,-940.71 -3063.5,-1000.89 l 5.8,0.02 c -963.7,30.98 -1784.14,253.81 -2438.71,662.28 -788.45,492.02 -1202.71,1225.02 -1166.45,2063.96 33.68,779.09 510.3,1627.59 1186.02,2111.39 784.8,561.9 1735.74,862.5 2826.24,893.4 1233.3,-33.7 2160.5,-287.6 2676.5,-734 l 44.4,-38.4 h 525.9 l 261.6,59 -84.2,1190.1 -55.5,19 -32,10.8 c -47,16.1 -1172.9,393.1 -3059.3,393.1 l -221.6,-0.6 c 0.9,0 -261.4,0.6 -261.4,0.6 -1788.49,0 -3147.06,-332.2 -4405.1,-1077.1 C 6083.37,11006.3 5353.29,9890.29 5308.15,8845.91 5257.02,7663.01 5714.89,6786.74 6707.9,6167.06 c 1102.84,-688.2 2529.52,-1051.97 4125.8,-1051.97 0,0 471.8,0 483,0 2001.2,0 3743.4,598.92 3760.8,604.97 l 4.9,1.69 4.6,2.24 62.3,30.19 74.6,244.38 116.8,-252.9 54.7,-24.74 c 13.4,-6.07 1471.8,-606.44 3112.1,-606.44 h 177 306 c 2088.8,0 3006.9,571.75 3238.5,746.99 658.5,498.11 907.8,1177.33 667,1816.91 -165.4,439.3 -607.2,839.62 -1212.2,1098.3 -248,106.04 -1988.9,795.98 -1988.9,795.98 -959.6,383.8 -1788.3,715.24 -1767.2,1204.64 27.4,633.1 777,1016.1 1487.7,1016.1"
         style="fill:#47c1ad;fill-opacity:1;fill-rule:nonzero;stroke:none"
         id="path46" /><g
         id="g48"><g
           id="g50"
           clip-path="url(#clipPath54)"><path
             d="m 22507.1,7647.19 c -156.9,416.82 -581.2,798.87 -1164.2,1048.11 -246.5,105.41 -1987,795.21 -1987,795.21 -990.8,396.26 -1846.5,738.49 -1822.6,1290.69 30.4,703.8 856.2,1082.8 1682.9,1106.3 1698,-24.9 2518.7,-704 2553.4,-733.4 -0.3,0.2 26.5,-22.9 26.5,-22.9 l 19.4,-16.7 h 177.1 l 162.6,36.6 -80.5,919.3 -103.6,50.8 c -40.8,20.1 -1018.5,490.3 -2653.5,490.3 -25.8,0 -143.2,0 -177,0 -1958.8,0 -3334.3,-725.4 -3504.2,-1848.1 -191.2,-1263.1 1504.7,-1881.13 2867.3,-2377.71 0,0 1265.8,-460.46 1573.1,-603.99 338.9,-158.28 569.1,-387.02 648.4,-644.12 55.5,-180.17 31.6,-365.15 -69.2,-534.94 -238,-400.78 -862.5,-603.05 -1906.9,-617.28 -1899.4,19.02 -2977.4,979.97 -3095,1090.59 l -7.6,7.18 -1.7,0.59 -287.3,272.68 -14.7,14.01 c -0.2,0.17 -532.5,0.17 -532.5,0.17 l -15.3,-18.21 c -1.5,-1.81 -155.1,-184.14 -351.8,-349.74 C 14162.7,6765.54 13107,6001.14 11172.7,5977.24 10128.2,5989 9241.45,6216.99 8536.9,6656.67 7720.2,7166.31 7291.19,7927.32 7328.89,8799.53 c 34.79,804.85 526.23,1680.77 1222.93,2179.57 835.81,598.4 1851.48,905.2 3018.88,913.2 1342,-15.8 2342.8,-277.3 2899.3,-758.9 l 19.5,-16.8 h 177 l 177.8,40.1 -74.6,1055.7 -32,10.9 c -46.4,15.8 -1158.9,388.2 -3030.7,388.2 -20.5,0 -40.3,-0.6 -60.7,-0.7 -38.6,0.3 -77.1,0.7 -116.3,0.7 -1771.74,0 -3116.41,-328.3 -4360.01,-1064.7 -1016.82,-602 -1729.51,-1688.99 -1773.4,-2704.72 -49.62,-1148.18 394.66,-1998.62 1358.17,-2599.9 1088.78,-679.43 2499.25,-1038.57 4078.94,-1038.57 40,0 157.8,0 177,0 1975.9,0 3714.3,597.79 3731.7,603.81 l 35.2,17.17 292,778.92 338.7,-791.28 23.6,-10.68 c 13.2,-5.94 1452.7,-598.52 3075.6,-598.52 34.2,0 151.5,0 177,0 2061.2,0 2959,558.01 3185.1,729.05 625.4,473.12 863.8,1114.29 637.5,1715.11"
             style="fill:url(#linearGradient72);fill-opacity:1;fill-rule:nonzero;stroke:none"
             id="path74" /></g></g><g
         id="g76"><g
           id="g78"
           clip-path="url(#clipPath82)"><path
             d="m 21631.1,6013.24 c -219.6,-166.17 -1094.2,-708.42 -3123.6,-708.42 -1491.2,0 -2822,505.06 -3010.3,580.02 l -527.1,1150.24 c 0,0 -451.2,-1064.6 -465.9,-1140.8 -226.7,-75.07 -1846.3,-588.88 -3670.5,-588.88 -1560.63,0 -2952.46,353.8 -4025.04,1023.13 -929.65,580.12 -1358.25,1400.89 -1310.37,2509.15 42.48,982.79 735.12,2036.32 1723.58,2621.52 1227.01,726.6 2555.67,1050.5 4308.13,1050.5 1706.2,0 2770.3,-310.4 2965.9,-372.4 l 63.7,-900.5 -43,-9.7 c -604.5,509.4 -1639,767.8 -3076,767.8 -1209,0 -2260.39,-313.9 -3125.12,-933 -720.77,-516.1 -1229.27,-1423.5 -1265.36,-2257.96 -39.34,-910.48 406.64,-1703.73 1255.85,-2233.65 740.04,-461.81 1673.49,-695.98 2774.43,-695.98 2028.1,0 3136.9,804.07 3428.4,1050.5 169.5,142.67 304.3,292.94 348.6,343.98 h 267.5 l 280.8,-266.53 7.7,-7.3 c -0.1,0.09 0.8,-0.19 1.9,-0.55 217.1,-201.75 1302.9,-1111.75 3213.4,-1111.75 1156.1,-0.01 1847.9,218.5 2114.8,668 115.9,195.19 143.2,408.51 79,616.91 -87.9,284.91 -337.4,535.79 -702.6,706.37 -311.4,145.43 -1581.3,607.38 -1581.3,607.38 -1327.8,483.9 -2980.3,1086.11 -2801.6,2266.88 162,1070.1 1498,1761.5 3403.6,1761.5 1611.6,0 2568.7,-460.3 2608.6,-479.9 0,0 29.4,-14.4 52.1,-25.5 l 67.7,-773.4 -25.8,-5.8 -7.4,6.3 c -36.8,31.3 -914.8,759.1 -2714.9,759.1 -901.6,0 -1832.2,-413.9 -1866.4,-1205 -27,-624.2 859.8,-978.88 1886.5,-1389.52 0,0 1739.7,-689.46 1984.9,-794.28 557.5,-238.41 961.7,-599.38 1108.9,-990.37 209.4,-556.27 -16.2,-1153.68 -603.7,-1598.09"
             style="fill:url(#linearGradient94);fill-opacity:1;fill-rule:nonzero;stroke:none"
             id="path96" /></g></g><path
         d="m 7890.44,2300 c -120.25,186.4 -268.18,327.5 -443.77,423.5 -175.63,95.88 -373.55,143.85 -593.73,143.85 -367.47,0 -666.68,-124.31 -897.68,-372.85 -231.01,-248.6 -346.51,-570.8 -346.51,-966.6 0,-177 30.71,-343.8 92.2,-500.5 61.46,-156.701 150.96,-295.798 268.49,-417.4 118.86,-120.301 251.94,-210.5 399.2,-270.5 147.22,-60.199 308.67,-90.199 484.3,-90.199 332.32,0 602.84,97.898 811.56,293.801 C 7873.21,739 7980.26,995 7985.68,1311.1 H 6962.36 v 233 h 1319.17 v -32.4 C 8281.53,1038.9 8152.5,668.699 7894.49,401.301 7636.45,133.801 7281.17,0 6828.62,0 6378.77,0 6014.69,143.199 5736.41,429.602 5458.1,716 5318.98,1091.6 5318.98,1556.3 c 0,213.4 35.11,415 105.37,604.9 70.23,189.7 171.54,354.9 303.96,495.4 143.17,152.65 304.96,266.79 485.31,342.46 180.34,75.64 381.27,113.48 602.84,113.48 301.24,0 559.28,-54.4 774.08,-163.12 C 7805.33,2840.66 7970.8,2680.9 8087,2470.2 L 7890.44,2300"
         style="fill:#2b688b;fill-opacity:1;fill-rule:nonzero;stroke:none"
         id="path98" /><path
         d="M 10085.4,2810.61 V 1714.3 h 271.5 c 251.3,0 426.5,40.2 525.8,120.6 99.3,80.4 149,217.2 149,410.4 0,203.9 -51.4,349.2 -154,435.6 -102.7,86.46 -276.3,129.71 -520.8,129.71 z M 11617.3,79.1016 H 11289 L 10247.5,1493.5 h -162.1 V 79.1016 H 9815.86 V 3045.67 H 10361 c 321.4,0 562.3,-66.88 722.3,-200.61 160.1,-133.76 240.2,-336.36 240.2,-607.86 0,-231.1 -68.6,-412.8 -205.7,-545.1 -137.1,-132.5 -325.9,-198.6 -566.4,-198.6 L 11617.3,79.1016"
         style="fill:#2b688b;fill-opacity:1;fill-rule:nonzero;stroke:none"
         id="path100" /><path
         d="m 14419.1,241.199 c 175.7,0 342,32.403 498.9,97.199 156.8,64.903 298.1,159.403 423.8,283.704 123.1,125.699 217.3,268.5 282.9,428.598 65.6,160.1 98.4,328.6 98.4,505.6 0,178.3 -32.5,346.8 -97.4,505.6 -64.9,158.7 -159.5,301.5 -283.9,428.5 -123,124.3 -263.3,218.9 -420.8,283.73 -157.5,64.85 -324.8,97.27 -501.9,97.27 -175.8,0 -341.4,-32.42 -496.8,-97.27 -155.5,-64.83 -296.1,-159.43 -421.9,-283.73 -124.3,-128.3 -219,-271.2 -283.9,-428.5 -64.9,-157.4 -97.3,-326 -97.3,-505.6 0,-178.3 32.4,-346.9 97.3,-505.6 64.9,-158.7 159.6,-301.598 283.9,-428.598 124.4,-125.602 263.7,-220.5 417.8,-284.7 154.1,-64.203 321.1,-96.203 500.9,-96.203 z M 16008.8,1556.3 c 0,-209.4 -39.9,-408.3 -119.6,-596.8 C 15809.4,771.102 15694.5,603.199 15544.5,456 15391.7,307.301 15219.3,194.199 15027.4,116.602 14835.4,38.9023 14632.7,0 14419.1,0 c -213.6,0 -416,38.9023 -607.3,116.602 -191.3,77.597 -362.6,190.699 -514,339.398 -151.4,149.898 -266.6,318.398 -345.7,505.5 -79.1,187.1 -118.6,385.4 -118.6,594.8 0,212.1 39.5,412.4 118.6,600.8 79.1,188.5 194.3,357.7 345.7,507.6 148.7,147.24 318.3,258.69 508.9,334.36 190.7,75.64 394.8,113.48 612.4,113.48 219,0 424.1,-38.19 615.4,-114.49 191.3,-76.34 361.3,-187.44 510,-333.35 151.4,-149.9 266.6,-319.1 345.7,-507.6 79.1,-188.4 118.6,-388.7 118.6,-600.8"
         style="fill:#2b688b;fill-opacity:1;fill-rule:nonzero;stroke:none"
         id="path102" /><path
         d="m 17559.4,3045.67 h 265.4 V 1108.5 c 0,-293.199 66.9,-511 200.6,-653.5 133.8,-142.598 338.4,-213.801 614,-213.801 271.5,0 474.2,71.203 607.9,213.801 133.8,142.5 200.6,360.301 200.6,653.5 v 1937.17 h 269.5 V 1195.6 c 0,-401.202 -89.1,-700.799 -267.4,-898.702 C 19271.6,99 19001.4,0 18639.4,0 c -363.4,0 -634.2,99 -812.6,296.898 -178.3,197.903 -267.4,497.5 -267.4,898.702 v 1850.07"
         style="fill:#2b688b;fill-opacity:1;fill-rule:nonzero;stroke:none"
         id="path104" /><path
         d="m 21679.3,1647.5 h 184.4 c 326.9,0 546.8,41.5 659.6,124.6 112.8,83.1 169.2,228.6 169.2,436.7 0,87.8 -12.8,168.5 -38.5,242.1 -25.7,73.6 -64.2,139.5 -115.5,197.6 -52.7,59.4 -124.3,101.32 -214.8,125.63 -90.5,24.32 -243.8,36.48 -460,36.48 h -184.4 z M 21409.8,79.1016 V 3045.67 h 541.1 c 213.4,0 370.4,-11.5 471.1,-34.46 100.6,-22.98 188.1,-60.78 262.4,-113.47 93.2,-67.56 165.5,-160.04 216.8,-277.64 51.4,-117.5 77,-247.9 77,-391.1 0,-282.3 -79,-489.3 -237.1,-621 -158,-131.8 -407.9,-197.6 -749.7,-197.6 h -312.1 V 79.1016 h -269.5"
         style="fill:#2b688b;fill-opacity:1;fill-rule:nonzero;stroke:none"
         id="path106" /></g></g></svg>
