<?xml version="1.0" encoding="UTF-8" standalone="no"?>
<svg
   xmlns:dc="http://purl.org/dc/elements/1.1/"
   xmlns:cc="http://creativecommons.org/ns#"
   xmlns:rdf="http://www.w3.org/1999/02/22-rdf-syntax-ns#"
   xmlns:svg="http://www.w3.org/2000/svg"
   xmlns="http://www.w3.org/2000/svg"
   xml:space="preserve"
   enable-background="new 0 0 675 112"
   viewBox="0 0 675 112"
   height="112px"
   width="675px"
   y="0px"
   x="0px"
   id="Layer_1"
   version="1.1"><metadata
   id="metadata47"><rdf:RDF><cc:Work
       rdf:about=""><dc:format>image/svg+xml</dc:format><dc:type
         rdf:resource="http://purl.org/dc/dcmitype/StillImage" /><dc:title></dc:title></cc:Work></rdf:RDF></metadata><defs
   id="defs45" />
<g
   style="fill:#ffffff"
   id="g40">
	<g
   style="fill:#ffffff"
   id="g6">
		<g
   style="fill:#ffffff"
   id="g4">
			<path
   style="fill:#ffffff"
   id="path2"
   d="m 36.276,47.063 c -2.001,1.089 -4.301,1.625 -6.898,1.625 -2.27,0 -4.397,-0.455 -6.369,-1.376 -1.978,-0.92 -3.699,-2.203 -5.156,-3.855 -1.458,-1.651 -2.611,-3.597 -3.446,-5.837 -0.842,-2.25 -1.262,-4.724 -1.262,-7.433 0,-2.649 0.423,-5.106 1.262,-7.382 0.835,-2.272 2,-4.231 3.492,-5.884 1.482,-1.646 3.243,-2.936 5.271,-3.856 2.031,-0.918 4.23,-1.375 6.615,-1.375 2.374,0 4.473,0.401 6.292,1.215 1.808,0.81 3.332,1.974 4.581,3.489 L 50.4,8.441 C 49.151,6.877 47.743,5.553 46.178,4.466 44.609,3.388 42.969,2.515 41.263,1.869 39.564,1.219 37.828,0.75 36.076,0.447 34.315,0.155 32.62,0.002 31.003,0.002 c -4.491,0 -8.635,0.701 -12.414,2.114 -3.793,1.405 -7.066,3.419 -9.821,6.042 -2.765,2.623 -4.915,5.806 -6.456,9.533 -1.539,3.735 -2.31,7.901 -2.31,12.497 0,4.598 0.771,8.765 2.31,12.496 1.541,3.733 3.692,6.916 6.459,9.539 2.757,2.623 6.028,4.632 9.818,6.042 3.781,1.41 7.927,2.113 12.414,2.113 3.944,0 7.785,-0.816 11.522,-2.434 3.73,-1.63 6.817,-4.139 9.251,-7.551 L 41.223,42.519 c -1.295,1.951 -2.942,3.464 -4.947,4.544 z M 107.118,1.466 h -12.66 v 34.811 c 0,1.787 -0.287,3.437 -0.853,4.949 -0.567,1.516 -1.367,2.827 -2.391,3.937 -1.032,1.107 -2.247,1.976 -3.656,2.595 -1.405,0.622 -2.95,0.933 -4.628,0.933 -1.674,0 -3.229,-0.311 -4.661,-0.933 C 76.835,47.137 75.606,46.27 74.575,45.163 73.546,44.053 72.746,42.74 72.183,41.226 71.618,39.714 71.331,38.06 71.331,36.277 V 1.466 H 58.672 V 36.76 c 0,3.414 0.517,6.55 1.542,9.417 1.029,2.865 2.557,5.357 4.581,7.463 2.035,2.114 4.561,3.763 7.593,4.953 3.031,1.193 6.55,1.785 10.544,1.785 3.952,0 7.444,-0.592 10.473,-1.785 3.027,-1.189 5.565,-2.838 7.592,-4.953 2.024,-2.105 3.554,-4.598 4.583,-7.463 1.024,-2.867 1.542,-6.007 1.542,-9.417 H 107.12 V 1.466 Z m 44.227,37.487 h -0.163 L 137.951,1.463 H 118.81 v 57.455 h 12.653 V 14.851 h 0.164 l 14.525,44.067 h 9.651 l 15.101,-44.067 h 0.163 v 44.067 h 12.661 V 1.466 H 164.656 Z M 243.85,1.466 h -12.657 v 34.811 c 0,1.787 -0.283,3.437 -0.849,4.949 -0.574,1.516 -1.368,2.827 -2.399,3.937 -1.027,1.107 -2.242,1.976 -3.647,2.595 -1.408,0.622 -2.956,0.933 -4.629,0.933 -1.671,0 -3.23,-0.311 -4.661,-0.933 -1.439,-0.621 -2.667,-1.488 -3.692,-2.595 -1.033,-1.11 -1.831,-2.423 -2.396,-3.937 -0.567,-1.512 -0.854,-3.166 -0.854,-4.949 V 1.466 H 195.411 V 36.76 c 0,3.414 0.514,6.55 1.539,9.417 1.022,2.865 2.561,5.357 4.583,7.463 2.027,2.114 4.562,3.763 7.596,4.953 3.022,1.193 6.541,1.785 10.545,1.785 3.95,0 7.434,-0.592 10.468,-1.785 3.03,-1.189 5.556,-2.838 7.587,-4.953 2.031,-2.105 3.56,-4.598 4.588,-7.463 1.028,-2.867 1.538,-6.007 1.538,-9.417 h -0.005 z m 24.838,0 h -12.66 -0.002 v 57.452 h 36.108 V 47.234 h -23.446 z m 80.581,6.687 C 346.51,5.532 343.235,3.519 339.448,2.109 335.665,0.702 331.519,0 327.036,0 c -4.494,0 -8.633,0.701 -12.42,2.114 -3.786,1.405 -7.057,3.419 -9.819,6.042 -2.76,2.623 -4.912,5.805 -6.453,9.534 -1.538,3.733 -2.312,7.9 -2.312,12.496 0,4.6 0.774,8.767 2.317,12.495 1.536,3.735 3.691,6.917 6.452,9.538 2.76,2.628 6.031,4.637 9.819,6.047 3.783,1.406 7.922,2.107 12.416,2.107 4.483,0 8.63,-0.701 12.412,-2.107 3.787,-1.41 7.063,-3.419 9.821,-6.047 2.76,-2.625 4.911,-5.804 6.452,-9.538 1.545,-3.728 2.314,-7.895 2.314,-12.495 0,-4.598 -0.77,-8.767 -2.314,-12.501 -1.541,-3.725 -3.693,-6.907 -6.452,-9.532 z m -5.639,29.466 c -0.836,2.24 -2.043,4.184 -3.614,5.837 -1.566,1.652 -3.442,2.936 -5.636,3.855 -2.193,0.92 -4.64,1.375 -7.344,1.375 -2.711,0 -5.158,-0.455 -7.349,-1.375 -2.19,-0.922 -4.072,-2.204 -5.638,-3.855 -1.564,-1.654 -2.769,-3.598 -3.609,-5.837 -0.843,-2.251 -1.26,-4.725 -1.26,-7.433 0,-2.651 0.417,-5.106 1.26,-7.382 0.84,-2.27 2.038,-4.228 3.609,-5.884 1.565,-1.646 3.448,-2.932 5.638,-3.854 2.191,-0.921 4.639,-1.378 7.349,-1.378 2.704,0 5.151,0.457 7.344,1.378 2.193,0.922 4.069,2.208 5.636,3.854 1.571,1.651 2.778,3.614 3.614,5.884 0.84,2.275 1.262,4.732 1.262,7.382 0,2.709 -0.427,5.183 -1.262,7.433 z m 56.197,9.444 c -2.004,1.087 -4.304,1.625 -6.905,1.625 -2.267,0 -4.393,-0.459 -6.366,-1.381 -1.977,-0.916 -3.694,-2.203 -5.158,-3.856 -1.457,-1.648 -2.605,-3.592 -3.445,-5.837 -0.839,-2.245 -1.263,-4.722 -1.263,-7.428 0,-2.649 0.427,-5.111 1.263,-7.382 0.84,-2.272 1.998,-4.231 3.49,-5.884 1.487,-1.646 3.245,-2.936 5.276,-3.856 2.031,-0.918 4.23,-1.375 6.617,-1.375 2.374,0 4.472,0.401 6.286,1.215 1.81,0.81 3.336,1.974 4.583,3.489 l 9.734,-7.953 c -1.242,-1.564 -2.653,-2.888 -4.215,-3.975 -1.571,-1.078 -3.206,-1.951 -4.912,-2.597 -1.703,-0.65 -3.438,-1.119 -5.191,-1.422 -1.759,-0.292 -3.456,-0.445 -5.071,-0.445 -4.496,0 -8.637,0.701 -12.415,2.109 -3.792,1.407 -7.061,3.424 -9.824,6.044 -2.759,2.625 -4.915,5.805 -6.449,9.533 -1.541,3.732 -2.313,7.901 -2.313,12.499 0,4.596 0.772,8.765 2.313,12.496 1.534,3.733 3.69,6.916 6.449,9.534 2.765,2.628 6.033,4.637 9.824,6.047 3.782,1.41 7.919,2.109 12.419,2.109 3.945,0 7.778,-0.812 11.513,-2.434 3.739,-1.626 6.819,-4.14 9.254,-7.547 l -10.552,-7.874 c -1.295,1.951 -2.941,3.466 -4.942,4.546 z m 22.233,11.855 h 12.654 V 1.466 H 422.06 Z M 526.173,1.466 513.273,22.965 501.1,1.466 h -14.688 -1.059 -44.383 v 11.195 h 16.384 v 46.257 h 12.665 V 12.661 h 16.393 V 3.08 l 20.53,31.328 v 24.51 h 12.655 V 34.408 L 541.18,1.463 h -15.007 z" />
		</g>
	</g>
	<g
   style="fill:#ffffff"
   id="g12">
		<g
   style="fill:#ffffff"
   id="g10">
			<path
   style="fill:#ffffff"
   id="path8"
   d="m 569.256,58.918 h 12.663 V 1.466 h -12.663 z m 58.64,-34.774 c -1.978,-1.815 -4.306,-3.21 -6.978,-4.18 -2.686,-0.977 -5.539,-1.46 -8.562,-1.46 -3.039,0 -5.892,0.483 -8.562,1.46 -2.682,0.97 -5.012,2.365 -6.984,4.18 -1.979,1.811 -3.524,3.991 -4.666,6.532 -1.136,2.539 -1.702,5.385 -1.702,8.519 0,3.144 0.566,5.979 1.702,8.521 1.142,2.549 2.688,4.72 4.666,6.529 1.973,1.815 4.303,3.208 6.984,4.183 2.678,0.971 5.523,1.461 8.562,1.461 3.023,0 5.877,-0.488 8.562,-1.461 2.672,-0.977 5,-2.364 6.978,-4.183 1.973,-1.806 3.525,-3.98 4.663,-6.529 1.138,-2.542 1.706,-5.384 1.706,-8.521 0,-3.133 -0.568,-5.979 -1.706,-8.519 -1.137,-2.542 -2.69,-4.721 -4.663,-6.532 z m -8.36,22.272 c -1.712,1.846 -4.1,2.762 -7.185,2.762 -3.087,0 -5.478,-0.917 -7.184,-2.762 -1.704,-1.836 -2.554,-4.243 -2.554,-7.221 0,-2.973 0.852,-5.382 2.554,-7.221 1.706,-1.833 4.094,-2.759 7.184,-2.759 3.077,0 5.473,0.925 7.185,2.759 1.696,1.836 2.549,4.248 2.549,7.221 0.002,2.977 -0.853,5.385 -2.549,7.221 z m 10.018,-44.95 v 11.195 h 16.395 v 46.257 h 12.657 V 12.661 H 675 V 1.463 h -45.446 z" />
		</g>
	</g>
	<g
   style="fill:#ffffff"
   id="g38">
		<path
   style="fill:#ffffff"
   id="path14"
   d="M 0.001,85.582 H 5.89 c 0.802,0 1.585,0.084 2.347,0.248 0.763,0.164 1.445,0.43 2.045,0.803 0.603,0.371 1.088,0.865 1.46,1.461 0.37,0.602 0.556,1.346 0.556,2.234 0,1.129 -0.303,2.061 -0.912,2.799 -0.61,0.736 -1.431,1.258 -2.466,1.568 v 0.057 c 0.616,0.053 1.194,0.213 1.73,0.475 0.536,0.262 0.999,0.605 1.392,1.02 0.39,0.422 0.696,0.906 0.913,1.461 0.221,0.557 0.326,1.152 0.326,1.787 0,1.07 -0.224,1.957 -0.666,2.648 -0.447,0.689 -1.029,1.238 -1.748,1.648 -0.717,0.41 -1.525,0.695 -2.428,0.859 -0.899,0.164 -1.795,0.246 -2.686,0.246 H 0 Z m 2.29,8.186 h 3.162 c 0.547,0 1.08,-0.037 1.599,-0.109 0.517,-0.074 0.985,-0.225 1.402,-0.451 0.419,-0.227 0.756,-0.545 1.012,-0.957 0.253,-0.41 0.379,-0.949 0.379,-1.619 0,-0.604 -0.116,-1.088 -0.353,-1.461 C 9.256,88.8 8.94,88.503 8.55,88.286 8.161,88.067 7.715,87.915 7.216,87.837 6.713,87.755 6.211,87.712 5.702,87.712 h -3.41 z m 0,8.998 h 3.873 c 0.567,0 1.122,-0.062 1.678,-0.176 0.556,-0.121 1.055,-0.311 1.502,-0.572 0.442,-0.262 0.802,-0.609 1.075,-1.037 0.273,-0.426 0.41,-0.949 0.41,-1.568 0,-0.67 -0.133,-1.234 -0.396,-1.688 C 10.169,97.27 9.823,96.907 9.398,96.635 8.972,96.36 8.479,96.168 7.927,96.061 7.369,95.951 6.8,95.898 6.22,95.898 H 2.291 Z" />
		<path
   style="fill:#ffffff"
   id="path16"
   d="M 21.191,96.574 13.988,85.582 h 2.92 l 5.426,8.73 5.589,-8.73 h 2.756 l -7.202,10.992 v 8.318 h -2.29 v -8.318 z" />
		<path
   style="fill:#ffffff"
   id="path18"
   d="m 48.548,89.729 c -0.367,-0.523 -0.854,-0.912 -1.459,-1.158 -0.613,-0.246 -1.251,-0.369 -1.924,-0.369 -0.399,0 -0.786,0.045 -1.159,0.135 -0.372,0.092 -0.709,0.234 -1.009,0.438 -0.3,0.199 -0.543,0.461 -0.723,0.777 -0.182,0.318 -0.272,0.693 -0.272,1.129 0,0.658 0.226,1.156 0.682,1.502 0.453,0.344 1.015,0.645 1.688,0.898 0.671,0.254 1.412,0.5 2.209,0.736 0.799,0.236 1.535,0.564 2.21,0.982 0.672,0.42 1.235,0.973 1.688,1.664 0.457,0.689 0.683,1.607 0.683,2.752 0,1.035 -0.189,1.941 -0.572,2.713 -0.379,0.77 -0.896,1.414 -1.541,1.924 -0.646,0.512 -1.396,0.889 -2.248,1.145 -0.857,0.254 -1.758,0.379 -2.704,0.379 -1.198,0 -2.353,-0.201 -3.462,-0.6 -1.109,-0.399 -2.063,-1.07 -2.863,-2.016 l 2.591,-2.51 c 0.419,0.641 0.968,1.133 1.652,1.488 0.682,0.354 1.404,0.533 2.167,0.533 0.399,0 0.799,-0.059 1.203,-0.168 0.399,-0.107 0.762,-0.271 1.089,-0.49 0.329,-0.221 0.592,-0.494 0.792,-0.83 0.199,-0.336 0.299,-0.723 0.299,-1.16 0,-0.709 -0.226,-1.258 -0.683,-1.641 C 46.429,97.605 45.865,97.281 45.191,97.019 44.52,96.755 43.783,96.501 42.984,96.267 42.181,96.031 41.446,95.705 40.775,95.302 40.102,94.89 39.539,94.345 39.082,93.663 38.629,92.979 38.4,92.067 38.4,90.923 c 0,-1.002 0.207,-1.863 0.617,-2.594 0.41,-0.725 0.946,-1.332 1.609,-1.812 0.662,-0.482 1.42,-0.842 2.277,-1.076 0.855,-0.236 1.726,-0.354 2.615,-0.354 1.018,0 2.007,0.154 2.959,0.463 0.957,0.309 1.815,0.818 2.578,1.527 z" />
		<path
   style="fill:#ffffff"
   id="path20"
   d="m 53.156,95.322 c 0,-1.547 0.253,-2.949 0.762,-4.215 0.509,-1.266 1.215,-2.34 2.113,-3.232 0.899,-0.889 1.974,-1.58 3.22,-2.059 1.245,-0.482 2.613,-0.721 4.105,-0.721 1.508,-0.021 2.89,0.203 4.144,0.666 1.256,0.469 2.337,1.145 3.245,2.035 0.909,0.889 1.617,1.961 2.127,3.217 0.51,1.256 0.764,2.654 0.764,4.199 0,1.51 -0.253,2.885 -0.764,4.119 -0.511,1.234 -1.218,2.305 -2.127,3.193 -0.909,0.891 -1.99,1.588 -3.245,2.086 -1.255,0.5 -2.638,0.76 -4.144,0.775 -1.492,0 -2.86,-0.238 -4.105,-0.721 -1.246,-0.48 -2.32,-1.164 -3.22,-2.047 -0.898,-0.881 -1.605,-1.941 -2.113,-3.176 -0.509,-1.24 -0.762,-2.611 -0.762,-4.119 z m 3.598,-0.22 c 0,1.035 0.159,1.992 0.479,2.863 0.316,0.871 0.766,1.629 1.348,2.262 0.582,0.637 1.278,1.141 2.088,1.504 0.81,0.363 1.71,0.547 2.714,0.547 0.998,0 1.907,-0.184 2.726,-0.547 0.819,-0.363 1.517,-0.865 2.101,-1.504 0.583,-0.633 1.031,-1.391 1.349,-2.262 0.32,-0.871 0.479,-1.828 0.479,-2.863 0,-0.963 -0.16,-1.861 -0.479,-2.697 -0.317,-0.836 -0.767,-1.566 -1.349,-2.195 -0.583,-0.627 -1.281,-1.117 -2.101,-1.475 -0.818,-0.354 -1.728,-0.531 -2.726,-0.531 -1.003,0 -1.906,0.178 -2.714,0.531 -0.81,0.357 -1.506,0.848 -2.088,1.475 -0.583,0.625 -1.032,1.359 -1.348,2.195 -0.32,0.833 -0.479,1.734 -0.479,2.697 z" />
		<path
   style="fill:#ffffff"
   id="path22"
   d="m 76.362,85.582 h 12.464 v 3.111 h -9.028 v 5.074 h 8.509 v 3.107 h -8.509 v 8.018 h -3.437 z" />
		<path
   style="fill:#ffffff"
   id="path24"
   d="m 95.424,88.693 h -5.918 v -3.111 h 15.275 v 3.111 h -5.918 v 16.199 h -3.437 z" />
		<path
   style="fill:#ffffff"
   id="path26"
   d="m 104.427,85.582 h 3.762 l 3.629,13.912 h 0.054 l 4.337,-13.912 h 3.383 l 4.254,13.912 h 0.054 l 3.791,-13.912 h 3.49 l -5.617,19.311 h -3.273 l -4.475,-14.697 h -0.053 l -4.475,14.697 h -3.162 z" />
		<path
   style="fill:#ffffff"
   id="path28"
   d="m 138.351,85.582 h 2.974 l 8.318,19.311 h -3.928 l -1.8,-4.42 h -8.374 l -1.744,4.42 h -3.845 z m 4.365,11.947 -2.974,-7.852 -3.025,7.852 z" />
		<path
   style="fill:#ffffff"
   id="path30"
   d="m 151.253,85.582 h 6.709 c 0.928,0 1.824,0.086 2.687,0.26 0.866,0.176 1.63,0.473 2.307,0.889 0.672,0.422 1.209,0.982 1.608,1.689 0.399,0.711 0.601,1.611 0.601,2.701 0,1.4 -0.387,2.572 -1.16,3.52 -0.771,0.945 -1.878,1.516 -3.312,1.715 l 5.127,8.537 h -4.145 L 157.2,96.709 h -2.511 v 8.184 h -3.435 V 85.582 Z m 6.108,8.186 c 0.492,0 0.981,-0.023 1.474,-0.07 0.49,-0.045 0.939,-0.156 1.349,-0.326 0.41,-0.174 0.743,-0.438 0.996,-0.791 0.253,-0.353 0.383,-0.85 0.383,-1.486 0,-0.562 -0.122,-1.02 -0.356,-1.365 -0.237,-0.34 -0.547,-0.604 -0.926,-0.775 -0.382,-0.172 -0.805,-0.285 -1.268,-0.34 -0.463,-0.055 -0.915,-0.08 -1.352,-0.08 h -2.973 v 5.234 h 2.673 z" />
		<path
   style="fill:#ffffff"
   id="path32"
   d="m 167.889,85.582 h 12.791 v 3.111 h -9.355 v 4.742 h 8.866 v 3.111 h -8.866 v 5.236 h 9.848 v 3.107 H 167.89 V 85.582 Z" />
		<path
   style="fill:#ffffff"
   id="path34"
   d="m 197.779,85.582 h 2.971 l 8.321,19.311 h -3.93 l -1.801,-4.42 h -8.373 l -1.745,4.42 h -3.845 z m 4.361,11.947 -2.971,-7.852 -3.027,7.852 z" />
		<path
   style="fill:#ffffff"
   id="path36"
   d="m 227.833,103.475 c -2.384,1.271 -5.046,1.906 -7.99,1.906 -1.492,0 -2.86,-0.238 -4.105,-0.721 -1.245,-0.48 -2.32,-1.164 -3.219,-2.045 -0.898,-0.881 -1.604,-1.943 -2.112,-3.176 -0.51,-1.24 -0.763,-2.609 -0.763,-4.121 0,-1.549 0.253,-2.945 0.763,-4.215 0.508,-1.264 1.214,-2.34 2.112,-3.23 0.899,-0.891 1.974,-1.58 3.219,-2.059 1.246,-0.48 2.614,-0.719 4.105,-0.719 1.47,0 2.854,0.172 4.145,0.527 1.292,0.355 2.444,0.988 3.463,1.898 l -2.537,2.564 c -0.617,-0.602 -1.368,-1.064 -2.248,-1.393 -0.882,-0.326 -1.814,-0.492 -2.798,-0.492 -1.002,0 -1.905,0.178 -2.714,0.531 -0.808,0.357 -1.504,0.844 -2.086,1.473 -0.582,0.627 -1.033,1.361 -1.349,2.193 -0.319,0.836 -0.478,1.74 -0.478,2.699 0,1.037 0.16,1.992 0.478,2.863 0.315,0.871 0.767,1.629 1.349,2.264 0.583,0.637 1.279,1.137 2.086,1.502 0.81,0.361 1.712,0.545 2.714,0.545 0.873,0 1.694,-0.082 2.467,-0.246 0.772,-0.162 1.461,-0.42 2.06,-0.766 v -4.551 h -3.954 v -3.105 h 7.39 v 9.869 h 0.002 z" />
	</g>
</g>
</svg>