<svg id="svg" version="1.1" xmlns="http://www.w3.org/2000/svg" xmlns:xlink="http://www.w3.org/1999/xlink" width="400" height="94.41786283891547" viewBox="0, 0, 400,94.41786283891547"><g id="svgg"><path id="path0" d="M47.454 1.194 C 46.522 4.942,43.669 8.888,39.417 12.307 C 38.317 13.192,37.295 14.047,37.147 14.208 C 36.999 14.369,36.793 14.500,36.689 14.500 C 36.585 14.500,36.500 14.575,36.500 14.667 C 36.500 14.758,36.426 14.833,36.335 14.833 C 36.244 14.833,36.000 14.977,35.793 15.152 C 35.296 15.573,34.282 16.376,32.826 17.500 C 31.232 18.731,27.734 22.288,26.958 23.467 C 26.614 23.989,26.258 24.507,26.167 24.618 C 26.075 24.729,26.000 24.895,26.000 24.988 C 26.000 25.081,25.865 25.403,25.699 25.703 C 25.020 26.939,24.345 29.248,24.345 30.333 C 24.346 30.875,26.830 33.928,27.050 33.658 C 27.084 33.617,27.355 32.871,27.652 32.000 C 29.043 27.925,31.509 24.294,34.685 21.644 C 35.362 21.079,36.305 20.263,36.780 19.831 C 37.255 19.399,38.155 18.681,38.780 18.235 C 41.961 15.965,45.511 12.794,47.044 10.853 C 47.523 10.246,47.972 9.725,48.041 9.694 C 48.110 9.664,48.167 9.581,48.167 9.510 C 48.167 9.439,48.529 8.751,48.972 7.981 C 49.842 6.469,50.610 4.685,50.696 3.973 C 50.751 3.519,48.296 0.015,47.917 0.005 C 47.825 0.003,47.617 0.538,47.454 1.194 M58.428 13.375 C 58.394 13.490,58.240 14.071,58.086 14.667 C 57.503 16.921,55.173 20.942,53.729 22.186 C 53.557 22.333,53.004 22.887,52.500 23.416 C 51.543 24.419,49.953 25.833,49.781 25.833 C 49.727 25.833,49.498 26.002,49.273 26.208 C 49.049 26.415,48.757 26.670,48.624 26.775 C 47.515 27.657,45.551 29.202,45.416 29.298 C 40.016 33.146,36.389 37.624,35.335 41.744 C 34.794 43.861,34.804 43.901,36.375 45.573 L 37.750 47.038 38.291 45.388 C 39.921 40.415,42.970 36.491,48.425 32.347 C 49.154 31.793,49.973 31.170,50.246 30.962 C 50.519 30.754,51.007 30.352,51.329 30.070 C 51.652 29.787,52.367 29.229,52.917 28.830 C 54.297 27.828,57.675 24.403,58.446 23.223 C 58.796 22.688,59.158 22.195,59.250 22.128 C 59.341 22.060,59.349 22.004,59.266 22.003 C 59.183 22.001,59.231 21.869,59.372 21.708 C 59.859 21.156,61.500 17.524,61.500 16.999 C 61.500 16.929,60.978 16.188,60.340 15.354 C 59.702 14.519,59.099 13.685,59.001 13.501 C 58.799 13.124,58.520 13.062,58.428 13.375 M62.877 24.958 C 62.497 25.302,61.845 25.876,61.427 26.233 C 60.457 27.061,60.448 27.035,61.875 27.456 C 65.431 28.503,69.171 30.804,71.750 33.530 C 73.854 35.754,74.333 36.300,74.333 36.470 C 74.333 36.563,74.392 36.664,74.464 36.694 C 74.616 36.759,77.833 40.788,77.833 40.913 C 77.833 41.016,78.184 41.451,79.233 42.650 C 84.139 48.259,90.180 51.906,91.667 50.158 C 91.712 50.104,92.415 49.561,93.227 48.951 C 94.891 47.703,94.892 47.711,93.000 47.335 C 91.774 47.091,89.002 45.731,87.686 44.728 C 87.101 44.282,86.448 43.820,86.235 43.703 C 85.660 43.385,81.979 39.426,81.010 38.083 C 80.200 36.961,77.811 33.893,76.532 32.333 C 71.723 26.466,65.139 22.910,62.877 24.958 M15.802 33.157 C 14.985 33.804,13.167 35.617,13.167 35.785 C 13.167 35.947,13.400 36.016,14.703 36.239 C 17.593 36.732,23.566 41.076,26.396 44.742 C 26.966 45.480,27.557 46.233,27.711 46.417 C 27.864 46.600,28.368 47.237,28.831 47.833 C 29.294 48.429,29.746 49.007,29.836 49.118 C 29.926 49.229,30.000 49.391,30.000 49.479 C 30.000 49.567,30.069 49.664,30.152 49.694 C 30.236 49.725,30.732 50.275,31.255 50.917 C 34.769 55.233,38.112 57.743,42.236 59.162 L 43.163 59.481 44.331 58.615 C 44.973 58.139,45.836 57.504,46.249 57.203 C 47.056 56.615,47.194 56.333,46.675 56.333 C 46.166 56.333,43.671 55.506,42.750 55.032 C 42.292 54.796,41.840 54.589,41.746 54.572 C 41.163 54.465,37.197 51.315,36.469 50.381 C 36.042 49.833,34.720 48.342,33.842 47.417 C 33.581 47.142,33.229 46.690,33.059 46.413 C 32.669 45.777,31.313 43.971,31.059 43.750 C 30.954 43.658,30.360 42.908,29.739 42.083 C 29.119 41.258,28.455 40.430,28.264 40.242 C 28.073 40.054,27.354 39.304,26.667 38.575 C 23.940 35.682,19.990 33.369,17.257 33.065 C 16.886 33.023,16.494 32.959,16.386 32.921 C 16.277 32.883,16.014 32.989,15.802 33.157 M48.870 36.298 C 47.213 37.842,47.225 37.717,48.692 38.163 C 51.418 38.991,54.598 40.681,56.250 42.181 C 56.433 42.348,56.917 42.769,57.325 43.117 C 58.314 43.960,58.588 44.239,59.667 45.492 C 60.171 46.077,60.848 46.863,61.172 47.237 C 62.239 48.470,63.000 49.470,63.000 49.639 C 63.000 49.731,63.058 49.831,63.129 49.861 C 63.200 49.892,63.630 50.404,64.085 51.000 C 68.355 56.595,72.538 59.974,76.766 61.247 L 77.481 61.462 79.419 60.043 C 81.368 58.616,81.567 58.317,80.623 58.227 C 77.960 57.974,73.202 55.065,70.583 52.088 C 70.125 51.567,69.567 50.940,69.344 50.695 C 68.853 50.158,66.764 47.512,65.500 45.827 C 64.996 45.155,64.279 44.263,63.906 43.844 C 63.533 43.426,62.880 42.633,62.453 42.083 C 59.978 38.893,56.332 36.356,52.835 35.391 C 50.598 34.773,50.476 34.801,48.870 36.298 M1.402 44.876 C -0.176 46.373,-0.262 46.581,0.625 46.746 C 0.969 46.811,1.325 46.921,1.417 46.991 C 1.508 47.062,1.833 47.167,2.138 47.225 C 3.257 47.437,7.667 49.850,8.250 50.569 C 8.342 50.682,8.542 50.844,8.695 50.929 C 9.548 51.401,12.494 54.557,14.501 57.146 C 15.096 57.914,16.183 59.291,16.917 60.206 C 17.650 61.120,18.525 62.224,18.861 62.657 C 21.179 65.650,25.358 68.597,29.150 69.915 L 29.883 70.169 30.768 69.501 C 31.254 69.134,31.731 68.833,31.826 68.833 C 31.922 68.833,32.002 68.777,32.004 68.708 C 32.006 68.640,32.379 68.321,32.833 68.000 C 33.892 67.252,33.876 67.099,32.708 66.842 C 31.628 66.605,29.137 65.675,28.981 65.452 C 28.925 65.371,28.833 65.330,28.776 65.361 C 28.619 65.446,26.101 63.740,25.383 63.062 C 25.035 62.733,24.543 62.316,24.289 62.136 C 24.036 61.955,23.297 61.195,22.647 60.445 C 21.997 59.696,21.296 58.895,21.089 58.664 C 20.882 58.434,19.648 56.862,18.346 55.171 C 12.172 47.152,8.768 44.488,3.666 43.681 L 2.804 43.545 1.402 44.876 M56.448 47.625 C 56.409 47.694,56.283 48.163,56.167 48.667 C 56.051 49.171,55.898 49.658,55.827 49.750 C 55.756 49.842,55.662 50.148,55.618 50.430 C 55.440 51.572,52.876 55.640,52.124 55.973 C 52.055 56.003,52.034 56.087,52.078 56.158 C 52.211 56.374,48.521 59.738,46.464 61.277 C 45.796 61.777,45.025 62.369,44.750 62.594 C 44.475 62.819,43.612 63.495,42.833 64.096 C 37.804 67.976,34.310 72.065,33.736 74.741 C 33.676 75.021,33.581 75.325,33.525 75.417 C 33.468 75.508,33.416 75.696,33.410 75.833 C 33.403 75.971,33.351 76.308,33.293 76.583 C 32.927 78.341,32.879 78.187,34.263 79.738 C 35.851 81.517,35.799 81.526,36.491 79.371 C 38.225 73.974,41.023 70.706,49.158 64.576 C 54.534 60.525,58.031 56.218,59.234 52.168 L 59.497 51.284 58.670 50.101 C 58.215 49.449,57.634 48.601,57.380 48.214 C 56.943 47.552,56.610 47.341,56.448 47.625 M67.092 60.875 C 67.010 61.140,66.843 61.946,66.746 62.552 C 66.344 65.053,62.170 70.669,58.833 73.197 C 58.512 73.441,57.557 74.189,56.710 74.861 C 55.863 75.533,54.563 76.533,53.821 77.083 C 53.079 77.633,52.347 78.220,52.194 78.386 C 52.041 78.552,51.429 79.092,50.833 79.584 C 49.298 80.854,48.854 81.284,47.913 82.416 C 47.457 82.965,46.989 83.514,46.874 83.636 C 46.263 84.286,44.345 87.667,44.588 87.667 C 44.622 87.667,44.549 87.910,44.426 88.208 C 44.302 88.506,44.075 89.374,43.921 90.137 L 43.640 91.524 44.683 92.720 C 46.444 94.741,46.489 94.749,47.001 93.125 C 47.765 90.698,49.199 87.767,50.125 86.739 C 50.286 86.561,50.844 85.881,51.367 85.227 C 51.889 84.573,52.864 83.549,53.533 82.951 C 54.202 82.353,55.050 81.595,55.417 81.267 C 55.783 80.938,56.523 80.350,57.061 79.960 C 64.302 74.702,68.230 70.383,69.763 65.994 C 70.292 64.482,70.315 64.562,68.727 62.436 C 67.416 60.679,67.212 60.485,67.092 60.875 " stroke="none" fill="#2c3494" fill-rule="evenodd"></path><path id="path1" d="M53.000 6.950 C 53.000 7.105,52.796 7.874,52.547 8.658 C 52.298 9.442,52.102 10.177,52.112 10.292 C 52.122 10.406,52.075 10.500,52.009 10.500 C 51.943 10.500,51.888 10.594,51.887 10.708 C 51.885 10.993,50.597 13.081,49.857 14.000 C 47.626 16.771,45.754 18.519,41.873 21.454 C 40.634 22.391,39.054 23.628,38.363 24.204 C 37.672 24.779,36.726 25.557,36.262 25.933 C 35.499 26.550,34.471 27.607,33.340 28.935 C 31.362 31.261,29.896 34.434,29.757 36.689 L 29.691 37.771 31.000 39.136 C 32.599 40.803,32.521 40.803,32.983 39.125 C 34.377 34.063,37.432 30.267,44.375 24.971 C 45.819 23.870,47.000 22.901,47.000 22.818 C 47.000 22.735,47.057 22.685,47.126 22.708 C 47.196 22.731,47.890 22.217,48.668 21.565 C 49.926 20.511,50.593 19.843,52.354 17.878 C 53.011 17.144,54.500 14.844,54.500 14.562 C 54.500 14.436,54.562 14.333,54.638 14.333 C 54.803 14.333,55.311 13.174,55.821 11.634 C 56.186 10.532,56.186 10.512,55.874 10.051 C 55.700 9.794,55.281 9.171,54.944 8.667 C 53.831 7.004,53.000 6.270,53.000 6.950 M55.296 30.976 C 53.840 32.457,53.732 32.667,54.430 32.667 C 55.135 32.667,58.571 34.089,59.662 34.831 C 59.894 34.989,60.608 35.444,61.250 35.842 C 62.461 36.593,65.948 39.814,66.654 40.833 C 66.876 41.154,67.101 41.454,67.154 41.500 C 67.207 41.546,67.544 41.958,67.903 42.417 C 68.261 42.875,68.636 43.325,68.736 43.417 C 69.041 43.698,70.073 45.039,70.636 45.886 C 71.956 47.870,75.175 51.195,77.659 53.141 C 78.605 53.882,81.628 55.405,83.167 55.917 L 84.028 56.203 84.639 55.679 C 84.975 55.391,85.831 54.776,86.542 54.311 C 88.141 53.265,88.143 53.153,86.562 52.794 C 84.155 52.246,81.211 50.593,78.731 48.394 C 77.406 47.220,77.314 47.125,75.719 45.250 C 75.095 44.517,74.453 43.795,74.292 43.647 C 74.131 43.499,74.000 43.320,74.000 43.249 C 74.000 43.091,72.395 40.994,71.577 40.083 C 71.248 39.717,70.719 39.026,70.401 38.548 C 69.904 37.801,67.713 35.382,66.083 33.783 C 64.678 32.404,61.350 30.558,59.276 30.007 C 56.771 29.342,56.947 29.299,55.296 30.976 M8.209 39.192 C 7.728 39.682,7.110 40.258,6.834 40.471 C 6.182 40.976,6.200 41.271,6.891 41.401 C 8.237 41.653,12.154 43.447,13.583 44.465 C 15.095 45.542,17.962 48.157,18.590 49.032 C 18.930 49.505,19.526 50.235,19.914 50.655 C 20.494 51.281,21.200 52.175,22.625 54.084 C 26.645 59.468,30.726 62.928,34.881 64.474 C 36.250 64.984,36.274 64.976,38.275 63.490 C 40.300 61.987,40.384 61.886,39.720 61.748 C 39.462 61.695,38.800 61.524,38.250 61.369 C 37.700 61.213,37.194 61.104,37.125 61.126 C 37.056 61.149,37.000 61.100,37.000 61.018 C 37.000 60.936,36.686 60.744,36.302 60.590 C 35.368 60.216,33.443 59.064,33.076 58.659 C 32.914 58.480,32.712 58.333,32.627 58.333 C 31.987 58.333,28.241 54.306,25.254 50.407 C 24.065 48.854,22.938 47.433,22.751 47.250 C 22.563 47.067,22.208 46.604,21.962 46.222 C 20.953 44.658,16.234 40.430,15.319 40.271 C 15.189 40.248,14.827 40.070,14.514 39.875 C 13.771 39.412,11.018 38.524,9.934 38.398 L 9.083 38.300 8.209 39.192 M61.503 55.708 C 60.211 60.228,55.833 65.574,50.593 69.029 C 50.221 69.274,49.562 69.762,49.129 70.112 C 48.695 70.463,47.720 71.237,46.962 71.833 C 41.943 75.777,38.108 81.598,38.380 84.862 C 38.443 85.620,41.333 88.448,41.333 87.752 C 41.333 87.175,42.725 83.868,43.577 82.420 C 44.085 81.558,44.500 80.785,44.500 80.704 C 44.500 80.622,44.775 80.281,45.111 79.944 C 45.447 79.608,45.681 79.333,45.631 79.333 C 45.580 79.333,45.812 79.051,46.145 78.705 C 46.478 78.359,47.137 77.666,47.610 77.163 C 48.083 76.661,49.096 75.748,49.860 75.135 C 50.625 74.522,51.488 73.801,51.778 73.532 C 52.068 73.264,52.818 72.700,53.445 72.280 C 54.071 71.860,54.858 71.269,55.194 70.966 C 56.634 69.669,57.102 69.279,57.756 68.829 C 58.137 68.567,58.695 68.067,58.997 67.718 C 59.299 67.369,59.941 66.660,60.422 66.142 C 61.826 64.631,62.560 63.544,63.552 61.500 C 64.945 58.634,65.032 58.186,64.368 57.296 C 64.076 56.904,63.497 56.077,63.081 55.458 C 62.111 54.012,61.981 54.033,61.503 55.708 " stroke="none" fill="#8cb43c" fill-rule="evenodd"></path><path id="path2" d="M354.500 19.149 C 351.103 20.245,349.750 24.118,351.600 27.449 C 353.073 30.103,358.450 30.507,360.601 28.125 C 362.987 25.485,362.116 20.980,358.917 19.414 C 358.194 19.060,355.312 18.887,354.500 19.149 " stroke="none" fill="#fb0404" fill-rule="evenodd"></path><path id="path3" d="M41.409 10.542 L 40.750 11.250 41.458 10.591 C 41.848 10.229,42.167 9.910,42.167 9.883 C 42.167 9.757,42.022 9.883,41.409 10.542 M122.933 18.930 C 113.540 20.390,107.712 26.610,108.042 34.821 C 108.330 41.978,113.763 47.151,124.772 50.751 C 131.214 52.858,133.775 58.440,130.255 62.707 C 127.115 66.514,117.467 66.515,110.544 62.710 C 109.951 62.384,109.418 62.188,109.344 62.270 C 109.147 62.488,107.569 68.389,107.268 70.034 L 107.154 70.651 108.536 71.311 C 110.260 72.136,112.450 72.756,116.083 73.448 C 119.330 74.066,126.078 73.886,128.926 73.105 C 129.379 72.981,130.125 72.785,130.583 72.669 C 137.456 70.937,142.005 65.035,142.028 57.819 C 142.054 49.882,138.329 45.767,127.115 41.342 C 126.399 41.060,125.443 40.641,124.990 40.412 C 124.537 40.182,124.167 40.034,124.167 40.083 C 124.167 40.466,121.141 38.483,119.862 37.264 C 117.614 35.119,117.633 31.378,119.904 29.379 C 123.209 26.470,128.477 26.231,135.417 28.677 C 136.242 28.967,137.014 29.283,137.132 29.379 C 137.261 29.482,137.405 29.491,137.490 29.401 C 137.778 29.096,140.146 21.333,139.951 21.333 C 139.925 21.333,139.156 21.028,138.243 20.654 C 134.037 18.932,127.589 18.206,122.933 18.930 M190.275 35.875 C 189.653 44.881,189.113 52.625,189.077 53.083 C 189.040 53.542,188.968 55.004,188.916 56.333 C 188.864 57.663,188.599 61.933,188.327 65.824 C 188.056 69.715,187.833 72.959,187.833 73.032 C 187.833 73.106,189.927 73.167,192.486 73.167 L 197.138 73.167 197.238 71.958 C 197.340 70.730,198.355 53.094,198.665 47.167 C 198.875 43.159,199.328 32.209,199.347 30.696 L 199.361 29.583 199.684 31.000 C 199.862 31.779,200.046 32.717,200.094 33.083 C 200.182 33.759,201.449 38.698,202.317 41.750 C 202.577 42.667,203.035 44.317,203.333 45.417 C 204.213 48.666,204.730 50.375,206.001 54.250 C 206.663 56.267,207.311 58.363,207.441 58.909 C 207.661 59.829,209.658 66.065,210.592 68.750 C 210.815 69.392,211.068 70.292,211.154 70.750 C 211.239 71.208,211.388 71.791,211.485 72.045 L 211.661 72.506 215.604 72.461 L 219.548 72.417 220.860 68.500 C 221.582 66.346,222.671 63.121,223.280 61.333 C 223.890 59.546,224.762 56.958,225.219 55.583 C 225.676 54.208,226.530 51.696,227.117 50.000 C 228.386 46.333,229.267 43.637,230.739 38.917 C 232.653 32.776,233.191 30.937,233.327 30.083 C 233.412 29.541,233.466 30.691,233.479 33.381 C 233.491 35.654,233.577 39.366,233.672 41.631 C 233.882 46.670,234.950 68.900,235.101 71.375 L 235.210 73.167 240.102 73.167 L 244.994 73.167 244.919 72.458 C 244.794 71.273,244.656 68.617,244.503 64.417 C 244.356 60.394,242.070 21.531,241.902 20.208 L 241.813 19.500 235.424 19.500 C 229.495 19.500,229.027 19.521,228.919 19.792 C 228.384 21.134,226.227 27.310,225.994 28.167 C 225.832 28.762,224.946 31.350,224.025 33.917 C 221.853 39.969,219.313 47.818,218.604 50.667 C 217.824 53.804,216.471 58.726,216.348 58.868 C 216.260 58.971,215.359 55.485,214.553 51.917 C 214.321 50.889,213.734 48.821,211.670 41.750 C 211.376 40.742,210.574 38.229,209.889 36.167 C 209.204 34.104,208.348 31.479,207.988 30.333 C 207.628 29.188,206.681 26.281,205.884 23.875 L 204.435 19.500 197.920 19.500 L 191.406 19.500 190.275 35.875 M302.583 24.335 C 300.475 24.873,298.356 25.364,297.875 25.426 L 297.000 25.538 297.000 29.936 L 297.000 34.333 294.250 34.333 L 291.500 34.333 291.500 38.167 L 291.500 42.000 294.250 42.000 L 297.000 42.000 297.001 52.208 C 297.002 63.245,297.065 64.273,297.905 66.930 C 298.656 69.308,300.758 71.972,302.333 72.541 C 302.746 72.690,303.646 73.017,304.333 73.267 C 306.456 74.040,312.191 74.019,314.851 73.229 L 315.667 72.987 315.665 69.785 C 315.664 68.024,315.616 66.298,315.558 65.950 L 315.454 65.316 314.268 65.449 C 307.236 66.237,306.988 65.770,306.881 51.542 L 306.809 42.000 311.405 42.000 L 316.000 42.000 316.000 38.167 L 316.000 34.333 311.417 34.333 L 306.833 34.333 306.833 28.833 C 306.833 24.538,306.788 23.336,306.625 23.345 C 306.510 23.351,304.692 23.797,302.583 24.335 M73.917 29.500 C 74.275 29.867,74.605 30.167,74.651 30.167 C 74.697 30.167,74.441 29.867,74.083 29.500 C 73.725 29.133,73.395 28.833,73.349 28.833 C 73.303 28.833,73.559 29.133,73.917 29.500 M267.083 33.807 C 264.751 34.330,262.478 35.239,261.148 36.182 C 260.908 36.351,260.677 36.454,260.633 36.411 C 260.414 36.192,255.833 40.743,255.833 41.179 C 255.833 41.250,255.467 41.941,255.020 42.715 C 251.137 49.440,251.084 59.789,254.904 65.373 C 255.297 65.947,255.666 66.567,255.725 66.750 C 256.264 68.447,261.227 71.866,264.500 72.797 C 267.774 73.727,267.970 73.750,272.583 73.745 C 277.523 73.740,279.853 73.419,284.167 72.151 C 285.944 71.628,285.897 72.086,284.739 66.520 C 284.263 64.230,284.467 64.418,283.002 64.916 C 282.331 65.144,281.549 65.360,281.266 65.396 C 280.982 65.431,280.037 65.596,279.167 65.762 C 274.928 66.570,269.005 66.063,266.630 64.689 C 265.290 63.914,263.159 61.770,262.862 60.899 C 262.254 59.113,261.833 57.580,261.833 57.148 L 261.833 56.667 274.657 56.667 C 284.532 56.667,287.509 56.620,287.605 56.464 C 287.674 56.353,287.763 55.005,287.803 53.469 C 288.069 43.266,283.719 36.140,275.917 33.996 C 274.019 33.474,269.042 33.368,267.083 33.807 M340.000 33.768 C 337.586 34.416,333.419 37.497,333.416 38.635 C 333.416 38.698,333.232 39.050,333.006 39.417 C 332.780 39.783,332.433 40.452,332.235 40.903 L 331.874 41.722 331.751 38.028 L 331.628 34.333 327.128 34.333 L 322.628 34.333 322.760 34.708 C 322.832 34.915,322.921 43.652,322.956 54.125 L 323.021 73.167 328.079 73.167 L 333.137 73.167 333.204 61.792 L 333.270 50.417 333.713 49.082 C 334.348 47.169,336.391 44.573,337.833 43.847 C 339.343 43.088,343.465 42.728,344.708 43.247 C 344.982 43.362,345.000 43.074,345.000 38.537 L 345.000 33.706 344.625 33.605 C 343.919 33.416,340.918 33.522,340.000 33.768 M386.333 33.756 C 378.999 34.916,371.957 40.366,370.508 46.003 C 370.403 46.414,370.212 47.021,370.085 47.352 C 368.559 51.331,368.963 59.158,370.926 63.615 C 371.626 65.207,373.850 68.163,375.140 69.218 C 376.965 70.710,379.953 72.499,380.621 72.500 C 380.734 72.500,381.372 72.681,382.038 72.902 C 386.499 74.380,393.330 74.144,399.375 72.304 C 400.223 72.046,400.116 70.129,398.985 65.292 C 398.769 64.368,398.842 64.385,397.385 64.904 C 396.761 65.127,395.950 65.354,395.583 65.409 C 395.217 65.464,394.467 65.581,393.917 65.670 C 392.655 65.873,389.462 65.874,388.583 65.672 C 388.217 65.587,387.656 65.473,387.337 65.417 C 384.117 64.853,380.728 61.144,379.723 57.083 C 378.494 52.121,380.714 45.251,384.131 43.446 C 384.380 43.315,384.996 42.978,385.500 42.698 C 388.433 41.069,393.084 40.960,396.892 42.431 C 397.712 42.747,398.404 42.985,398.430 42.959 C 398.621 42.768,400.000 36.674,400.000 36.019 L 400.000 35.191 399.094 34.851 C 395.731 33.594,390.307 33.128,386.333 33.756 M144.594 34.706 C 144.659 34.914,144.894 35.496,145.117 36.000 C 145.912 37.799,148.333 43.778,148.333 43.943 C 148.333 44.036,148.641 44.855,149.018 45.764 C 149.394 46.673,149.964 48.054,150.284 48.833 C 150.604 49.612,151.039 50.632,151.252 51.099 C 151.464 51.566,151.750 52.316,151.887 52.766 C 152.128 53.556,153.140 56.099,154.733 59.917 C 155.154 60.925,155.499 61.810,155.499 61.884 C 155.500 62.071,157.668 67.447,158.341 68.930 C 159.559 71.618,159.560 71.824,158.358 73.860 C 156.191 77.528,152.413 80.597,148.625 81.765 C 147.622 82.075,147.553 82.180,147.846 82.947 C 147.944 83.206,148.099 83.829,148.189 84.333 C 148.279 84.837,148.606 86.150,148.914 87.250 C 149.223 88.350,149.559 89.569,149.661 89.958 C 149.878 90.789,149.930 90.799,151.713 90.343 C 156.116 89.217,160.678 86.070,163.548 82.179 C 164.195 81.301,164.956 80.284,165.238 79.919 C 165.867 79.102,170.253 70.410,170.376 69.736 C 170.452 69.317,171.524 66.643,172.240 65.083 C 172.634 64.225,174.000 60.556,174.000 60.355 C 174.000 60.250,174.530 58.796,175.178 57.124 C 176.828 52.865,177.833 50.140,177.833 49.930 C 177.833 49.831,178.404 48.288,179.102 46.500 C 179.800 44.712,180.840 41.900,181.413 40.250 C 181.985 38.600,182.689 36.667,182.977 35.954 C 183.265 35.241,183.500 34.585,183.500 34.496 C 183.500 34.394,181.500 34.333,178.120 34.333 L 172.741 34.333 171.669 37.851 C 171.080 39.785,170.580 41.454,170.558 41.559 C 170.536 41.664,170.472 41.975,170.417 42.250 C 170.319 42.731,169.972 43.897,167.810 51.000 C 167.265 52.788,166.790 54.463,166.754 54.724 C 166.717 54.985,166.350 56.410,165.938 57.891 C 165.526 59.372,165.105 60.904,165.003 61.297 C 164.768 62.203,164.615 62.100,164.266 60.796 C 163.989 59.758,163.294 57.324,162.636 55.083 C 162.447 54.442,161.627 52.049,160.813 49.766 C 159.999 47.483,159.333 45.505,159.333 45.370 C 159.333 45.145,156.894 38.046,155.942 35.500 L 155.537 34.417 150.007 34.373 L 144.476 34.329 144.594 34.706 M351.333 53.750 L 351.333 73.167 356.333 73.167 L 361.333 73.167 361.333 53.750 L 361.333 34.333 356.333 34.333 L 351.333 34.333 351.333 53.750 M44.073 36.042 L 43.583 36.583 44.125 36.094 C 44.630 35.638,44.743 35.500,44.615 35.500 C 44.586 35.500,44.342 35.744,44.073 36.042 M272.238 40.584 C 274.900 41.148,277.493 43.737,277.913 46.250 C 278.145 47.641,278.327 48.927,278.330 49.208 C 278.333 49.482,277.830 49.500,270.065 49.500 L 261.796 49.500 261.911 48.875 C 262.714 44.481,265.340 41.372,268.917 40.581 C 270.235 40.289,270.851 40.290,272.238 40.584 M23.833 42.083 C 24.608 42.862,25.280 43.500,25.326 43.500 C 25.372 43.500,24.775 42.862,24.000 42.083 C 23.225 41.304,22.553 40.667,22.507 40.667 C 22.462 40.667,23.058 41.304,23.833 42.083 M84.167 41.750 C 84.665 42.254,85.109 42.667,85.155 42.667 C 85.201 42.667,84.831 42.254,84.333 41.750 C 83.835 41.246,83.391 40.833,83.345 40.833 C 83.299 40.833,83.669 41.246,84.167 41.750 M0.575 45.542 L -0.083 46.250 0.625 45.591 C 1.284 44.978,1.410 44.833,1.284 44.833 C 1.257 44.833,0.938 45.152,0.575 45.542 M11.500 53.719 C 11.500 53.748,11.744 53.991,12.042 54.260 L 12.583 54.750 12.094 54.208 C 11.638 53.703,11.500 53.590,11.500 53.719 M53.833 60.583 C 53.428 60.996,53.135 61.333,53.181 61.333 C 53.226 61.333,53.595 60.996,54.000 60.583 C 54.405 60.171,54.699 59.833,54.653 59.833 C 54.607 59.833,54.238 60.171,53.833 60.583 M20.326 64.375 C 20.735 64.810,21.091 65.167,21.118 65.167 C 21.243 65.167,21.111 65.017,20.375 64.326 L 19.583 63.583 20.326 64.375 M65.906 72.375 L 65.417 72.917 65.958 72.427 C 66.463 71.971,66.577 71.833,66.448 71.833 C 66.419 71.833,66.175 72.077,65.906 72.375 M33.500 79.052 C 33.500 79.081,33.744 79.325,34.042 79.594 L 34.583 80.083 34.094 79.542 C 33.638 79.037,33.500 78.923,33.500 79.052 M49.573 80.542 L 49.083 81.083 49.625 80.594 C 50.130 80.138,50.243 80.000,50.115 80.000 C 50.086 80.000,49.842 80.244,49.573 80.542 M44.667 92.885 C 44.667 92.914,44.910 93.158,45.208 93.427 L 45.750 93.917 45.260 93.375 C 44.804 92.870,44.667 92.757,44.667 92.885 " stroke="none" fill="#2c246c" fill-rule="evenodd"></path><path id="path4" d="" stroke="none" fill="#8cb444" fill-rule="evenodd"></path></g></svg>