<?xml version="1.0" encoding="UTF-8"?>
<svg width="144px" height="40px" viewBox="0 0 144 40" version="1.1" xmlns="http://www.w3.org/2000/svg" xmlns:xlink="http://www.w3.org/1999/xlink">
    <!-- Generator: Sketch 55.2 (78181) - https://sketchapp.com -->
    <title>eTactica Logo</title>
    <desc>Created with Sketch.</desc>
    <g id="Page-1" stroke="none" stroke-width="1" fill="none" fill-rule="evenodd">
        <g id="eTactica-Logo">
            <polygon id="Path" fill="#FFFFFF" points="13.1289 10.2983 28.8352 10.2983 28.8352 13.2332 22.6672 13.2332 22.6672 29.7011 19.2703 29.7011 19.2703 13.2332 13.1289 13.2332"></polygon>
            <path d="M35.9282,22.663 C35.4564,22.971 34.8767,23.1566 34.1879,23.2196 C33.5002,23.2839 32.8126,23.3785 32.1225,23.5046 C31.7975,23.5592 31.4798,23.6368 31.1718,23.7363 C30.8637,23.8369 30.5933,23.9715 30.3568,24.145 C30.1215,24.316 29.9372,24.5427 29.8001,24.8229 C29.6643,25.1042 29.5964,25.4438 29.5964,25.8428 C29.5964,26.186 29.6958,26.4771 29.8947,26.7123 C30.0936,26.9476 30.335,27.1332 30.6151,27.269 C30.8965,27.4048 31.2033,27.4994 31.5392,27.554 C31.8739,27.6086 32.1771,27.6365 32.45,27.6365 C32.7932,27.6365 33.1655,27.5904 33.5645,27.4994 C33.9623,27.4097 34.337,27.2557 34.6911,27.0374 C35.0441,26.8215 35.3388,26.545 35.574,26.2091 C35.8093,25.8731 35.9282,25.462 35.9282,24.972 L35.9282,22.663 Z M39.0255,26.5765 C39.0255,26.9561 39.0752,27.2289 39.1759,27.3902 C39.2741,27.554 39.4694,27.6364 39.7592,27.6364 L40.0855,27.6364 C40.2116,27.6364 40.3571,27.6182 40.5196,27.5819 L40.5196,29.7284 C40.4105,29.7636 40.271,29.8048 40.0988,29.8509 C39.9266,29.8958 39.7495,29.9358 39.5688,29.9722 C39.3881,30.0098 39.2062,30.0365 39.0255,30.0547 C38.8436,30.0716 38.6896,30.0813 38.5635,30.0813 C37.9292,30.0813 37.4041,29.9552 36.9869,29.7017 C36.5697,29.4483 36.2992,29.0044 36.1719,28.3689 C35.5558,28.9668 34.8003,29.4022 33.9029,29.6739 C33.0066,29.9455 32.1419,30.0813 31.3076,30.0813 C30.6745,30.0813 30.0669,29.9952 29.4872,29.823 C28.9075,29.652 28.3958,29.3986 27.9531,29.0614 C27.5092,28.7279 27.1551,28.301 26.8932,27.7856 C26.63,27.269 26.499,26.6674 26.499,25.9774 C26.499,25.1091 26.6567,24.4032 26.9744,23.8587 C27.2909,23.3154 27.7081,22.8897 28.2236,22.5817 C28.7402,22.2737 29.3199,22.0517 29.9626,21.9159 C30.6054,21.7789 31.2542,21.677 31.9067,21.603 C32.467,21.4939 33.0018,21.4187 33.5099,21.3726 C34.0169,21.3265 34.4644,21.2501 34.8537,21.1409 C35.2442,21.0318 35.551,20.8657 35.779,20.6389 C36.0045,20.4133 36.1173,20.0725 36.1173,19.6189 C36.1173,19.2212 36.0227,18.8961 35.8323,18.6415 C35.6432,18.388 35.4067,18.1928 35.1265,18.0569 C34.8439,17.9211 34.5335,17.8314 34.1879,17.7853 C33.8446,17.7404 33.5184,17.7174 33.2104,17.7174 C32.3408,17.7174 31.6253,17.8981 31.0638,18.2607 C30.5011,18.6233 30.1858,19.1848 30.113,19.9464 L27.0144,19.9464 C27.069,19.0405 27.2861,18.2886 27.6669,17.6895 C28.0477,17.0916 28.5316,16.6125 29.121,16.2499 C29.7092,15.8873 30.375,15.6339 31.1184,15.4895 C31.8606,15.344 32.621,15.2712 33.4008,15.2712 C34.0884,15.2712 34.7688,15.344 35.4394,15.4895 C36.1076,15.6339 36.7116,15.8691 37.2464,16.1954 C37.78,16.5228 38.2105,16.9424 38.5356,17.459 C38.863,17.9757 39.0255,18.6051 39.0255,19.3485 L39.0255,26.5765 Z" id="Shape" fill="#FFFFFF"></path>
            <path d="M51.1728,20.3534 C51.0455,19.4839 50.6962,18.8265 50.1262,18.3827 C49.555,17.94 48.8347,17.7169 47.9651,17.7169 C47.5661,17.7169 47.1417,17.7848 46.6893,17.9206 C46.2357,18.0564 45.8186,18.3099 45.4377,18.6822 C45.0582,19.0533 44.7404,19.57 44.487,20.2309 C44.2335,20.8919 44.1074,21.7565 44.1074,22.8262 C44.1074,23.4059 44.1741,23.9856 44.3111,24.5653 C44.4469,25.145 44.664,25.6616 44.9636,26.1139 C45.2619,26.5663 45.6463,26.9338 46.1181,27.2139 C46.5886,27.4965 47.1586,27.6359 47.8293,27.6359 C48.7352,27.6359 49.4823,27.3546 50.0717,26.7943 C50.6598,26.2328 51.0273,25.4433 51.1728,24.4282 L54.2702,24.4282 C53.9791,26.2595 53.2867,27.6578 52.1915,28.6268 C51.0952,29.597 49.6411,30.0809 47.8293,30.0809 C46.7245,30.0809 45.7506,29.8953 44.909,29.5242 C44.0673,29.1531 43.3555,28.6462 42.7758,28.0034 C42.1961,27.3594 41.7558,26.5942 41.4575,25.7065 C41.1592,24.8199 41.0088,23.8594 41.0088,22.8262 C41.0088,21.7759 41.1543,20.7876 41.4442,19.8647 C41.734,18.9405 42.1682,18.1389 42.7491,17.4586 C43.3276,16.7806 44.0479,16.2458 44.909,15.8565 C45.7688,15.4672 46.7791,15.272 47.9384,15.272 C48.7546,15.272 49.5284,15.3763 50.2621,15.5836 C50.9958,15.7922 51.6482,16.1051 52.2182,16.5223 C52.7894,16.9395 53.2551,17.4634 53.6177,18.0977 C53.9791,18.7319 54.1974,19.4839 54.2702,20.3534 L51.1728,20.3534 Z" id="Path" fill="#FFFFFF"></path>
            <polygon id="Path" fill="#FFFFFF" points="64.5693 13.2332 67.6679 13.2332 67.6679 10.2983 64.5693 10.2983"></polygon>
            <path d="M64.5686,15.6518 L60.1396,15.6518 L60.1396,11.4399 L57.0411,11.4399 L57.0411,15.6518 L54.7041,15.6518 L54.7041,17.9621 L57.0411,17.9621 L57.0411,26.25 C57.0605,26.8297 57.1175,27.3464 57.2181,27.7999 C57.3176,28.2523 57.508,28.627 57.7881,28.9266 C58.0695,29.2249 58.4588,29.4529 58.9572,29.6057 C59.4557,29.7597 60.1118,29.8361 60.9279,29.8361 C61.2711,29.8361 61.6071,29.8192 61.9321,29.7816 C62.2595,29.7464 62.5943,29.71 62.9375,29.6748 L62.9375,27.2833 C62.7216,27.3367 62.5033,27.3682 62.2862,27.3779 C62.0679,27.3876 61.852,27.3912 61.6338,27.3912 C61.2893,27.3912 61.0177,27.35 60.8188,27.2687 C60.6187,27.1875 60.4695,27.065 60.3701,26.9013 C60.2706,26.74 60.2063,26.5411 60.1809,26.3046 C60.153,26.0693 60.1396,25.788 60.1396,25.4618 L60.1396,17.9621 L64.5686,17.9621 L64.5686,29.7015 L67.6672,29.7015 L67.6672,15.6518 L67.6466,15.6518 L64.5686,15.6518 Z" id="Path" fill="#FFFFFF"></path>
            <path d="M79.8396,20.3534 C79.7135,19.4839 79.3642,18.8265 78.7942,18.3827 C78.223,17.94 77.5026,17.7169 76.6331,17.7169 C76.2353,17.7169 75.8096,17.7848 75.3573,17.9206 C74.9037,18.0564 74.4865,18.3099 74.1057,18.6822 C73.7261,19.0533 73.4084,19.57 73.1549,20.2309 C72.9015,20.8919 72.7753,21.7565 72.7753,22.8262 C72.7753,23.4059 72.842,23.9856 72.9791,24.5653 C73.1149,25.145 73.332,25.6616 73.6315,26.1139 C73.9299,26.5663 74.3143,26.9338 74.7861,27.2139 C75.2566,27.4965 75.8266,27.6359 76.4973,27.6359 C77.4032,27.6359 78.1502,27.3546 78.7396,26.7943 C79.3278,26.2328 79.6953,25.4433 79.8396,24.4282 L82.9382,24.4282 C82.6471,26.2595 81.9546,27.6578 80.8595,28.6268 C79.7632,29.597 78.3091,30.0809 76.4973,30.0809 C75.3924,30.0809 74.4186,29.8953 73.577,29.5242 C72.7353,29.1531 72.0234,28.6462 71.4437,28.0034 C70.864,27.3594 70.4238,26.5942 70.1255,25.7065 C69.8271,24.8199 69.6768,23.8594 69.6768,22.8262 C69.6768,21.7759 69.8223,20.7876 70.1121,19.8647 C70.402,18.9405 70.8361,18.1389 71.4171,17.4586 C71.9955,16.7806 72.7159,16.2458 73.577,15.8565 C74.4368,15.4672 75.447,15.272 76.6064,15.272 C77.4226,15.272 78.1963,15.3763 78.93,15.5836 C79.6625,15.7922 80.3162,16.1051 80.8862,16.5223 C81.4574,16.9395 81.9231,17.4634 82.2857,18.0977 C82.6471,18.7319 82.8654,19.4839 82.9382,20.3534 L79.8396,20.3534 Z" id="Path" fill="#FFFFFF"></path>
            <path d="M93.4549,22.663 C92.9831,22.971 92.4034,23.1566 91.7146,23.2196 C91.027,23.2839 90.3393,23.3785 89.6505,23.5046 C89.3243,23.5592 89.0065,23.6368 88.6997,23.7363 C88.3904,23.8369 88.12,23.9715 87.8835,24.145 C87.6482,24.316 87.4627,24.5427 87.3269,24.8229 C87.191,25.1042 87.1231,25.4438 87.1231,25.8428 C87.1231,26.186 87.2226,26.4771 87.4215,26.7123 C87.6203,26.9476 87.8617,27.1332 88.1418,27.269 C88.4232,27.4048 88.73,27.4994 89.0659,27.554 C89.4007,27.6086 89.7038,27.6365 89.9767,27.6365 C90.3199,27.6365 90.6922,27.5904 91.0912,27.4994 C91.489,27.4097 91.8638,27.2557 92.2179,27.0374 C92.5708,26.8215 92.8667,26.545 93.102,26.2091 C93.336,25.8731 93.4549,25.462 93.4549,24.972 L93.4549,22.663 Z M96.5519,26.5765 C96.5519,26.9561 96.6016,27.2289 96.7023,27.3902 C96.8005,27.554 96.9957,27.6364 97.2856,27.6364 L97.6118,27.6364 C97.738,27.6364 97.8835,27.6182 98.046,27.5819 L98.046,29.7284 C97.9381,29.7636 97.7974,29.8048 97.6252,29.8509 C97.453,29.8958 97.2759,29.9358 97.0952,29.9722 C96.9145,30.0098 96.7326,30.0365 96.5519,30.0547 C96.37,30.0716 96.216,30.0813 96.0898,30.0813 C95.4556,30.0813 94.9304,29.9552 94.5145,29.7017 C94.0973,29.4483 93.8256,29.0044 93.6983,28.3689 C93.0822,28.9668 92.3267,29.4022 91.4292,29.6739 C90.533,29.9455 89.6683,30.0813 88.8339,30.0813 C88.2009,30.0813 87.5933,29.9952 87.0136,29.823 C86.4339,29.652 85.9221,29.3986 85.4795,29.0614 C85.0344,28.7279 84.6815,28.301 84.4195,27.7856 C84.1564,27.269 84.0254,26.6674 84.0254,25.9774 C84.0254,25.1091 84.183,24.4032 84.5008,23.8587 C84.8173,23.3154 85.2345,22.8897 85.7499,22.5817 C86.2666,22.2737 86.8462,22.0517 87.4902,21.9159 C88.1318,21.7789 88.7806,21.677 89.433,21.603 C89.9933,21.4939 90.5282,21.4187 91.0363,21.3726 C91.5432,21.3265 91.9907,21.2501 92.3812,21.1409 C92.7705,21.0318 93.0774,20.8657 93.3041,20.6389 C93.5309,20.4133 93.6437,20.0725 93.6437,19.6189 C93.6437,19.2212 93.5491,18.8961 93.3587,18.6415 C93.1695,18.388 92.933,18.1928 92.6529,18.0569 C92.3715,17.9211 92.0599,17.8314 91.7142,17.7853 C91.371,17.7404 91.0448,17.7174 90.7367,17.7174 C89.8672,17.7174 89.1517,17.8981 88.5902,18.2607 C88.0275,18.6233 87.7121,19.1848 87.6394,19.9464 L84.5408,19.9464 C84.5954,19.0405 84.8137,18.2886 85.1933,17.6895 C85.5741,17.0916 86.058,16.6125 86.6474,16.2499 C87.2355,15.8873 87.9013,15.6339 88.6448,15.4895 C89.387,15.344 90.1474,15.2712 90.9271,15.2712 C91.6148,15.2712 92.2951,15.344 92.9658,15.4895 C93.6352,15.6339 94.238,15.8691 94.7728,16.1954 C95.3064,16.5228 95.7369,16.9424 96.0631,17.459 C96.3894,17.9757 96.5519,18.6051 96.5519,19.3485 L96.5519,26.5765 Z" id="Shape" fill="#FFFFFF"></path>
            <path d="M6.65096,16.2934 C5.53402,16.2934 4.66205,16.7312 4.03748,17.6068 C3.41049,18.4824 3.0976,19.6272 3.0976,21.0425 L9.433,20.7393 C9.76772,20.7393 9.93629,20.5938 9.93629,20.3015 C9.93629,19.8746 9.86838,19.4247 9.73498,18.9541 C9.60158,18.4824 9.40026,18.0494 9.13103,17.6577 C8.86301,17.2648 8.52223,16.9385 8.10868,16.6802 C7.69513,16.4219 7.21003,16.2934 6.65096,16.2934 Z M12.0947,26.5665 C12.2512,26.4101 12.4198,26.33 12.598,26.33 C12.8224,26.33 13.0358,26.5216 13.2372,26.9025 C12.9437,27.3075 12.6077,27.7004 12.2269,28.0825 C11.8437,28.4645 11.3889,28.8053 10.8626,29.1084 C10.3338,29.4116 9.73352,29.6542 9.05923,29.8337 C8.38737,30.0132 7.61243,30.1029 6.73561,30.1029 C5.83696,30.1029 4.9844,29.9574 4.1755,29.6651 C3.3678,29.3728 2.65471,28.9241 2.03742,28.3177 C1.42013,27.7114 0.925327,26.9594 0.555439,26.0608 C0.184338,25.1622 0,24.1071 0,22.8943 C0,21.7495 0.218295,20.6944 0.65731,19.729 C1.0939,18.7637 1.66147,17.9378 2.35758,17.2526 C3.05249,16.5686 3.82258,16.035 4.66423,15.653 C5.50709,15.271 6.32085,15.0806 7.10671,15.0806 C9.19506,15.0806 10.7158,15.6869 11.6715,16.8997 C12.6247,18.1124 13.1013,19.6951 13.1013,21.6488 C13.1013,21.7822 13.0346,21.8501 12.9,21.8501 L3.16527,22.2879 C3.16527,23.1648 3.28898,23.9724 3.53516,24.7134 C3.78135,25.4556 4.1282,26.0948 4.5757,26.6332 C5.02321,27.1729 5.56531,27.5937 6.20442,27.8957 C6.84112,28.1989 7.56392,28.3505 8.36918,28.3505 C9.0847,28.3505 9.77233,28.1831 10.4333,27.846 C11.093,27.5088 11.6472,27.0831 12.0947,26.5665 Z" id="Shape" fill="#E05B57"></path>
            <path d="M115.785,19.999 C115.785,14.4761 120.261,9.99866 125.785,9.99866 L125.785,2.4978 C116.12,2.4978 108.284,10.3334 108.284,19.999 C108.284,29.6658 116.12,37.5002 125.785,37.5002 L125.785,29.9993 C120.261,29.9993 115.785,25.5231 115.785,19.999 Z" id="Path" fill="#78AF42"></path>
            <path d="M130.409,3.00171 L126.211,19.9996 L126.247,19.9996 L143.749,19.9996 C143.749,11.7626 138.074,4.86207 130.409,3.00171 Z" id="Path" fill="#F2AF2A"></path>
            <path d="M117.516,25.627 L111.678,30.3603 C114.859,34.7383 120.017,37.5847 125.84,37.5847 L125.84,30.085 C122.367,30.085 119.31,28.3144 117.516,25.627 Z" id="Path" fill="#6E9840"></path>
            <path d="M111.664,9.66515 L117.505,14.39 C119.31,11.7826 122.32,9.9938 125.733,9.9938 L125.733,2.57178 C119.967,2.57178 114.852,5.36231 111.664,9.66515 Z" id="Path" fill="#6E9840"></path>
            <path d="M133.994,25.7087 C132.187,28.3016 129.185,29.9994 125.784,29.9994 C122.385,29.9994 119.382,28.3016 117.575,25.7087 L110.449,32.8349 C114.118,37.2141 119.625,39.9998 125.784,39.9998 C131.945,39.9998 137.452,37.2141 141.121,32.8349 L133.994,25.7087 Z" id="Path" fill="#2C7290"></path>
            <path d="M130.977,0.687629 C129.322,0.24255 127.582,0 125.786,0 C119.626,0 114.119,2.78447 110.449,7.16492 L117.575,14.291 C119.382,11.6982 122.385,9.99911 125.786,9.99911 C126.759,9.99911 127.699,10.1446 128.59,10.4066 L130.977,0.687629 Z" id="Path" fill="#E05B57"></path>
            <path d="M127.668,10.1811 C127.98,10.2417 128.289,10.3109 128.59,10.4006 L130.978,0.681641 C130.978,0.681641 130.411,3.00163 130.409,3.00163 L127.668,10.1811 Z" id="Path" fill="#BF4D4E"></path>
        </g>
    </g>
</svg>