<svg id="Ebene_1" data-name="Ebene 1" xmlns="http://www.w3.org/2000/svg" viewBox="0 0 358.92 85.95"><defs><style>.cls-1{fill:#fff;}</style></defs><path class="cls-1" d="M331.35,306a2,2,0,0,1-2,2h-3.73a2,2,0,0,1-2-2V256.86a1.84,1.84,0,0,1,1.91-1.89h3.72a2,2,0,0,1,2.06,1.89Z" transform="translate(-240.99 -254.53)"/><path class="cls-1" d="M550.09,306.07a2,2,0,0,1-2,2h-3.72a2,2,0,0,1-2-2V256.91a1.91,1.91,0,0,1,2-1.94h3.72a1.92,1.92,0,0,1,2,1.94Z" transform="translate(-240.99 -254.53)"/><path class="cls-1" d="M438.16,306.07a2,2,0,0,1-2,2h-3.72a2,2,0,0,1-2-2V270.15a1.9,1.9,0,0,1,2-1.93h3.72a1.89,1.89,0,0,1,2,1.93Z" transform="translate(-240.99 -254.53)"/><path class="cls-1" d="M490.9,279.6a3.13,3.13,0,0,1,.17.86V281a2.09,2.09,0,0,1-2,2.14H485.2a2.1,2.1,0,0,1-1.79-.94,12.18,12.18,0,1,0-.13,12.38l0-.08a2.43,2.43,0,0,1,2-1.15H489a2.08,2.08,0,0,1,2,2.14v.49a3.23,3.23,0,0,1-.13.9,19.93,19.93,0,1,1,0-17.23" transform="translate(-240.99 -254.53)"/><path class="cls-1" d="M438.13,260.4a2,2,0,0,1-2,2h-3.69a2,2,0,0,1-2-2V257a2,2,0,0,1,2-2h3.69a2,2,0,0,1,2,2Z" transform="translate(-240.99 -254.53)"/><path class="cls-1" d="M451.77,306.07a2,2,0,0,1-2,2h-3.72a2,2,0,0,1-2-2v-3.44a2,2,0,0,1,2-2h3.72a2,2,0,0,1,2,2Z" transform="translate(-240.99 -254.53)"/><path class="cls-1" d="M357.54,268.21a19.92,19.92,0,1,0,19.93,19.92,19.93,19.93,0,0,0-19.93-19.92m0,32.1a12.18,12.18,0,1,1,12.14-12.18,12.16,12.16,0,0,1-12.14,12.18" transform="translate(-240.99 -254.53)"/><path class="cls-1" d="M515.54,268.27a19.9,19.9,0,1,0,12.22,35.6v2.21a2,2,0,0,0,2,2h3.73a2,2,0,0,0,2-2V288.17a19.93,19.93,0,0,0-19.94-19.9m0,32.08a12.18,12.18,0,1,1,12.15-12.18,12.16,12.16,0,0,1-12.15,12.18" transform="translate(-240.99 -254.53)"/><path class="cls-1" d="M444.13,325.14h1.42a.62.62,0,0,1,.37.11.42.42,0,0,1,.19.26l1,3.8c0,.12.07.25.1.39s.06.29.08.44c0-.15.07-.3.11-.44s.07-.27.11-.39l1.18-3.8a.59.59,0,0,1,.55-.37h.5a.64.64,0,0,1,.36.1.54.54,0,0,1,.2.27l1.17,3.8.12.37c0,.13.07.27.1.42,0-.14.06-.28.08-.42l.09-.37,1-3.8a.52.52,0,0,1,.19-.26.61.61,0,0,1,.36-.11h1.33l-2.25,7.29H451l-1.37-4.52c0-.07,0-.14-.07-.23a2,2,0,0,1-.07-.26c0,.09-.05.18-.08.26s-.05.16-.07.23l-1.39,4.52h-1.53Z" transform="translate(-240.99 -254.53)"/><path class="cls-1" d="M460.83,325.14v1.3h-3v1.7h2.29v1.25h-2.29v1.74h3v1.3h-4.69v-7.29Z" transform="translate(-240.99 -254.53)"/><path class="cls-1" d="M469.91,325.14v1.3h-3v1.7h2.29v1.25h-2.29v1.74h3v1.3h-4.69v-7.29Z" transform="translate(-240.99 -254.53)"/><path class="cls-1" d="M475.54,329.49l.18.42a3.12,3.12,0,0,1,.18-.42c.06-.14.12-.28.19-.41L478,325.4a.48.48,0,0,1,.1-.15.42.42,0,0,1,.12-.08.33.33,0,0,1,.15,0h1.48v7.29h-1.49v-4.19q0-.3,0-.66l-1.93,3.74a.64.64,0,0,1-.24.27.68.68,0,0,1-.35.09h-.23a.68.68,0,0,1-.35-.09.64.64,0,0,1-.24-.27l-1.94-3.75,0,.35c0,.12,0,.22,0,.32v4.19h-1.49v-7.29h1.48a.33.33,0,0,1,.15,0,.42.42,0,0,1,.12.08.48.48,0,0,1,.1.15l1.88,3.7Z" transform="translate(-240.99 -254.53)"/><path class="cls-1" d="M483.45,330v2.43h-1.69v-7.29h2.57a4,4,0,0,1,1.32.19,2.48,2.48,0,0,1,.91.5,1.87,1.87,0,0,1,.53.75,2.66,2.66,0,0,1,.17.94,2.87,2.87,0,0,1-.17,1,2,2,0,0,1-.54.78,2.43,2.43,0,0,1-.91.51,4.26,4.26,0,0,1-1.31.19Zm0-1.28h.88a1.24,1.24,0,0,0,.95-.32,1.26,1.26,0,0,0,.29-.88,1.33,1.33,0,0,0-.07-.45.93.93,0,0,0-.23-.35.94.94,0,0,0-.39-.23,1.77,1.77,0,0,0-.55-.08h-.88Z" transform="translate(-240.99 -254.53)"/><path class="cls-1" d="M496.08,328.78a3.86,3.86,0,0,1-.27,1.45,3.37,3.37,0,0,1-.77,1.15,3.62,3.62,0,0,1-1.19.78,4.58,4.58,0,0,1-3.1,0,3.66,3.66,0,0,1-1.2-.78,3.52,3.52,0,0,1-.77-1.15,4,4,0,0,1,0-2.89,3.52,3.52,0,0,1,.77-1.15,3.64,3.64,0,0,1,1.2-.77,4.43,4.43,0,0,1,3.1,0,3.76,3.76,0,0,1,1.19.77,3.51,3.51,0,0,1,.77,1.16A3.75,3.75,0,0,1,496.08,328.78Zm-1.73,0a3.09,3.09,0,0,0-.14-.94,2.05,2.05,0,0,0-.4-.71,1.79,1.79,0,0,0-.64-.44,2.41,2.41,0,0,0-.87-.16,2.33,2.33,0,0,0-.87.16,1.74,1.74,0,0,0-.65.44,2.05,2.05,0,0,0-.4.71,3.26,3.26,0,0,0,0,1.89,2,2,0,0,0,.4.71,1.74,1.74,0,0,0,.65.44,2.33,2.33,0,0,0,.87.15,2.41,2.41,0,0,0,.87-.15,1.79,1.79,0,0,0,.64-.44,2,2,0,0,0,.4-.71A3.06,3.06,0,0,0,494.35,328.78Z" transform="translate(-240.99 -254.53)"/><path class="cls-1" d="M497.09,325.14h1.42a.62.62,0,0,1,.37.11.42.42,0,0,1,.19.26l1,3.8c0,.12.07.25.1.39s.06.29.08.44c0-.15.07-.3.11-.44s.07-.27.11-.39l1.18-3.8a.5.5,0,0,1,.19-.25.56.56,0,0,1,.36-.12h.5a.64.64,0,0,1,.36.1.54.54,0,0,1,.2.27l1.17,3.8.12.37c0,.13.07.27.1.42,0-.14.05-.28.08-.42l.09-.37,1-3.8a.52.52,0,0,1,.19-.26.61.61,0,0,1,.36-.11h1.33l-2.25,7.29h-1.53l-1.37-4.52c0-.07-.05-.14-.07-.23a2,2,0,0,1-.07-.26c0,.09-.05.18-.08.26s-.05.16-.07.23l-1.39,4.52h-1.53Z" transform="translate(-240.99 -254.53)"/><path class="cls-1" d="M513.79,325.14v1.3h-3v1.7h2.29v1.25H510.8v1.74h3v1.3H509.1v-7.29Z" transform="translate(-240.99 -254.53)"/><path class="cls-1" d="M517.19,329.73v2.7H515.5v-7.29h2.37a4.77,4.77,0,0,1,1.35.17,2.67,2.67,0,0,1,.91.45,1.77,1.77,0,0,1,.51.68,2.27,2.27,0,0,1,.16.86,2.41,2.41,0,0,1-.09.67,2.16,2.16,0,0,1-.29.59,2,2,0,0,1-.46.47,2.49,2.49,0,0,1-.62.35,2.11,2.11,0,0,1,.31.21,1.08,1.08,0,0,1,.26.3l1.55,2.54h-1.53a.66.66,0,0,1-.61-.32L518.11,330a.49.49,0,0,0-.19-.21.61.61,0,0,0-.3-.06Zm0-1.16h.68a1.7,1.7,0,0,0,.59-.09,1.22,1.22,0,0,0,.4-.24,1,1,0,0,0,.22-.36,1.33,1.33,0,0,0,.07-.45.93.93,0,0,0-.31-.75,1.46,1.46,0,0,0-1-.27h-.68Z" transform="translate(-240.99 -254.53)"/><path class="cls-1" d="M532.36,332.43h-1.31a.57.57,0,0,1-.36-.1.54.54,0,0,1-.2-.27l-.43-1.27h-2.77l-.43,1.27a.58.58,0,0,1-.19.26.61.61,0,0,1-.36.11H525l2.82-7.29h1.73Zm-4.68-2.79h2l-.67-2q-.06-.19-.15-.45c-.06-.17-.12-.36-.17-.56-.06.21-.11.4-.17.57s-.11.32-.16.45Z" transform="translate(-240.99 -254.53)"/><path class="cls-1" d="M536.48,331a1.66,1.66,0,0,0,.61-.11,1.23,1.23,0,0,0,.45-.32,1.4,1.4,0,0,0,.28-.51,2,2,0,0,0,.1-.67v-4.27h1.69v4.28a3.18,3.18,0,0,1-.22,1.21,2.69,2.69,0,0,1-.62,1,2.83,2.83,0,0,1-1,.62,3.64,3.64,0,0,1-1.31.22,3.6,3.6,0,0,1-1.31-.22,2.74,2.74,0,0,1-1-.62,2.69,2.69,0,0,1-.62-1,3.18,3.18,0,0,1-.22-1.21v-4.28H535v4.26a2.07,2.07,0,0,0,.1.68,1.4,1.4,0,0,0,.28.51,1.23,1.23,0,0,0,.45.32A1.66,1.66,0,0,0,536.48,331Z" transform="translate(-240.99 -254.53)"/><path class="cls-1" d="M546.75,325.14v1.34h-2v5.95H543v-5.95h-2v-1.34Z" transform="translate(-240.99 -254.53)"/><path class="cls-1" d="M555.09,328.78a3.86,3.86,0,0,1-.27,1.45,3.37,3.37,0,0,1-.77,1.15,3.62,3.62,0,0,1-1.19.78,4.58,4.58,0,0,1-3.1,0,3.56,3.56,0,0,1-1.2-.78,3.37,3.37,0,0,1-.77-1.15,4,4,0,0,1,0-2.89,3.37,3.37,0,0,1,.77-1.15,3.54,3.54,0,0,1,1.2-.77,4.43,4.43,0,0,1,3.1,0,3.76,3.76,0,0,1,1.19.77,3.51,3.51,0,0,1,.77,1.16A3.75,3.75,0,0,1,555.09,328.78Zm-1.73,0a3.09,3.09,0,0,0-.14-.94,2.05,2.05,0,0,0-.4-.71,1.74,1.74,0,0,0-.65-.44,2.42,2.42,0,0,0-1.73,0,1.74,1.74,0,0,0-.65.44,2.05,2.05,0,0,0-.4.71,3.26,3.26,0,0,0,0,1.89,2,2,0,0,0,.4.71,1.74,1.74,0,0,0,.65.44,2.57,2.57,0,0,0,1.73,0,1.74,1.74,0,0,0,.65-.44,2,2,0,0,0,.4-.71A3.06,3.06,0,0,0,553.36,328.78Z" transform="translate(-240.99 -254.53)"/><path class="cls-1" d="M560.57,329.49l.18.42c0-.14.11-.29.17-.42s.13-.28.2-.41L563,325.4a.48.48,0,0,1,.1-.15.42.42,0,0,1,.12-.08.33.33,0,0,1,.15,0h1.48v7.29h-1.49v-4.19q0-.3,0-.66l-1.93,3.74a.64.64,0,0,1-.24.27.68.68,0,0,1-.35.09h-.23a.68.68,0,0,1-.35-.09.64.64,0,0,1-.24-.27l-1.94-3.75,0,.35c0,.12,0,.22,0,.32v4.19h-1.49v-7.29h1.48a.33.33,0,0,1,.15,0,.42.42,0,0,1,.12.08.48.48,0,0,1,.1.15l1.88,3.7Z" transform="translate(-240.99 -254.53)"/><path class="cls-1" d="M573.57,332.43h-1.31a.57.57,0,0,1-.36-.1.54.54,0,0,1-.2-.27l-.43-1.27H568.5l-.43,1.27a.58.58,0,0,1-.19.26.61.61,0,0,1-.36.11H566.2l2.82-7.29h1.73Zm-4.68-2.79h2l-.67-2q-.06-.19-.15-.45c-.06-.17-.12-.36-.17-.56-.06.21-.11.4-.17.57s-.11.32-.16.45Z" transform="translate(-240.99 -254.53)"/><path class="cls-1" d="M579.4,325.14v1.34h-2v5.95h-1.69v-5.95h-2v-1.34Z" transform="translate(-240.99 -254.53)"/><path class="cls-1" d="M582.7,332.43H581v-7.29h1.7Z" transform="translate(-240.99 -254.53)"/><path class="cls-1" d="M592,328.78a3.86,3.86,0,0,1-.27,1.45,3.37,3.37,0,0,1-.77,1.15,3.62,3.62,0,0,1-1.19.78,4.58,4.58,0,0,1-3.1,0,3.56,3.56,0,0,1-1.2-.78,3.37,3.37,0,0,1-.77-1.15,4,4,0,0,1,0-2.89,3.37,3.37,0,0,1,.77-1.15,3.54,3.54,0,0,1,1.2-.77,4.43,4.43,0,0,1,3.1,0,3.76,3.76,0,0,1,1.19.77,3.51,3.51,0,0,1,.77,1.16A3.75,3.75,0,0,1,592,328.78Zm-1.73,0a3.09,3.09,0,0,0-.14-.94,2.05,2.05,0,0,0-.4-.71,1.79,1.79,0,0,0-.64-.44,2.41,2.41,0,0,0-.87-.16,2.33,2.33,0,0,0-.87.16,1.74,1.74,0,0,0-.65.44,2.05,2.05,0,0,0-.4.71,3.26,3.26,0,0,0,0,1.89,2,2,0,0,0,.4.71,1.74,1.74,0,0,0,.65.44,2.33,2.33,0,0,0,.87.15,2.41,2.41,0,0,0,.87-.15,1.79,1.79,0,0,0,.64-.44,2,2,0,0,0,.4-.71A3.06,3.06,0,0,0,590.26,328.78Z" transform="translate(-240.99 -254.53)"/><path class="cls-1" d="M594.63,325.15l.13,0,.12.08.12.13,3.46,4.38,0-.41c0-.13,0-.25,0-.37v-3.86h1.49v7.29H599a.81.81,0,0,1-.33-.06.65.65,0,0,1-.26-.22L595,327.81c0,.13,0,.25,0,.37s0,.24,0,.34v3.91h-1.49v-7.29h1.08Z" transform="translate(-240.99 -254.53)"/><path class="cls-1" d="M421.23,275.93a2,2,0,0,0,2-2v-3.72a2,2,0,0,0-2-2h-17.9a19.81,19.81,0,0,0-15.69,7.71h0a20,20,0,0,0-4.19,12.22,19.71,19.71,0,0,0,4.58,12.66A12.6,12.6,0,0,0,396.23,323h14.24a4.9,4.9,0,0,1,0,9.8H400.29a2.05,2.05,0,0,0-2,2.06v3.59a2,2,0,0,0,2,2.05h10.18a12.6,12.6,0,0,0,0-25.2H396.23a4.9,4.9,0,0,1-1.91-9.41,19.85,19.85,0,0,0,8.31,2.12h.07c.22,0,.43,0,.65,0s.43,0,.64,0h.07a19.77,19.77,0,0,0,8.74-2.33,20,20,0,0,0,2.4-1.54l0,0A19.85,19.85,0,0,0,419,275.93h2.21Zm-17.86,24.34h-.05a12.15,12.15,0,1,1,0-24.3h.05a12.15,12.15,0,1,1,0,24.3Z" transform="translate(-240.99 -254.53)"/><path class="cls-1" d="M263.25,295.9h-4.08a4.73,4.73,0,0,1-9.15,0h-9a12.42,12.42,0,0,0,12.4,12.3h13.12v-9A4.73,4.73,0,0,1,263.25,295.9Z" transform="translate(-240.99 -254.53)"/><polygon class="cls-1" points="8.85 28.12 0 28.09 0 38.76 8.85 38.76 8.85 28.12"/><path class="cls-1" d="M281.24,299.54a4.74,4.74,0,0,1-4.61-3.64H272.4a4.73,4.73,0,0,1-3.27,3.34v9h13.12a12.42,12.42,0,0,0,12.4-12.3h-8.8A4.74,4.74,0,0,1,281.24,299.54Z" transform="translate(-240.99 -254.53)"/><path class="cls-1" d="M281.24,272.7a4.74,4.74,0,0,1-4.55-3.45h-4.11V280h4.14a4.73,4.73,0,0,1,9,0h8.9V269.25h-8.87A4.74,4.74,0,0,1,281.24,272.7Z" transform="translate(-240.99 -254.53)"/><path class="cls-1" d="M254.6,276.56a4.76,4.76,0,0,1,4.75,4.76v12h3.95a4.72,4.72,0,0,1,9,0h4.15V282.62h-4.12a4.74,4.74,0,0,1-9.3-1.3V269.25H241V280l9,0A4.75,4.75,0,0,1,254.6,276.56Z" transform="translate(-240.99 -254.53)"/><rect class="cls-1" x="45" y="28.09" width="8.66" height="10.67"/><path class="cls-1" d="M285.79,266.64h8.85a12.4,12.4,0,0,0-12.1-12.09v8.85A4.73,4.73,0,0,1,285.79,266.64Z" transform="translate(-240.99 -254.53)"/><path class="cls-1" d="M267.82,263.2a4.74,4.74,0,0,1,4.55,3.44h4.32a4.73,4.73,0,0,1,3.25-3.24v-8.87H253.4A12.42,12.42,0,0,0,241,266.64h22.27A4.72,4.72,0,0,1,267.82,263.2Z" transform="translate(-240.99 -254.53)"/><path class="cls-1" d="M557.51,300.08c0-.09-.09-.18-.12-.27A1.59,1.59,0,0,0,557.51,300.08Z" transform="translate(-240.99 -254.53)"/><path class="cls-1" d="M581.63,287.45c-2.37-1.69-5.77-2.31-9.37-3l-.8-.15c-2.16-.4-4.66-.91-5.62-1.57a3.17,3.17,0,0,1-1.71-2.64,3.57,3.57,0,0,1,1.71-2.61,9.89,9.89,0,0,1,5.67-1.65c3.71,0,6.06,1.6,6.85,2.71a1.76,1.76,0,0,0,1.13.52h4.79a1.88,1.88,0,0,0,1.59-1.87,2.07,2.07,0,0,0-.11-.62c0-.1-.09-.19-.12-.28a11.74,11.74,0,0,0-4-4.89,18.15,18.15,0,0,0-20.17,0,10.28,10.28,0,0,0,0,17.43c2.39,1.72,5.82,2.35,9.45,3,2.26.41,5.35,1,6.35,1.69a2.83,2.83,0,0,1,0,5.2,10.78,10.78,0,0,1-11.43,0,9.3,9.3,0,0,1-1-1,1.8,1.8,0,0,0-1.29-.53h-4.39a1.89,1.89,0,0,0-1.73,2.55c0,.09.08.18.12.27a11.67,11.67,0,0,0,4,4.77,18.23,18.23,0,0,0,20.16,0,10.24,10.24,0,0,0,0-17.4Z" transform="translate(-240.99 -254.53)"/></svg>