<?xml version="1.0" encoding="UTF-8" standalone="no"?>
<svg
   xmlns:dc="http://purl.org/dc/elements/1.1/"
   xmlns:cc="http://creativecommons.org/ns#"
   xmlns:rdf="http://www.w3.org/1999/02/22-rdf-syntax-ns#"
   xmlns:svg="http://www.w3.org/2000/svg"
   xmlns="http://www.w3.org/2000/svg"
   xmlns:sodipodi="http://sodipodi.sourceforge.net/DTD/sodipodi-0.dtd"
   xmlns:inkscape="http://www.inkscape.org/namespaces/inkscape"
   version="1.1"
   id="svg2"
   xml:space="preserve"
   width="418.24905"
   height="416.11154"
   viewBox="0 0 418.24905 416.11154"
   sodipodi:docname="onivim2-logo.svg"
   inkscape:version="1.0.2 (e86c8708, 2021-01-15)"><metadata
     id="metadata8"><rdf:RDF><cc:Work
         rdf:about=""><dc:format>image/svg+xml</dc:format><dc:type
           rdf:resource="http://purl.org/dc/dcmitype/StillImage" /><dc:title></dc:title></cc:Work></rdf:RDF></metadata><defs
     id="defs6"><clipPath
       clipPathUnits="userSpaceOnUse"
       id="clipPath20"><path
         d="M 0,1000 H 1000 V 0 H 0 Z"
         id="path18" /></clipPath><linearGradient
       x1="0"
       y1="0"
       x2="1"
       y2="0"
       gradientUnits="userSpaceOnUse"
       gradientTransform="matrix(0,131.86479,131.86479,0,499.99973,480.90405)"
       spreadMethod="pad"
       id="linearGradient50"><stop
         style="stop-opacity:1;stop-color:#e6537c"
         offset="0"
         id="stop46" /><stop
         style="stop-opacity:1;stop-color:#ffe8c7"
         offset="1"
         id="stop48" /></linearGradient></defs><sodipodi:namedview
     pagecolor="#ffffff"
     bordercolor="#666666"
     borderopacity="1"
     objecttolerance="10"
     gridtolerance="10"
     guidetolerance="10"
     inkscape:pageopacity="0"
     inkscape:pageshadow="2"
     inkscape:window-width="1430"
     inkscape:window-height="531"
     id="namedview4"
     inkscape:document-rotation="0"
     showgrid="false"
     inkscape:zoom="0.60825004"
     inkscape:cx="643.48537"
     inkscape:cy="252.788"
     inkscape:window-x="241"
     inkscape:window-y="97"
     inkscape:window-maximized="0"
     inkscape:current-layer="g10"
     fit-margin-top="0"
     fit-margin-left="0"
     fit-margin-right="0"
     fit-margin-bottom="0"><inkscape:grid
       type="xygrid"
       id="grid34"
       originx="0"
       originy="0" /></sodipodi:namedview><g
     id="g10"
     inkscape:groupmode="layer"
     inkscape:label="ONIVIM2_logo_original_simplified"
     transform="matrix(1.3333333,0,0,-1.3333333,0,1333.3333)"><path
       d="M 0,687.91634 H 313.68679 V 1000 H 0 Z"
       style="fill:#161633;fill-opacity:1;fill-rule:nonzero;stroke:none;stroke-width:0.313949"
       id="path12" /><g
       id="g14"
       transform="translate(-343.4134,340.42418)"><g
         id="g16"
         clip-path="url(#clipPath20)"><g
           id="g22"
           transform="translate(545.2031,365.3945)"><path
             d="m 1.2330456,9.8643646 c 0.339,0 0.613,0.2740004 0.613,0.6130004 v 29.937 c 0,3.482 -2.61100002,6.369 -6.074,6.715 -0.02,0.002 -0.041,0.003 -0.06,0.003 -0.153,0 -0.299,-0.057 -0.413,-0.16 -0.128,-0.116 -0.202,-0.281 -0.202,-0.454 v -36.041 c 0,-0.339 0.275,-0.6130004 0.615,-0.6130004 z m -35.3499996,0 c 12.686,0 23.006,10.3200004 23.006,23.0060004 v 13.648 c 0,0.173 -0.073,0.338 -0.202,0.454 -0.113,0.103 -0.26,0.16 -0.411,0.16 -0.021,0 -0.041,-10e-4 -0.062,-0.003 -3.461,-0.346 -6.073,-3.233 -6.073,-6.715 v -7.544 c 0,-8.965 -7.293,-16.258 -16.258,-16.258 h -7.544 v 29.937 c 0,0.338 -0.274,0.613 -0.613,0.613 h -5.521 c -0.34,0 -0.614,-0.275 -0.614,-0.613 v -36.072 c 0,-0.339 0.274,-0.6130004 0.614,-0.6130004 z m 90.837,0 c -0.339,0 -0.613,0.2740004 -0.613,0.6130004 v 23.495 c 0,3.552 -2.89,6.442 -6.442,6.442 h -10.456 c 1.102,-1.965 1.685,-4.193 1.685,-6.442 v -23.495 c 0,-0.339 -0.274,-0.6130004 -0.613,-0.6130004 h -5.522 c -0.338,0 -0.613,0.2740004 -0.613,0.6130004 v 23.495 c 0,3.552 -2.89,6.442 -6.442,6.442 h -11.892 v -23.802 c 0,-3.482 -2.612,-6.369 -6.0740004,-6.7150004 -0.021,-0.002 -0.041,-0.003 -0.061,-0.003 -0.152,0 -0.298,0.057 -0.412,0.1590004 -0.129,0.117 -0.202,0.282 -0.202,0.455 v 36.041 c 0,0.338 0.274,0.613 0.614,0.613 H 27.704046 c 3.916,0 7.604,-1.727 10.122,-4.737 0.882,2.834 3.471,4.737 6.442,4.737 h 5.397 c 7.273,0 13.19,-5.917 13.19,-13.19 v -23.495 c 0,-0.339 -0.274,-0.6130004 -0.613,-0.6130004 z"
             style="fill:#30b2b2;fill-opacity:1;fill-rule:nonzero;stroke:none"
             id="path24" /></g><g
           id="g26"
           transform="translate(417.2827,395.9443)"><path
             d="m 1.2330456,9.8643646 c 3.552,0 6.442,-2.89 6.442,-6.442 v -10.917 c 0,-3.5529996 -2.89,-6.4429996 -6.442,-6.4429996 h -10.917 c -3.5529996,0 -6.4419996,2.89 -6.4419996,6.4429996 v 10.917 c 0,3.552 2.889,6.442 6.4419996,6.442 z m 0,-30.5499996 c 7.273,0 13.1900004,5.917 13.1900004,13.1909996 v 10.917 c 0,7.2730004 -5.9170004,13.1900004 -13.1900004,13.1900004 h -10.917 c -7.2739996,0 -13.1909996,-5.917 -13.1909996,-13.1900004 v -10.917 c 0,-7.2739996 5.917,-13.1909996 13.1909996,-13.1909996 z m 0,30.5499996 c 3.552,0 6.442,-2.89 6.442,-6.442 v -10.917 c 0,-3.5529996 -2.89,-6.4429996 -6.442,-6.4429996 h -10.917 c -3.5529996,0 -6.4419996,2.89 -6.4419996,6.4429996 v 10.917 c 0,3.552 2.889,6.442 6.4419996,6.442 z m 0,-30.5499996 c 7.273,0 13.1900004,5.917 13.1900004,13.1909996 v 10.917 c 0,7.2730004 -5.9170004,13.1900004 -13.1900004,13.1900004 h -10.917 c -7.2739996,0 -13.1909996,-5.917 -13.1909996,-13.1900004 v -10.917 c 0,-7.2739996 5.917,-13.1909996 13.1909996,-13.1909996 z m 0,30.5499996 c 3.552,0 6.442,-2.89 6.442,-6.442 v -10.917 c 0,-3.5529996 -2.89,-6.4429996 -6.442,-6.4429996 h -10.917 c -3.5529996,0 -6.4419996,2.89 -6.4419996,6.4429996 v 10.917 c 0,3.552 2.889,6.442 6.4419996,6.442 z m 0,-30.5499996 c 7.273,0 13.1900004,5.917 13.1900004,13.1909996 v 10.917 c 0,7.2730004 -5.9170004,13.1900004 -13.1900004,13.1900004 h -10.917 c -7.2739996,0 -13.1909996,-5.917 -13.1909996,-13.1900004 v -10.917 c 0,-7.2739996 5.917,-13.1909996 13.1909996,-13.1909996 z m 70.4470004,0 c 0.339,0 0.614,0.275 0.614,0.613 V 9.8643646 c 0,3.4820004 -2.612,6.3690004 -6.074,6.7150004 -0.021,0.002 -0.041,0.003 -0.061,0.003 -0.152,0 -0.299,-0.057 -0.412,-0.159 -0.129,-0.117 -0.202,-0.282 -0.202,-0.455 v -36.041 c 0,-0.338 0.274,-0.613 0.614,-0.613 z m -19.488,0 c -0.339,0 -0.613,0.275 -0.613,0.613 V 3.4233646 c 0,3.551 -2.89,6.441 -6.442,6.441 h -17.36 V -13.937635 c 0,-3.482 -2.611,-6.369 -6.073,-6.715 -0.021,-0.002 -0.041,-0.003 -0.061,-0.003 -0.152,0 -0.299,0.057 -0.412,0.16 -0.129,0.116 -0.202,0.281 -0.202,0.454 v 36.041 c 0,0.339 0.274,0.613 0.614,0.613 h 23.494 c 7.273,0 13.19,-5.917 13.19,-13.1890004 V -20.072635 c 0,-0.338 -0.274,-0.613 -0.614,-0.613 z"
             style="fill:#3af5e9;fill-opacity:1;fill-rule:nonzero;stroke:none"
             id="path28" /></g><g
           id="g30"
           transform="translate(596.7529,537.8521)"><path
             d="m 0,0 c 0,6.308 -0.625,12.654 -1.858,18.862 -0.134,0.674 -0.725,1.16 -1.413,1.16 h -4.416 c -0.433,0 -0.843,-0.196 -1.118,-0.531 C -9.077,19.154 -9.186,18.712 -9.097,18.288 -7.838,12.241 -7.2,6.088 -7.2,0 c 0,-49.38 -40.173,-89.553 -89.553,-89.553 -49.38,0 -89.554,40.173 -89.554,89.553 0,49.38 40.174,89.553 89.554,89.553 14.56,0 29.045,-3.599 41.891,-10.409 0.211,-0.112 0.443,-0.168 0.674,-0.168 0.257,0 0.515,0.069 0.743,0.206 0.433,0.261 0.698,0.729 0.698,1.235 v 4.822 c 0,0.545 -0.308,1.043 -0.795,1.286 -13.521,6.787 -28.06,10.228 -43.211,10.228 -53.35,0 -96.753,-43.403 -96.753,-96.753 0,-53.35 43.403,-96.753 96.753,-96.753 C -43.403,-96.753 0,-53.35 0,0 m -45.87,26.022 c -0.485,0 -0.877,0.392 -0.877,0.877 v 29.722 c 0,0.485 0.392,0.877 0.877,0.877 h 42.785 v 2.98 c 0,5.077 -4.13,9.207 -9.206,9.207 H -45.87 c -0.485,0 -0.877,0.392 -0.877,0.876 v 7.892 c 0,0.484 0.392,0.877 0.877,0.877 h 33.579 C -1.896,79.33 6.56,70.873 6.56,60.478 V 48.73 c 0,-0.484 -0.392,-0.877 -0.876,-0.877 H -37.103 V 35.667 h 34.018 c 4.979,0 9.104,-3.732 9.597,-8.681 C 6.537,26.74 6.455,26.494 6.289,26.311 6.123,26.126 5.887,26.022 5.64,26.022 Z"
             style="fill:#3af5e9;fill-opacity:1;fill-rule:nonzero;stroke:none"
             id="path32" /></g></g></g><g
       id="g34"
       transform="translate(-343.4134,340.42418)"><g
         id="g36"><g
           id="g42"><g
             id="g44"><path
               d="m 433.42,542.281 c -0.026,-0.397 0.114,-0.787 0.386,-1.078 v 0 c 0.273,-0.291 0.653,-0.456 1.051,-0.456 v 0 h 130.285 c 0.399,0 0.779,0.165 1.052,0.456 v 0 c 0.271,0.291 0.412,0.682 0.385,1.079 v 0 c -0.324,4.907 -1.203,9.807 -2.613,14.562 v 0 c -0.182,0.611 -0.743,1.03 -1.381,1.03 v 0 h -11.703 c -3.791,0 -6.876,3.085 -6.876,6.877 v 0 22.61 c 0,0.419 -0.183,0.817 -0.501,1.09 v 0 c -12.088,10.407 -27.54,16.138 -43.505,16.138 v 0 c -35.056,0 -64.301,-27.37 -66.58,-62.308 m 5.258,-14.09 c -0.554,-1.498 -1.067,-2.126 -1.348,-3.147 v 0 c -0.281,-1.023 -0.291,-2.288 -0.023,-3.328 v 0 c 0.775,-3.01 1.601,-5.983 2.454,-8.832 v 0 c 0.288,-0.962 0.785,-1.544 1.318,-1.544 v 0 h 119.537 c 0.533,0 1.03,0.582 1.318,1.544 v 0 c 0.853,2.849 1.678,5.822 2.453,8.832 v 0 c 0.268,1.04 0.259,2.305 -0.023,3.328 v 0 c -0.281,1.021 -0.794,1.649 -1.347,3.147 v 0 z m 12.739,-30.91 c -1.27,0 -2.367,-1.381 -2.63,-3.31 v 0 c -0.264,-1.928 0.379,-3.881 1.541,-4.678 v 0 c 15.771,-10.838 33.224,-16.568 50.472,-16.568 v 0 c 17.248,0 34.701,5.73 50.472,16.568 v 0 c 1.161,0.797 1.805,2.75 1.541,4.678 v 0 c -0.263,1.929 -1.36,3.31 -2.63,3.31 v 0 z"
               style="fill:url(#linearGradient50);stroke:none"
               id="path52" /></g></g></g></g></g></svg>
