<?xml version="1.0" encoding="UTF-8" standalone="no"?>
<svg
   xmlns:dc="http://purl.org/dc/elements/1.1/"
   xmlns:cc="http://creativecommons.org/ns#"
   xmlns:rdf="http://www.w3.org/1999/02/22-rdf-syntax-ns#"
   xmlns:svg="http://www.w3.org/2000/svg"
   xmlns="http://www.w3.org/2000/svg"
   id="svg"
   version="1.1"
   width="400"
   height="400"
   viewBox="0, 0, 400,400">
  <metadata
     id="metadata13">
    <rdf:RDF>
      <cc:Work
         rdf:about="">
        <dc:format>image/svg+xml</dc:format>
        <dc:type
           rdf:resource="http://purl.org/dc/dcmitype/StillImage" />
        <dc:title></dc:title>
      </cc:Work>
    </rdf:RDF>
  </metadata>
  <defs
     id="defs11" />
  <g
     id="svgg">
    <path
       id="path0"
       d="M188.476 31.056 C 115.548 36.825,63.113 102.038,73.541 174.000 C 83.443 242.336,147.168 289.827,215.619 279.883 C 279.637 270.584,326.366 213.215,322.469 148.707 C 318.734 86.894,271.507 37.827,209.478 31.314 C 206.105 30.960,191.897 30.785,188.476 31.056 M203.527 52.959 C 256.764 56.406,298.353 98.837,300.557 151.952 C 302.864 207.548,260.088 255.045,204.190 258.956 L 202.381 259.082 202.857 258.614 C 203.119 258.356,208.562 253.669,214.952 248.198 C 221.343 242.727,226.648 238.143,226.743 238.012 C 226.876 237.825,215.883 224.648,212.851 221.361 C 212.654 221.148,210.322 223.069,199.599 232.278 L 186.586 243.453 185.223 240.726 C 181.387 233.054,159.810 189.004,159.811 188.848 C 159.812 188.716,229.338 172.245,260.143 165.079 L 261.715 164.713 261.667 133.094 L 261.619 101.474 199.754 86.761 C 165.729 78.669,137.853 72.012,137.808 71.966 C 137.763 71.921,139.030 71.021,140.625 69.965 C 159.295 57.604,181.703 51.546,203.527 52.959 M178.633 104.392 C 211.704 112.254,238.955 118.735,239.190 118.793 L 239.619 118.898 239.619 133.061 L 239.619 147.223 238.905 147.413 C 238.512 147.517,213.379 153.439,183.054 160.573 C 152.729 167.707,127.880 173.581,127.834 173.627 C 127.710 173.750,128.631 175.642,148.837 216.752 C 159.056 237.542,167.389 254.579,167.356 254.612 C 167.019 254.949,157.124 251.047,152.286 248.669 C 92.935 219.504,75.690 143.508,116.703 91.857 C 117.473 90.888,118.193 90.095,118.303 90.095 C 118.413 90.095,145.562 96.529,178.633 104.392 M244.285 185.619 C 243.993 186.562,242.877 190.248,241.803 193.810 L 239.851 200.286 231.592 200.225 C 227.050 200.191,223.183 200.121,223.000 200.069 C 222.093 199.811,223.214 200.664,229.683 205.150 L 236.697 210.014 233.874 218.088 C 232.321 222.529,231.083 226.194,231.122 226.233 C 231.161 226.272,234.241 223.985,237.967 221.152 C 241.693 218.318,244.784 216.000,244.836 216.000 C 244.888 216.000,247.957 218.303,251.656 221.118 C 255.355 223.933,258.405 226.137,258.435 226.016 C 258.464 225.895,257.921 224.170,257.227 222.184 C 256.533 220.197,255.298 216.643,254.483 214.286 L 253.000 210.000 260.017 205.143 C 266.503 200.653,267.609 199.815,266.714 200.069 C 266.531 200.121,262.657 200.191,258.105 200.225 L 249.828 200.286 247.432 192.381 C 246.115 188.033,244.987 184.348,244.925 184.190 C 244.863 184.029,244.584 184.650,244.285 185.619 M85.524 325.074 C 85.262 325.113,84.405 325.238,83.619 325.354 C 73.140 326.893,66.955 335.527,66.987 348.571 C 67.028 364.981,76.599 374.045,91.905 372.170 C 105.084 370.555,112.395 357.671,109.154 341.770 C 106.784 330.138,97.192 323.361,85.524 325.074 M282.667 325.074 C 282.405 325.113,281.548 325.238,280.762 325.354 C 268.840 327.104,262.133 338.951,264.492 354.095 C 266.496 366.965,275.776 373.796,289.048 372.170 C 302.284 370.548,309.690 357.379,306.263 341.560 C 303.760 330.004,294.266 323.372,282.667 325.074 M237.866 325.434 C 225.837 327.075,219.996 334.824,220.001 349.138 C 220.006 364.437,227.495 371.990,242.667 371.998 C 245.505 372.000,249.415 371.601,251.619 371.086 L 253.048 370.752 252.988 370.090 C 252.796 367.982,252.169 362.772,252.098 362.701 C 252.051 362.655,251.296 362.797,250.418 363.017 C 236.760 366.442,229.263 361.143,229.577 348.286 C 229.883 335.738,237.349 330.543,249.997 334.078 C 250.792 334.300,251.372 334.377,251.439 334.269 C 251.528 334.125,252.682 327.791,252.822 326.676 C 252.949 325.671,242.495 324.803,237.866 325.434 M37.398 325.615 C 30.363 326.892,26.606 331.332,26.594 338.381 C 26.584 344.793,28.422 347.107,36.752 351.174 C 43.999 354.711,45.573 356.231,45.284 359.415 C 44.823 364.496,38.595 365.493,29.532 361.935 C 28.438 361.506,27.530 361.174,27.514 361.196 C 27.490 361.230,26.935 363.256,25.384 368.980 C 25.132 369.910,32.838 371.661,38.381 371.934 C 48.689 372.442,54.286 367.690,54.286 358.429 C 54.286 351.831,51.948 348.987,42.657 344.281 C 36.596 341.211,35.424 340.158,35.433 337.793 C 35.450 333.025,41.107 331.673,48.871 334.582 C 49.878 334.959,50.737 335.231,50.780 335.188 C 50.976 334.992,53.144 327.776,53.052 327.626 C 52.184 326.222,41.569 324.858,37.398 325.615 M122.667 348.652 L 122.667 371.238 126.857 371.238 L 131.048 371.238 131.048 362.381 L 131.048 353.524 134.311 353.524 C 138.387 353.524,138.789 353.633,140.319 355.150 C 141.931 356.749,144.429 361.916,147.154 369.286 L 147.876 371.238 152.605 371.238 C 155.205 371.238,157.333 371.164,157.333 371.074 C 157.333 370.425,150.176 354.613,149.253 353.223 C 148.461 352.030,147.265 350.844,146.365 350.359 C 145.551 349.921,145.551 349.798,146.364 349.529 C 153.047 347.324,155.118 335.368,149.731 330.096 C 146.477 326.912,143.487 326.266,131.476 326.150 L 122.667 326.065 122.667 348.652 M184.882 326.246 C 184.807 326.367,169.751 365.628,168.085 370.048 L 167.636 371.238 172.374 371.238 L 177.111 371.238 178.905 365.857 L 180.698 360.476 189.067 360.427 L 197.435 360.377 199.237 365.808 L 201.040 371.238 205.779 371.238 C 209.490 371.238,210.498 371.186,210.428 371.000 C 210.379 370.869,206.492 360.712,201.791 348.429 L 193.245 326.095 189.110 326.095 C 186.836 326.095,184.933 326.163,184.882 326.246 M320.875 326.905 C 320.820 327.350,320.301 337.143,319.721 348.667 C 319.141 360.190,318.635 369.983,318.595 370.429 L 318.523 371.238 322.785 371.238 L 327.048 371.238 327.048 370.619 C 327.049 370.279,327.305 362.929,327.619 354.286 C 327.933 345.643,328.197 338.314,328.206 338.000 C 328.215 337.686,330.596 344.586,333.497 353.333 L 338.772 369.238 342.703 369.290 L 346.633 369.341 351.931 353.444 C 354.845 344.700,357.250 337.568,357.277 337.594 C 357.322 337.640,358.667 369.682,358.667 370.727 L 358.667 371.238 363.143 371.238 L 367.619 371.238 367.619 370.504 C 367.619 369.581,365.578 330.020,365.414 327.762 L 365.293 326.095 359.227 326.095 L 353.161 326.095 352.568 327.952 C 346.618 346.590,343.173 357.264,343.075 357.370 C 343.007 357.443,340.639 350.436,337.812 341.799 L 332.672 326.095 326.824 326.095 L 320.976 326.095 320.875 326.905 M91.174 333.045 C 97.501 334.245,100.763 340.232,100.314 349.819 C 99.866 359.363,96.194 364.053,88.952 364.329 C 80.723 364.643,76.385 359.205,76.383 348.571 C 76.380 336.981,81.819 331.271,91.174 333.045 M288.317 333.045 C 294.071 334.137,297.119 338.801,297.466 347.048 C 297.926 357.998,293.958 364.030,286.095 364.329 C 277.813 364.645,273.527 359.205,273.524 348.376 C 273.522 337.004,279.039 331.285,288.317 333.045 M138.018 333.729 C 143.167 334.445,145.392 338.249,143.336 342.821 C 142.060 345.656,140.554 346.286,135.040 346.286 L 131.048 346.286 131.048 339.905 L 131.048 333.524 133.796 333.524 C 135.307 333.524,137.207 333.616,138.018 333.729 M189.593 341.000 C 189.853 341.864,190.291 343.316,190.565 344.226 L 191.063 345.880 194.532 345.775 L 198.000 345.669 195.190 347.619 C 193.645 348.691,192.381 349.639,192.381 349.725 C 192.381 349.811,192.850 351.232,193.423 352.883 C 193.996 354.534,194.439 355.910,194.409 355.941 C 194.378 355.971,193.169 355.096,191.722 353.995 L 189.091 351.994 188.403 352.509 C 188.024 352.792,186.832 353.693,185.754 354.512 C 184.676 355.330,183.758 356.000,183.714 356.000 C 183.671 356.000,184.103 354.665,184.675 353.033 C 185.246 351.401,185.714 349.952,185.714 349.812 C 185.714 349.672,184.579 348.768,183.190 347.802 C 181.802 346.836,180.581 345.962,180.476 345.859 C 180.351 345.736,181.461 345.695,183.693 345.741 L 187.101 345.810 188.064 342.619 C 188.593 340.864,189.047 339.429,189.073 339.429 C 189.099 339.429,189.333 340.136,189.593 341.000 "
       stroke="none"
       fill="#34ccd4"
       fill-rule="evenodd" />
    <path
       id="path1"
       d=""
       stroke="none"
       fill="#34ccdc"
       fill-rule="evenodd" />
    <path
       id="path2"
       d=""
       stroke="none"
       fill="#38ccd4"
       fill-rule="evenodd" />
    <path
       id="path3"
       d=""
       stroke="none"
       fill="#38ccd4"
       fill-rule="evenodd" />
    <path
       id="path4"
       d=""
       stroke="none"
       fill="#38ccd4"
       fill-rule="evenodd" />
  </g>
</svg>
