<?xml version="1.0" encoding="utf-8"?>
<!-- Generator: Adobe Illustrator 25.4.1, SVG Export Plug-In . SVG Version: 6.00 Build 0)  -->
<svg version="1.1" id="Layer_1" xmlns="http://www.w3.org/2000/svg" xmlns:xlink="http://www.w3.org/1999/xlink" x="0px" y="0px"
	 viewBox="0 0 2000 850.7" style="enable-background:new 0 0 2000 850.7;" xml:space="preserve">
<polygon points="1313.3,599.7 1309,734.7 1174.6,649.4 1163.9,368.2 1157.4,186.5 1244.9,118.4 1297.5,328.5 1425,240.1 
	1476.4,385.2 1406.9,482.7 1515.6,554.9 1551.3,262.3 1397.9,192.5 1359.3,122.6 1589.8,67.9 1920.9,177.8 1900,295.8 1703.8,290 
	1690.1,407.3 1656.3,666.1 1488.6,716.6 "/>
<polygon points="1313.3,599.7 1309,734.7 1174.6,649.4 1163.9,368.2 1157.4,186.5 1244.9,118.4 1297.5,328.5 1425,240.1 
	1476.4,385.2 1406.9,482.7 1515.6,554.9 1551.3,262.3 1397.9,192.5 1359.3,122.6 1589.8,67.9 1920.9,177.8 1900,295.8 1703.8,290 
	1690.1,407.3 1656.3,666.1 1488.6,716.6 "/>
<polygon points="511.5,325.1 305.8,366.6 429.4,589.6 345.7,751.3 112.4,782.8 222.6,593 244.8,527.4 124.8,309.1 240.4,128.4 
	415,156.6 763,188.8 767.1,315 681.2,340.2 685.6,634.9 568.4,747.6 "/>
<polygon points="511.5,325.1 305.8,366.6 429.4,589.6 345.7,751.3 112.4,782.8 222.6,593 244.8,527.4 124.8,309.1 240.4,128.4 
	415,156.6 763,188.8 767.1,315 681.2,340.2 685.6,634.9 568.4,747.6 "/>
<path d="M939.1,782.8L727.1,645.1l170.3-295.9l236.1,99.1l-26.5,235.8L939.1,782.8z M917.3,488.2l32.1,149.2l57.5-86.4L917.3,488.2z
	"/>
<path d="M939.1,782.8L727.1,645.1l170.3-295.9l236.1,99.1l-26.5,235.8L939.1,782.8z M917.3,488.2l32.1,149.2l57.5-86.4L917.3,488.2z
	"/>
<polygon points="1001,280.8 876.4,262.2 883.3,157.5 1089.9,156.6 1001,279.4 "/>
<polygon points="876.4,262.2 883.3,157.5 1089.9,156.6 1001,279.4 "/>
</svg>
