<?xml version="1.0" encoding="UTF-8" standalone="no"?>
<svg
   xmlns:dc="http://purl.org/dc/elements/1.1/"
   xmlns:cc="http://creativecommons.org/ns#"
   xmlns:rdf="http://www.w3.org/1999/02/22-rdf-syntax-ns#"
   xmlns:svg="http://www.w3.org/2000/svg"
   xmlns="http://www.w3.org/2000/svg"
   viewBox="0, 0, 400,400"
   height="400"
   width="400"
   version="1.1"
   id="svg">
  <metadata
     id="metadata13">
    <rdf:RDF>
      <cc:Work
         rdf:about="">
        <dc:format>image/svg+xml</dc:format>
        <dc:type
           rdf:resource="http://purl.org/dc/dcmitype/StillImage" />
        <dc:title></dc:title>
      </cc:Work>
    </rdf:RDF>
  </metadata>
  <defs
     id="defs11" />
  <g
     id="svgg"
     style="fill:#ffffff">
    <path
       d="M 188.476,31.056 C 115.548,36.825 63.113,102.038 73.541,174 c 9.902,68.336 73.627,115.827 142.078,105.883 64.018,-9.299 110.747,-66.668 106.85,-131.176 C 318.734,86.894 271.507,37.827 209.478,31.314 206.105,30.96 191.897,30.785 188.476,31.056 m 15.051,21.903 c 53.237,3.447 94.826,45.878 97.03,98.993 2.307,55.596 -40.469,103.093 -96.367,107.004 l -1.809,0.126 0.476,-0.468 c 0.262,-0.258 5.705,-4.945 12.095,-10.416 6.391,-5.471 11.696,-10.055 11.791,-10.186 0.133,-0.187 -10.86,-13.364 -13.892,-16.651 -0.197,-0.213 -2.529,1.708 -13.252,10.917 l -13.013,11.175 -1.363,-2.727 c -3.836,-7.672 -25.413,-51.722 -25.412,-51.878 0.001,-0.132 69.527,-16.603 100.332,-23.769 l 1.572,-0.366 -0.048,-31.619 -0.048,-31.62 -61.865,-14.713 c -34.025,-8.092 -61.901,-14.749 -61.946,-14.795 -0.045,-0.045 1.222,-0.945 2.817,-2.001 18.67,-12.361 41.078,-18.419 62.902,-17.006 m -24.894,51.433 c 33.071,7.862 60.322,14.343 60.557,14.401 l 0.429,0.105 v 14.163 14.162 l -0.714,0.19 c -0.393,0.104 -25.526,6.026 -55.851,13.16 -30.325,7.134 -55.174,13.008 -55.22,13.054 -0.124,0.123 0.797,2.015 21.003,43.125 10.219,20.79 18.552,37.827 18.519,37.86 -0.337,0.337 -10.232,-3.565 -15.07,-5.943 C 92.935,219.504 75.69,143.508 116.703,91.857 c 0.77,-0.969 1.49,-1.762 1.6,-1.762 0.11,0 27.259,6.434 60.33,14.297 m 65.652,81.227 c -0.292,0.943 -1.408,4.629 -2.482,8.191 l -1.952,6.476 -8.259,-0.061 c -4.542,-0.034 -8.409,-0.104 -8.592,-0.156 -0.907,-0.258 0.214,0.595 6.683,5.081 l 7.014,4.864 -2.823,8.074 c -1.553,4.441 -2.791,8.106 -2.752,8.145 0.039,0.039 3.119,-2.248 6.845,-5.081 3.726,-2.834 6.817,-5.152 6.869,-5.152 0.052,0 3.121,2.303 6.82,5.118 3.699,2.815 6.749,5.019 6.779,4.898 0.029,-0.121 -0.514,-1.846 -1.208,-3.832 -0.694,-1.987 -1.929,-5.541 -2.744,-7.898 L 253,210 l 7.017,-4.857 c 6.486,-4.49 7.592,-5.328 6.697,-5.074 -0.183,0.052 -4.057,0.122 -8.609,0.156 l -8.277,0.061 -2.396,-7.905 c -1.317,-4.348 -2.445,-8.033 -2.507,-8.191 -0.062,-0.161 -0.341,0.46 -0.64,1.429 M 85.524,325.074 c -0.262,0.039 -1.119,0.164 -1.905,0.28 -10.479,1.539 -16.664,10.173 -16.632,23.217 0.041,16.41 9.612,25.474 24.918,23.599 13.179,-1.615 20.49,-14.499 17.249,-30.4 -2.37,-11.632 -11.962,-18.409 -23.63,-16.696 m 197.143,0 c -0.262,0.039 -1.119,0.164 -1.905,0.28 -11.922,1.75 -18.629,13.597 -16.27,28.741 2.004,12.87 11.284,19.701 24.556,18.075 13.236,-1.622 20.642,-14.791 17.215,-30.61 -2.503,-11.556 -11.997,-18.188 -23.596,-16.486 m -44.801,0.36 c -12.029,1.641 -17.87,9.39 -17.865,23.704 0.005,15.299 7.494,22.852 22.666,22.86 2.838,0.002 6.748,-0.397 8.952,-0.912 l 1.429,-0.334 -0.06,-0.662 c -0.192,-2.108 -0.819,-7.318 -0.89,-7.389 -0.047,-0.046 -0.802,0.096 -1.68,0.316 -13.658,3.425 -21.155,-1.874 -20.841,-14.731 0.306,-12.548 7.772,-17.743 20.42,-14.208 0.795,0.222 1.375,0.299 1.442,0.191 0.089,-0.144 1.243,-6.478 1.383,-7.593 0.127,-1.005 -10.327,-1.873 -14.956,-1.242 m -200.468,0.181 c -7.035,1.277 -10.792,5.717 -10.804,12.766 -0.01,6.412 1.828,8.726 10.158,12.793 7.247,3.537 8.821,5.057 8.532,8.241 -0.461,5.081 -6.689,6.078 -15.752,2.52 -1.094,-0.429 -2.002,-0.761 -2.018,-0.739 -0.024,0.034 -0.579,2.06 -2.13,7.784 -0.252,0.93 7.454,2.681 12.997,2.954 10.308,0.508 15.905,-4.244 15.905,-13.505 0,-6.598 -2.338,-9.442 -11.629,-14.148 -6.061,-3.07 -7.233,-4.123 -7.224,-6.488 0.017,-4.768 5.674,-6.12 13.438,-3.211 1.007,0.377 1.866,0.649 1.909,0.606 0.196,-0.196 2.364,-7.412 2.272,-7.562 -0.868,-1.404 -11.483,-2.768 -15.654,-2.011 m 85.269,23.037 v 22.586 h 4.19 4.191 v -8.857 -8.857 h 3.263 c 4.076,0 4.478,0.109 6.008,1.626 1.612,1.599 4.11,6.766 6.835,14.136 l 0.722,1.952 h 4.729 c 2.6,0 4.728,-0.074 4.728,-0.164 0,-0.649 -7.157,-16.461 -8.08,-17.851 -0.792,-1.193 -1.988,-2.379 -2.888,-2.864 -0.814,-0.438 -0.814,-0.561 -0.001,-0.83 6.683,-2.205 8.754,-14.161 3.367,-19.433 -3.254,-3.184 -6.244,-3.83 -18.255,-3.946 l -8.809,-0.085 v 22.587 m 62.215,-22.406 c -0.075,0.121 -15.131,39.382 -16.797,43.802 l -0.449,1.19 h 4.738 4.737 l 1.794,-5.381 1.793,-5.381 8.369,-0.049 8.368,-0.05 1.802,5.431 1.803,5.43 h 4.739 c 3.711,0 4.719,-0.052 4.649,-0.238 -0.049,-0.131 -3.936,-10.288 -8.637,-22.571 l -8.546,-22.334 h -4.135 c -2.274,0 -4.177,0.068 -4.228,0.151 m 135.993,0.659 c -0.055,0.445 -0.574,10.238 -1.154,21.762 -0.58,11.523 -1.086,21.316 -1.126,21.762 l -0.072,0.809 h 4.262 4.263 v -0.619 c 10e-4,-0.34 0.257,-7.69 0.571,-16.333 0.314,-8.643 0.578,-15.972 0.587,-16.286 0.009,-0.314 2.39,6.586 5.291,15.333 l 5.275,15.905 3.931,0.052 3.93,0.051 5.298,-15.897 c 2.914,-8.744 5.319,-15.876 5.346,-15.85 0.045,0.046 1.39,32.088 1.39,33.133 v 0.511 h 4.476 4.476 v -0.734 c 0,-0.923 -2.041,-40.484 -2.205,-42.742 l -0.121,-1.667 h -6.066 -6.066 l -0.593,1.857 c -5.95,18.638 -9.395,29.312 -9.493,29.418 -0.068,0.073 -2.436,-6.934 -5.263,-15.571 l -5.14,-15.704 h -5.848 -5.848 l -0.101,0.81 m -229.701,6.14 c 6.327,1.2 9.589,7.187 9.14,16.774 -0.448,9.544 -4.12,14.234 -11.362,14.51 -8.229,0.314 -12.567,-5.124 -12.569,-15.758 -0.003,-11.59 5.436,-17.3 14.791,-15.526 m 197.143,0 c 5.754,1.092 8.802,5.756 9.149,14.003 0.46,10.95 -3.508,16.982 -11.371,17.281 -8.282,0.316 -12.568,-5.124 -12.571,-15.953 -0.002,-11.372 5.515,-17.091 14.793,-15.331 m -150.299,0.684 c 5.149,0.716 7.374,4.52 5.318,9.092 -1.276,2.835 -2.782,3.465 -8.296,3.465 h -3.992 v -6.381 -6.381 h 2.748 c 1.511,0 3.411,0.092 4.222,0.205 M 189.593,341 c 0.26,0.864 0.698,2.316 0.972,3.226 l 0.498,1.654 3.469,-0.105 3.468,-0.106 -2.81,1.95 c -1.545,1.072 -2.809,2.02 -2.809,2.106 0,0.086 0.469,1.507 1.042,3.158 0.573,1.651 1.016,3.027 0.986,3.058 -0.031,0.03 -1.24,-0.845 -2.687,-1.946 l -2.631,-2.001 -0.688,0.515 c -0.379,0.283 -1.571,1.184 -2.649,2.003 -1.078,0.818 -1.996,1.488 -2.04,1.488 -0.043,0 0.389,-1.335 0.961,-2.967 0.571,-1.632 1.039,-3.081 1.039,-3.221 0,-0.14 -1.135,-1.044 -2.524,-2.01 -1.388,-0.966 -2.609,-1.84 -2.714,-1.943 -0.125,-0.123 0.985,-0.164 3.217,-0.118 l 3.408,0.069 0.963,-3.191 c 0.529,-1.755 0.983,-3.19 1.009,-3.19 0.026,0 0.26,0.707 0.52,1.571"
       id="path0"
       style="fill:#ffffff;fill-rule:evenodd;stroke:none" />
    <path
       d=""
       id="path1"
       style="fill:#ffffff;fill-rule:evenodd;stroke:none" />
    <path
       d=""
       id="path2"
       style="fill:#ffffff;fill-rule:evenodd;stroke:none" />
    <path
       d=""
       id="path3"
       style="fill:#ffffff;fill-rule:evenodd;stroke:none" />
    <path
       d=""
       id="path4"
       style="fill:#ffffff;fill-rule:evenodd;stroke:none" />
  </g>
</svg>
