<?xml version="1.0" encoding="UTF-8" standalone="no"?>
<svg
   xmlns:dc="http://purl.org/dc/elements/1.1/"
   xmlns:cc="http://creativecommons.org/ns#"
   xmlns:rdf="http://www.w3.org/1999/02/22-rdf-syntax-ns#"
   xmlns:svg="http://www.w3.org/2000/svg"
   xmlns="http://www.w3.org/2000/svg"
   xmlns:sodipodi="http://sodipodi.sourceforge.net/DTD/sodipodi-0.dtd"
   xmlns:inkscape="http://www.inkscape.org/namespaces/inkscape"
   version="1.1"
   id="svg2"
   xml:space="preserve"
   width="3421.3333"
   height="1673.2533"
   viewBox="0 0 3421.3333 1673.2533"
   sodipodi:docname="logo-cs_group_blanc.eps"><metadata
     id="metadata8"><rdf:RDF><cc:Work
         rdf:about=""><dc:format>image/svg+xml</dc:format><dc:type
           rdf:resource="http://purl.org/dc/dcmitype/StillImage" /></cc:Work></rdf:RDF></metadata><defs
     id="defs6" /><sodipodi:namedview
     pagecolor="#ffffff"
     bordercolor="#666666"
     borderopacity="1"
     objecttolerance="10"
     gridtolerance="10"
     guidetolerance="10"
     inkscape:pageopacity="0"
     inkscape:pageshadow="2"
     inkscape:window-width="640"
     inkscape:window-height="480"
     id="namedview4" /><g
     id="g10"
     inkscape:groupmode="layer"
     inkscape:label="ink_ext_XXXXXX"
     transform="matrix(1.3333333,0,0,-1.3333333,0,1673.2533)"><g
       id="g12"
       transform="scale(0.1)"><path
         d="m 14000,11117.6 c -30.8,-6.2 -57.2,-13.2 -84.9,-19.3 -12.4,-2.7 -26,-4.4 -39.9,-7.7 -13,-3.1 -26.7,-8.9 -41.2,-10.3 -36.7,-3.6 -76.9,0 -117,0 -95.9,0 -190.4,0 -290.7,0 -20.3,0 -43.8,-3.4 -57.9,0 -10.4,2.5 -31.3,24.1 -43.8,34.7 -125.7,107 -269.6,196 -423.2,275.3 -34.1,17.6 -69.5,34.3 -104.2,50.2 -72,32.9 -146.3,60.9 -220,90.1 -149.9,59.4 -308.2,100.8 -466.9,142.7 -80,21.1 -161.8,39 -244.5,55.4 -63.1,12.5 -127.8,23.8 -191.6,33.4 -53.2,8 -105,17.6 -164.7,25.7 -34.7,4.7 -68.8,6.6 -102.9,14.2 -67.9,4.9 -145,17.1 -223.8,23.1 -5.2,0.4 -10.2,-0.7 -15.5,0 -3.2,0.5 -6.8,3.6 -10.3,3.9 -15.8,1.4 -31.8,-0.6 -47.6,1.3 -5.3,0.6 -10.2,3.3 -15.4,3.8 -16.8,1.9 -34.3,-0.5 -51.5,1.3 -42,4.5 -85.3,7.7 -128.6,11.6 -46.4,4.1 -94.7,0.6 -141.5,5.2 -22.8,2.2 -45.7,3.7 -68.2,5.1 -22.8,1.4 -46,-4.2 -68.2,3.9 -34.8,-2.2 -78.4,-2.2 -113.2,0 -22.8,-5.9 -47.4,-4.1 -72,-6.5 -12.3,-1.2 -26,0.5 -38.6,0 -31.9,-1.2 -70.1,-4.7 -106.8,-7.7 -24.2,-2 -48.5,0.9 -70.7,-6.4 -12.2,5.5 -23.1,-1.6 -34.8,-2.6 -5.8,-0.5 -10.8,2 -16.7,1.3 -78,-10.1 -174.2,-18.9 -259.84,-29.6 -5.69,-0.7 -11.15,-1.6 -16.72,-2.6 -29.69,-5.4 -65.3,-8.2 -97.77,-14.1 -82.93,-15.1 -164.38,-27.6 -244.42,-42.5 -105.24,-19.6 -208.09,-44.4 -308.74,-72 -75.44,-20.7 -147.65,-40.7 -225.12,-63.1 -24.29,-6.9 -48.03,-16.6 -72.04,-24.4 -96.93,-31.5 -192.74,-63.2 -285.58,-102.9 -326.87,-130.2 -621.58,-281.7 -894.05,-467 -119.15,-81 -232.11,-163.3 -338.33,-257.2 -44.55,-39.4 -87.58,-81.2 -131.21,-124.8 -84.57,-84.6 -164.65,-174.3 -240.56,-268.9 -25.25,-31.4 -48.4,-64.9 -73.33,-97.8 -48.69,-64.1 -91.88,-133.1 -136.36,-203.2 -11.06,-17.5 -21.34,-35.3 -32.16,-52.8 -11.02,-17.69 -20.49,-35.68 -30.87,-53.98 -122.24,-215.49 -229.94,-456.07 -297.16,-721.68 -16.8,-66.36 -30.66,-131.42 -45.02,-204.54 -4.47,-22.7 -6.11,-46.18 -10.3,-69.46 -33.57,-186.71 -33.4,-409.6 -11.57,-627.77 3.42,-34.28 10.24,-68.79 16.72,-104.2 2.15,-11.75 2.86,-23.28 5.15,-34.73 7.04,-35.38 14.28,-71.28 21.86,-102.92 2.62,-10.91 5.13,-21.27 7.72,-32.15 21.44,-90.12 48.93,-176.52 79.76,-259.86 30.71,-83.02 67.99,-159.83 105.49,-235.42 37.71,-76.02 81.37,-146.08 124.78,-214.83 21.76,-34.46 47.5,-66.57 70.75,-100.33 22.91,-33.27 48.19,-65.55 73.32,-96.49 50.61,-62.29 104.89,-122.89 160.8,-178.81 28.51,-28.5 59.22,-55.35 87.48,-83.61 28.63,-28.64 59.55,-53.19 90.05,-79.76 60.82,-52.99 123.84,-105 189.1,-150.51 269.53,-187.9 561.44,-347.14 890.19,-470.83 83.06,-31.25 167.12,-62.14 253.43,-87.47 42.72,-12.54 85.63,-24.99 128.64,-38.59 43.03,-13.62 88.03,-22.95 132.5,-34.74 133.24,-35.32 273.77,-63.79 410.37,-87.47 24.27,-4.21 49.29,-6.96 73.32,-11.58 73.75,-14.17 154.14,-23.79 240.56,-33.44 17.97,-2.01 36.07,-5.58 54.03,-7.72 13.75,-1.65 20.85,0.53 36.02,-1.29 6.05,-0.73 7.73,-3.12 14.15,-3.86 14.17,-1.65 26.79,-0.08 41.16,-1.29 4.21,-0.35 8.56,-3.26 12.87,-3.86 41,-5.64 86.39,-2.36 127.35,-11.58 24.52,1.36 57.85,0.4 79.76,-5.14 87.92,-2.59 170.22,-7.92 262.42,-3.85 14,0.6 28.6,-2.82 42.5,-1.29 34.8,3.82 68.9,7.58 102.9,5.14 31.9,7.68 78.5,5.28 118.3,9 25.5,2.38 50.8,5.53 77.2,7.72 4.7,0.39 9.5,-0.77 14.2,0 3.5,0.59 6.8,3.57 10.2,3.86 18.3,1.59 36.2,1.32 54.1,3.87 17.7,2.52 35.4,0.42 51.4,6.42 62,2.13 131.9,16.83 189.1,21.87 43.3,3.83 92.4,13.83 135.1,20.59 36.8,5.82 73.2,13.04 109.3,18 71.3,9.8 140.3,28.07 209.7,41.16 69.9,13.19 138.7,30.42 207.1,47.6 266.3,66.93 532.5,154.24 773.2,257.29 60.8,26.04 122.4,49.44 180.1,78.47 116.9,58.85 232.4,113.19 340.9,177.53 54.5,32.34 107.8,65.08 160.8,97.76 53,32.69 103.2,68.44 154.3,104.2 202.7,141.66 374.7,312.74 537.8,497.84 244.5,4.13 520.8,0.06 767.9,-1.29 19.9,-0.1 46,3.16 60.5,-2.57 10.7,-4.23 22.9,-20.05 36,-32.16 25.2,-23.28 45.9,-40.88 69.5,-64.32 102,-101.21 205.9,-195.58 313.9,-289.44 23.8,-20.66 50.6,-38.72 75.9,-57.89 125.8,-95.33 257.8,-185.17 401.3,-268.86 127.9,-74.55 259.8,-148.15 397.5,-207.11 15.1,-6.46 30.4,-14.77 45.1,-21.87 89.5,-43.47 187.2,-80.71 284.3,-117.06 65.4,-24.49 131.4,-47.26 198.1,-70.75 99.5,-35.1 203.7,-63.4 311.3,-91.34 34.3,-8.93 68.4,-17.83 102.9,-25.72 71.5,-16.36 143.5,-34.81 216.1,-46.32 36.3,-5.75 72.7,-13.72 109.3,-20.58 36.3,-6.8 73.3,-12.91 110.7,-18.01 37.7,-5.16 75.9,-12.06 114.5,-16.72 38.7,-4.69 78,-6.42 117,-14.15 16.4,0.89 32.5,-1.58 48.9,-3.86 16.4,-2.29 32.4,-0.96 48.9,-2.58 5.3,-0.52 9.8,-3.46 15.4,-3.86 72.2,-5.11 138.8,-12.46 213.6,-12.86 5.2,-0.03 10.4,0.72 15.4,0 3.5,-0.51 7.5,-3.5 11.6,-3.86 38.6,-3.36 80.3,3.26 119.6,3.86 58.6,0.89 116.4,9.11 176.3,10.3 18.2,0.35 37.7,1.38 55.3,6.42 11.6,-2.89 19.8,-0.98 28.3,0 7.6,0.88 15.6,0.08 25.7,1.29 5.9,0.7 10.8,3.33 16.7,3.86 10.8,0.95 22.4,0.14 33.5,1.29 5.6,0.57 10,3.14 15.4,3.85 22.2,2.95 45.1,2.98 66.9,5.15 64,6.35 127.3,17.54 189.1,27.01 82.3,12.61 161,30.83 240.6,47.61 76.7,16.18 152.9,43.12 229,66.88 74.5,23.28 145.6,55.34 210.9,87.48 66.4,32.65 127.2,71.97 184,114.49 113.2,84.73 204.8,190.96 268.8,328.03 20.1,42.95 37.5,90.42 46.4,137.65 1.7,9.49 4.9,18.66 6.4,28.3 2.3,15.04 5.2,31.95 6.4,46.31 0.5,5.29 -1.8,11.05 -1.3,16.72 0.6,6.2 3.5,12.05 3.9,19.31 1.1,19.7 2.3,48.61 0,69.46 -0.5,4.78 -3.5,9.47 -3.9,14.15 -1.2,14.39 -0.6,28.91 -2.5,42.45 -8,54.44 -24,106.46 -42.5,156.94 -23.7,64.63 -58.4,120.89 -95.2,177.53 -17,26.09 -37.8,52.74 -59.2,77.19 -21,24.09 -43.3,48.47 -65.6,70.74 -11.1,11.15 -24.6,20.75 -36,32.17 -32.4,32.38 -74.2,64.12 -111.9,91.33 -212.6,153.39 -477.8,247.11 -739.7,349.9 -196.5,76.59 -394.4,150.49 -593,223.84 -198.6,73.31 -396.1,150.75 -596.9,219.97 -44,15.17 -88.1,31.07 -132.5,47.6 -2.8,1.05 -4.9,4.17 -7.7,5.14 -40.6,13.91 -80.5,27.89 -122.2,43.74 -108.5,41.24 -222.3,83.4 -331.9,126.07 -122.8,47.76 -245.1,97.58 -365.4,146.65 -24,9.81 -47,21.19 -70.7,30.87 -48.1,19.66 -96.2,38.95 -142.8,60.47 -185.4,85.57 -369.7,172.9 -544.2,272.72 -173.2,99.14 -341.4,201.97 -491.4,325.46 -18.9,15.54 -39.2,29.03 -57.9,45.02 -125.4,107.69 -249.6,228.8 -343.4,370.49 -54.2,81.78 -105.8,167.34 -142.8,265 -26.4,69.4 -47.1,134.6 -60.5,216.1 -3.3,20.5 -9.6,56.6 -12.9,86.2 -0.7,7.1 -3.2,13.9 -3.8,20.6 -0.7,7.3 2.1,15.4 1.3,23.1 -0.6,5.4 -3.5,11.2 -3.9,15.5 -2,24.2 1.3,50.6 1.3,75.9 0,12.8 -0.9,26.1 0,38.6 7.3,103 23.3,202 45,286.8 50.3,196.4 136.8,372.4 241.9,517.2 43.3,59.7 86.8,118 136.3,168.5 12.8,13 23.5,28.6 36,41.2 87.7,87.6 182.9,171.6 285.6,246.9 88.5,64.9 181,123.1 279.2,178.9 95.7,54.3 198.7,107 306.1,150.5 90.7,36.7 179.9,75.2 275.3,106.7 55.5,18.4 113.7,38.4 172.4,55.4 80.3,23.1 159,44.3 238,64.3 118.8,30 241.7,55 362.8,74.6 21.6,3.5 43.6,6.5 65.6,10.3 2.6,0.4 3.3,3.6 6.4,3.8 11.8,0.9 27.1,3.3 39.9,5.2 68.4,10.2 163.3,22.9 244.4,32.1 18.5,2.2 37.5,3.3 59.2,5.2 28.9,2.6 60.8,7.4 93.9,10.3 52.4,4.5 103.6,9.6 154.4,10.3 18.3,0.2 38.2,0.3 55.3,2.5 5,0.7 9.3,3.3 14.1,3.9 36.1,4.6 57.4,-3.1 96.5,1.3 7.5,0.8 7.6,2.9 15.4,3.9 54.7,6.9 118.6,-3.2 176.3,1.2 7.2,0.6 13.4,3.5 20.6,3.9 52.5,2.9 109.4,0 164.6,0 154.7,0 313.4,0 469.6,0 30.3,0 61,3.1 90,-3.9 52.1,4.8 106.5,-1.2 156.9,-1.2 17.4,0 32.4,-2.2 48.9,-3.9 21.2,-2.2 47.7,-0.8 63.1,-1.3 108.5,-3.8 227.4,-11.4 334.4,-21.9 4.5,-0.4 6.9,-3.2 11.6,-3.8 15.6,-2.2 33.3,0.6 48.9,-1.3 4.9,-0.6 9.1,-3.2 14.2,-3.9 12.5,-1.5 26,0.1 38.5,-1.3 4.6,-0.4 8.3,-3 12.9,-3.8 10.9,-1.9 23.4,-1.4 34.7,-2.6 27.4,-2.9 63.8,-6.2 96.5,-10.3 4.4,-0.5 7.2,-1.7 14.2,-2.6 35.2,-4.4 71.9,-10.5 106.7,-12.8 150.3,-24.6 298,-46.1 443.8,-75.9 143.6,-29.4 284.7,-62.4 420.7,-100.3 280.2,-78.3 546,-164.6 784.7,-288.2 9.4,-53.5 11.1,-125.5 16.7,-187.8 6.6,-72 15.8,-136.3 19.3,-214.9 1.7,-36.7 9.1,-92.9 12.9,-137.6 1.7,-20.1 -0.7,-41 6.4,-60.5 3.6,-95.1 15.8,-189.4 23.2,-289.4 -20.8,-10.5 -45.3,-14.7 -69.5,-21.9 -21.6,-6.4 -44.3,-14.7 -68.2,-19.3 -1.2,-0.2 -2.6,0.2 -3.8,0 -34.4,-3.2 -73.7,0 -113.2,0 -73.7,0 -148.3,0 -223.9,0 -37.3,0 -84.9,-5.9 -113.2,1.3 -14.6,3.8 -37.2,24.5 -54,36 -53.2,36.7 -109.9,72.4 -163.4,104.2 -95.5,56.9 -190,105.8 -289.4,157 -135.2,69.6 -283.4,134.6 -432.2,190.4 -87.2,32.7 -175.3,63.4 -265,91.3 -112.4,35 -228.4,66 -346.1,92.6 -23.1,5.2 -47.4,11.2 -70.7,15.5 -12.3,2.2 -25.2,2.6 -37.3,5.1 -10.9,2.3 -21.3,6.7 -32.2,9 -12.3,2.7 -26,4.1 -38.6,6.4 -57.2,10.5 -119.8,19.1 -181.4,28.3 -24.8,3.8 -50.4,7.5 -75.9,10.3 -25.6,2.9 -51.4,6.3 -77.2,9 -12.5,1.4 -27.3,-0.5 -41.1,1.3 -5.1,0.7 -9.3,3.3 -14.2,3.9 -26.8,3.3 -56.2,3.7 -84.9,5.1 -55.3,2.9 -111.4,7.8 -171.1,7.8 -28,0 -57.1,-3 -84.9,3.8 -27.3,-6.9 -55.2,-3.8 -82.3,-3.8 -53.2,0 -106.4,-7.1 -157,-12.9 -71.1,-8.2 -141.3,-17.5 -209.6,-33.5 -44.4,-10.4 -88.4,-19.9 -132.5,-32.1 -219.9,-61.2 -412.1,-155.6 -578.9,-274 -33,-23.4 -62.7,-50.1 -93.9,-75.9 -61,-50.3 -114.8,-112 -163.4,-177.5 -96.4,-129.9 -172.7,-288.2 -189.1,-488.9 -15.3,-186.8 55,-326.9 140.2,-432.2 172.4,-213.1 422.1,-350.59 675.4,-482.42 32,-16.68 66.1,-29.9 99,-46.31 96,-47.8 198.1,-90.38 298.5,-135.07 134,-59.68 272.3,-115.05 410.3,-169.81 68.8,-27.27 137.1,-56.98 205.9,-83.62 276.4,-107.02 552.7,-218.28 829.7,-328.03 206,-81.62 411.6,-165.87 621.3,-248.27 103.3,-40.56 205.5,-84.5 308.8,-126.08 34.6,-13.96 70.3,-25.09 104.2,-39.87 68.5,-29.91 137.2,-55.68 203.2,-86.19 132.5,-61.24 260.2,-123.58 378.2,-200.69 58.8,-38.36 116.7,-76.66 171.1,-118.34 242.8,-185.79 461.8,-408.78 577.6,-725.53 32.7,-89.39 55,-181.18 69.5,-284.3 15.8,-112.38 7.7,-262.53 -9,-361.48 -11.4,-67.57 -32.8,-136.99 -51.5,-198.11 -55.5,-154.36 -128.5,-291.71 -218.7,-412.94 -90.2,-121.39 -193.5,-228.03 -304.8,-326.74 -223.8,-198.38 -501.5,-339.56 -807.9,-454.1 -360.4,-135.98 -748.3,-224.51 -1157.8,-288.16 -29.1,-1.73 -59.9,-8.62 -90,-12.87 -29.7,-4.19 -59.7,-4.48 -84.9,-11.58 -59.9,-4.87 -120.3,-12.9 -185.3,-19.29 -20.7,-2.04 -41.3,-5.75 -61.7,-7.72 -13.9,-1.34 -28.4,-0.03 -42.5,-1.29 -20,-1.78 -38.8,-5.08 -61.7,-6.43 -40.3,-2.38 -98,-6.16 -146.7,-10.29 -56.4,-4.8 -115.2,-10.28 -172.3,-10.28 -13.9,0 -28.1,-3.39 -42.5,-3.87 -28.1,-0.95 -55.9,-1.28 -83.6,-1.29 -8,0 -16,0.59 -23.2,0 -6.6,-0.54 -11.4,-3 -18,-3.86 -17.8,-2.31 -39.4,0 -59.2,0 -91.8,0 -191.9,-5.14 -284.3,-5.14 -181.6,0 -369.1,-5.44 -553.1,0 -8.8,0.26 -15.8,3.19 -24.4,3.86 -21.4,1.65 -45,-1.29 -68.2,-1.29 -42.1,-0.01 -88.4,-1.1 -131.2,5.15 -11.1,1.61 -22.2,1.47 -33.5,1.28 -10.2,-0.18 -18.9,1.96 -28.3,2.58 -17,1.1 -32.3,-1.28 -50.2,1.29 -15.8,2.27 -32.9,2.6 -48.8,3.85 -36.9,2.88 -76.4,4.47 -112,7.72 -54.4,4.99 -107.7,7.77 -160.8,12.86 -115.4,11.09 -248.4,27.01 -361.4,43.74 -48.9,7.24 -98.5,14.78 -149.3,23.15 -29.1,4.8 -64.4,11.38 -97.7,16.73 -359.2,57.71 -698.7,142.08 -1033,235.41 -50.8,14.17 -102,28.93 -151.8,45.02 -100.4,32.46 -202.5,62.43 -301,97.78 -48.1,17.23 -98.1,34.91 -146.7,52.74 -49.5,18.16 -100.4,33.1 -144.1,55.31 -15.3,7.78 -15,18.27 -24.4,37.31 -24.4,49.49 -45.5,97.72 -68.2,147.94 -44.2,97.81 -93.8,200.28 -137.6,294.59 -8.7,-6.69 -8.7,-18.98 -11.6,-28.3 -43.2,-140.23 -91.3,-298.78 -136.4,-443.81 -72.4,-30.27 -147.9,-51.71 -226.4,-74.62 -72,-21.03 -150.1,-45.41 -227.7,-65.61 -51.6,-13.44 -103,-27.76 -154.3,-42.45 -76,-21.77 -154.4,-38.89 -232.9,-59.17 -74.6,-19.31 -160.5,-38.66 -238,-55.32 -105.1,-22.63 -210.6,-46.44 -319,-68.17 -108.2,-21.72 -217,-40.96 -325.5,-60.47 -155.5,-27.97 -324.6,-53.75 -493.9,-75.9 -27.9,-3.64 -55.7,-8.61 -83.6,-11.57 -129.2,-13.71 -248.6,-32.45 -386,-45.02 -27.1,-2.49 -54.2,-2.15 -79.7,-9.02 -24.3,3.96 -48.9,-4.46 -72.1,-5.14 -3.8,-0.11 -7.9,1.71 -11.5,1.29 -3.7,-0.42 -5.7,-3.64 -9,-3.86 -6.2,-0.42 -12.1,1.89 -18.1,1.28 -13.5,-1.39 -32.9,-5.31 -51.4,-6.43 -26.7,-1.62 -55.6,-2.77 -88.8,-5.14 -30.3,-2.17 -79.9,-6.18 -119.6,-7.72 -17.1,-0.66 -35.7,-1.12 -52.8,-2.58 -33.1,-2.81 -56.7,-5.13 -88.7,-5.13 -22.2,-0.01 -43.6,-4.11 -70.8,-3.87 -9.8,0.09 -18.6,-1.99 -28.3,-2.57 -53.4,-3.19 -109.3,1.8 -162.1,-2.58 -101.8,-8.44 -209.6,-2.56 -316.4,-2.57 -106.9,-0.01 -214.18,0.01 -319.05,0 -132.76,-0.01 -263.43,1.18 -396.21,2.57 -12.25,0.13 -23.91,3.44 -36.02,3.86 -28.09,0.99 -50.62,1.26 -73.33,1.29 -27.34,0.04 -51.8,3.87 -75.9,3.87 -6.69,0 -12.94,-0.46 -19.29,0 -68.09,4.86 -157.06,8.57 -227.7,15.43 -23.8,1.5 -50.32,0.27 -69.46,6.43 -34.78,-0.72 -69.78,4.42 -102.92,6.43 -6.04,0.37 -11.47,3.09 -18,3.86 -6.84,0.79 -14.15,-1.93 -20.58,-1.29 -4.95,0.49 -9.58,3.29 -15.44,3.86 -36.96,3.63 -80.18,8.62 -118.35,12.86 -21.63,2.41 -43.29,3.26 -64.32,5.15 -10.5,0.95 -20.63,4.94 -30.88,6.43 -10.48,1.53 -21.05,0 -30.87,1.28 -3.68,0.49 -6.83,3.31 -10.29,3.87 -4.58,0.74 -8.52,-1.82 -12.87,-1.29 -3.68,0.46 -6.6,3.5 -10.29,3.86 -111.94,11.13 -228.8,31.46 -338.33,48.89 -121.92,19.39 -242.66,43.83 -360.19,69.46 -116.5,25.41 -231.71,52.06 -344.76,82.33 -113.68,30.44 -225.19,63.65 -337.03,96.49 -110.93,32.57 -219.15,74.04 -328.04,111.91 -53.87,18.73 -106.63,40.86 -159.51,61.75 -105.99,41.85 -208.23,85.58 -311.31,129.92 -25.2,10.84 -49.58,25.01 -74.61,36.03 -75.25,33.09 -147.71,73.43 -221.27,110.62 -48.55,24.55 -95.99,51.02 -142.79,77.19 -375.7,210.07 -722.99,456.37 -990.53,776.99 -66.07,79.17 -129.91,163.53 -189.11,253.42 -29.26,44.44 -56.65,90.39 -83.61,137.65 -119.67,209.75 -213.64,452.94 -270.15,716.53 -5.92,27.64 -10.82,55.8 -18.01,83.61 -14.55,103.54 -32.31,191.52 -39.88,303.6 -1.83,27.17 -4.54,54.6 -5.14,83.61 -0.22,10.38 -3.22,16.82 -3.86,24.44 -1.79,21.12 -0.75,44.63 -1.29,66.9 -3.86,161.06 -3.23,327.74 15.44,469.54 21.75,165.24 51.72,309.58 93.91,454.1 41.69,142.83 95.15,275.58 151.79,403.93 56.85,128.84 124.94,249.02 192.96,365.32 33.75,57.7 70.72,114.9 109.35,169.8 38.59,54.9 76,110.1 117.06,162.1 82.74,104.8 163.82,210.2 256,302.3 11.81,11.8 22.05,25.2 33.45,37.3 55.43,58.8 117.21,115.3 176.23,172.4 20.52,19.9 42.7,38.5 64.32,57.9 26.41,23.7 56.63,48.3 84.91,72 12.54,10.5 26.35,19.8 38.59,30.9 35.6,32.2 77.42,61.4 117.06,91.3 26.4,20 53.91,38.3 81.05,57.9 46.84,33.9 95.68,66.3 146.65,97.8 6.93,4.3 12.37,11 19.29,15.4 7.41,4.8 16.76,6.8 24.45,11.6 47.83,29.8 100.46,63.5 151.79,91.4 59.86,32.4 119.84,65.6 180.1,99 119.59,66.3 245.22,124 370.48,187.8 15.43,7.9 32.68,14.8 48.89,21.9 46.82,20.5 95.86,43.3 144.07,64.3 130.22,56.8 264.05,107.1 398.79,158.2 67.75,25.7 137.89,48.6 208.4,70.8 208.14,65.5 423.94,130.9 644.49,180.1 291.15,64.9 601.81,122.2 917.21,156.9 6.43,-1.3 6.29,4 11.58,3.9 42.29,3 84.52,7.1 129.92,12.8 52.04,6.6 125.37,9.9 181.39,18.1 17.17,2.5 35.17,0.9 52.74,2.5 5.03,0.5 10.25,3.3 15.43,3.9 18.58,2.1 37.82,-0.3 56.61,1.3 8.17,0.7 15.9,3.5 24.44,3.8 61.81,2.2 129.81,7.6 192.96,12.9 34.54,2.9 69.25,-1.2 101.63,6.4 146.38,0.6 296.36,14.5 454.06,9 0.4,2.7 3.5,2.6 5.2,3.9 229.5,0 466,0 698.5,0 38.1,0 81.9,3 111.9,-3.9 46,0 92.6,4.6 137.7,1.3 35.1,-2.5 69.8,0.7 104.2,-2.5 6,-0.6 11.9,-3.2 18,-3.9 44.6,-5.1 89.4,3.3 132.5,-1.3 10.6,-1.1 20.2,-3.7 30.8,-3.9 10.8,-0.1 22.6,2.3 33.5,1.3 6.9,-0.6 12.9,-3.6 24.4,-3.8 27.1,-0.4 55.6,-0.3 82.4,-2.6 61.5,-5.2 122.8,-5.6 182.6,-11.6 14.8,-1.4 29.9,1.1 43.8,-5.1 20.6,0.6 40,1.5 63,-1.3 4.4,-0.5 8.4,-3.2 12.9,-3.9 10.3,-1.6 22.2,-0.6 33.4,-1.3 61.5,-3.5 130.2,-10.6 193,-16.7 28.9,-2.8 66.5,-7.8 93.9,-10.3 10.6,-0.9 22.8,2.7 32.2,-3.8 91.5,-6.4 197.2,-21.2 286.8,-32.2 93.6,-11.4 199.9,-27.4 288.2,-41.2 154,-23.9 296.3,-50.1 441.2,-79.7 229.9,-47 454.4,-100.8 667.7,-172.4 0.2,-1 1.3,-1.3 1.2,-2.6 1.3,-9.7 -1.2,-19.5 0,-29.5 0.7,-5.2 3.3,-9.3 3.9,-14.2 2.7,-20.8 -0.5,-42 1.3,-63 0.5,-6.1 3.4,-11.6 3.9,-18 1.5,-19.7 -0.5,-39.7 1.2,-57.9 0.5,-4.6 3.4,-8.2 3.9,-12.9 3.7,-33.8 1.7,-70.7 5.1,-106.8 3.8,-39.4 6.7,-79.3 10.3,-118.3 1,-10.9 0.1,-21.5 1.3,-32.2 6.2,-55.7 10.3,-121.6 11.6,-185.2 6.9,-22.4 4.4,-49.3 6.4,-73.3 9.1,-106.9 15.6,-219.3 23.2,-317.8"
         style="fill:#ffffff;fill-opacity:1;fill-rule:evenodd;stroke:none"
         id="path14" /><path
         d="m 17542.8,8039.24 c -48.8,1.57 -97.6,10.18 -146.7,10.29 -35.3,0.07 -71.2,5.72 -109.3,7.71 -91.8,4.81 -189.1,15.33 -288.2,19.3 -43.2,1.73 -86.4,7.05 -129.9,7.72 -5.9,0.09 -12,-0.66 -18,0 -4.2,0.45 -8.3,3.43 -12.9,3.86 -10.7,1.02 -21.7,-2.25 -32.2,-1.29 -20.6,1.89 -41.3,4.4 -61.7,6.43 -24.3,2.43 -48.9,-0.42 -73.3,1.29 -12.7,0.89 -24.1,3.86 -37.3,3.86 -32,0.01 -74.2,2.81 -112,6.43 -50.2,4.82 -101.4,2.95 -150.5,9.01 -32.4,1.32 -70.6,-0.28 -101.6,6.43 -31.8,0.09 -65.8,-2.13 -97.8,2.57 -31.2,4.59 -62.3,2.25 -93.9,3.86 -32,1.63 -63.7,6.44 -96.4,6.43 -31.9,0 -64.6,2.78 -96.5,5.15 -57.6,4.26 -120.7,3.28 -178.8,7.72 -31.1,2.36 -61.7,2.22 -95.2,2.57 -9.8,0.1 -18.5,3.1 -28.3,3.86 -37.3,2.86 -76.5,-1.83 -114.5,1.29 -7.5,0.61 -13.4,3.1 -20.6,3.85 -37.2,3.9 -75.9,-1.71 -114.5,1.29 -7.4,0.58 -14.5,3.09 -21.9,3.86 -14.9,1.58 -31.1,-0.4 -47.6,0 -72.8,1.74 -152,7.31 -228.9,7.72 -102.1,0.54 -206.1,10.29 -308.8,10.29 -18.7,0 -37.3,-2.16 -56.6,0 -4.8,0.54 -9.1,3.42 -14.1,3.86 -26.2,2.29 -52.9,-2.99 -79.8,-1.28 -37,2.33 -74.4,-0.49 -110.6,2.56 -14.5,1.23 -27.8,3.86 -42.5,3.86 -130.1,0.01 -265.4,7.72 -401.3,7.72 -30.4,0 -60.7,-1.58 -90.1,1.29 -59.6,5.82 -119.9,-0.5 -178.8,3.86 -65.8,4.86 -131.7,-4.64 -196.8,0 -103.3,7.36 -228,-2.66 -335.8,5.14 -64.9,4.71 -134.5,0 -203.2,0 -67,0.01 -135.4,0 -202,0 -137.5,0.01 -276.6,7.2 -402.6,-2.57 -99.1,-7.67 -203,6.79 -299.8,0 -74.3,-5.21 -159.1,0.2 -231.5,-5.14 -50.2,-3.71 -101.2,3.2 -151.8,0 -48.2,-3.05 -96.6,-1.64 -144.1,-2.58 -48.3,-0.95 -97.5,1.43 -142.8,-2.57 -6.7,-0.59 -13.7,-3.2 -20.6,-3.86 -22,-2.11 -47,0 -70.7,0 -21.3,0 -42.4,-1.55 -63.1,-1.29 -90.1,1.14 -178.7,-6.93 -271.4,-6.42 -43.5,0.23 -88.4,-1.89 -131.2,-5.15 -29.7,-2.26 -59.3,-0.33 -88.8,-2.58 -49.8,-3.8 -100,0.75 -149.2,-2.57 -51.6,-3.48 -101.2,-1.62 -156.9,-5.14 -39.8,-2.51 -74.3,-5.15 -110.6,-5.15 -13,0 -26,1.19 -38.6,0 -6.6,-0.62 -12.9,-3.13 -19.3,-3.86 -38,-4.26 -78.3,1.79 -115.8,-1.29 -7.3,-0.6 -14.7,-3.18 -21.9,-3.85 -37.8,-3.56 -76.7,1.85 -114.5,-1.29 -5.6,-0.47 -10.9,-3.32 -16.7,-3.86 -21.2,-1.99 -43,-0.92 -64.32,-2.57 -22.35,-1.73 -46.39,-2.12 -69.47,-2.58 -83.63,-1.66 -170.17,-9.39 -254.71,-10.29 -10.65,-0.11 -17.77,-3.16 -25.73,-3.86 -12.73,-1.11 -25.8,2.26 -38.59,1.29 -7.55,-0.57 -14.45,-3.15 -21.87,-3.86 -28.54,-2.74 -57.43,1.42 -86.19,-1.29 -6.94,-0.65 -13.5,-3.19 -20.58,-3.86 -29.4,-2.76 -59.52,1.24 -88.76,-1.28 -5.09,-0.44 -10.14,-3.31 -15.44,-3.86 -26.2,-2.74 -60.14,2.01 -87.47,-1.29 -3.4,-0.41 -5.54,-3.48 -9.01,-3.86 -31.26,-3.33 -64.59,-2.04 -97.77,-5.14 -32.5,-3.04 -66.24,-2.61 -99.05,-5.15 -23.25,-1.79 -44.61,-1.04 -72.03,-2.57 -7.83,-0.44 -14.42,-3.34 -21.87,-3.86 -24.35,-1.7 -49.08,1.13 -73.33,-1.29 -44,-4.38 -102.22,-7.45 -146.65,-11.57 -10.77,-1 -22.75,2.35 -33.45,1.28 -4.52,-0.45 -8.89,-3.52 -12.86,-3.86 -47.35,-4.05 -96.15,-4.9 -146.65,-7.71 -20.57,-1.16 -40.35,-3.67 -60.47,-5.15 -21.13,-1.56 -42.22,-1.41 -63.03,-2.57 -19.89,-1.12 -39.3,-4.35 -59.17,-6.44 -36.2,-3.79 -72.78,-2.86 -109.35,-6.43 -36.68,-3.58 -74.1,-3.08 -110.63,-6.43 -65.24,-5.98 -127.75,-8.76 -189.1,-15.44 -8.57,-0.93 -17.32,0.89 -25.73,0 -15.39,-1.62 -36.25,-5.36 -56.6,-6.43 -6.15,-0.32 -13.26,1.9 -19.3,1.29 -3.64,-0.37 -8.29,-3.37 -16.72,-3.86 -12.79,-0.75 -25.69,-2.07 -38.6,-2.57 -33.92,-1.31 -73.97,-4.97 -113.2,-7.72 -50.82,-3.56 -98.76,-8.06 -145.36,-12.87 -70.2,-7.23 -147.05,-10.71 -221.26,-18.01 -97.7,-9.6 -195.27,-16.48 -292.02,-25.72 -97.39,-9.3 -194.31,-17.11 -290.73,-25.73 -55.64,151.49 -89.23,307.35 -106.77,493.98 -2.84,30.2 -7.15,59.89 -7.72,91.33 -0.57,31.62 -3.08,63.59 -3.86,96.48 29.71,8.07 63.38,12.42 95.2,16.73 60.7,8.22 118.44,20.06 186.53,29.59 31.13,4.35 62.02,9.41 92.62,15.43 56.02,6.89 112.35,15.14 168.52,23.15 56.19,8.04 112.19,16.21 168.52,24.45 54.86,8.03 110.37,15.4 165.94,24.45 42.37,6.88 88.66,12.48 129.93,16.71 14.21,1.46 27.47,6.75 41.17,7.72 58.05,4.13 117.42,13 176.24,20.59 85.68,11.05 169.25,23.09 258.56,33.44 22.03,2.56 43.9,5.72 66.9,7.72 15,1.31 24.64,3.05 42.45,5.15 105.46,12.4 218.6,25.53 324.17,37.3 44.25,4.94 88.56,11.1 133.79,15.44 70.75,6.79 143.92,14.91 217.4,21.87 118.12,11.2 234.01,23.74 352.48,34.73 45.31,4.2 91.18,4.25 138.93,10.29 14.07,1.78 28.31,5.76 42.45,6.43 89.54,4.24 179.09,13 271.43,20.58 15.3,1.26 31.2,2.11 46.31,3.87 14.01,1.62 27.34,3.65 41.17,5.14 18.28,1.97 37.62,-1.38 56.6,1.29 4.4,0.61 7.3,3.34 11.58,3.86 13.33,1.62 29.1,1.8 42.45,2.57 37.24,2.16 74.07,6.59 110.68,7.72 37.5,1.15 75.6,6.77 113.2,7.72 19,0.48 39.3,0.82 57.8,2.57 18,1.68 35.2,4.54 52.8,6.43 20.3,2.19 41.1,-0.45 61.7,1.29 6.9,0.58 13.7,3.16 20.6,3.86 37.6,3.74 76.8,1.9 115.8,5.14 58.2,4.85 113.1,7.21 173.7,10.29 50,2.56 93.2,5.19 145.3,7.72 8.7,0.43 17,3.05 25.8,3.86 17.2,1.6 35.2,0.95 52.7,1.29 17.4,0.34 34,2.39 51.5,3.86 30.6,2.59 61.4,0.23 92.6,2.57 129.8,9.74 263.6,9.06 394.9,18.01 43.8,2.99 88.7,-1.67 132.5,2.57 6.5,0.64 12.7,3.15 19.3,3.86 46.8,5.04 100.4,-2.97 150.5,1.29 7.7,0.65 13.2,3.06 20.6,3.85 30,3.24 60,-0.36 91.3,2.58 30.8,2.88 62.2,-3.62 92.6,-1.29 7.3,0.56 13.5,3.47 20.6,3.87 52.7,2.93 109.6,2.56 162.1,2.56 155.2,0.01 308.5,5.14 468.3,5.15 99.6,0.01 177.9,2.58 286.8,2.57 185.5,-0.01 364.2,-5.13 546.8,-5.14 40.9,0 82,2.46 120.9,0 45.3,-2.87 92.6,0.67 138.9,-2.58 40.8,-2.85 82,0.53 119.7,-2.56 7.1,-0.6 10.3,-3.33 16.7,-3.87 28.2,-2.38 57.2,3.12 86.2,1.29 33.1,-2.09 66.7,0.27 100.3,-2.58 14.2,-1.19 26.9,-3.85 41.2,-3.85 14.8,0 30.1,0.33 45,0 27,-0.61 55.9,1.28 82.3,-1.29 7.7,-0.74 12.1,-3.08 19.3,-3.86 25.7,-2.76 51.8,-0.59 78.5,-2.57 25.3,-1.88 51.4,-0.77 77.2,-2.57 44.9,-3.15 90.5,-1.97 135,-5.15 21.5,-1.53 42.9,-1.13 64.4,-2.57 52.4,-3.54 105.1,-2.26 156.9,-5.15 6.6,-0.36 12.9,-3.31 19.3,-3.85 29,-2.47 59.6,1.68 92.6,-1.29 6.7,-0.6 12.8,-3.1 19.3,-3.86 28.7,-3.32 54.1,1.32 84.9,-1.29 20,-1.69 45.9,-5.02 72.1,-6.43 9,-0.49 18,0.37 27,0 65.9,-2.7 149.4,-10.97 223.8,-12.86 24.7,-0.63 53,-4.61 73.3,-5.15 30.4,-0.8 32,-5.78 54.1,-19.3 148.2,-90.98 298.4,-176.11 457.9,-255.99 84.7,-42.38 171,-82.97 257.3,-123.5 87.3,-40.97 177.3,-75.73 265,-114.49 88.5,-39.11 179.1,-75.07 270.2,-110.63 79.5,-31.04 160.5,-60.07 240.5,-92.62 10.7,-4.33 21.3,-9.96 32.2,-14.15 3.3,-1.26 8.2,-0.02 11.6,-1.29 86.4,-32.8 178.2,-68.28 266.2,-101.62 11.7,-4.42 24.3,-7.17 36.1,-11.58 78.7,-29.58 162.4,-58.83 243.1,-88.76 42.6,-15.81 86.3,-31.57 129.9,-47.6 5.3,-1.93 13.6,-2.12 15.5,-9"
         style="fill:#ffffff;fill-opacity:1;fill-rule:evenodd;stroke:none"
         id="path16" /><path
         d="m 4012.31,8081.69 c 16.38,-90.5 28.8,-183.04 51.45,-263.72 13.59,-77.3 35.94,-136.35 52.75,-207.11 -17.78,-4.31 -37.71,-3.36 -51.46,-9 -70.05,-6.57 -141.26,-22.5 -205.82,-28.3 -45.35,-12.11 -101.46,-13.47 -146.65,-25.74 -18.44,-1.1 -37.62,-3.28 -56.6,-6.42 -58.15,-9.63 -119.16,-19.79 -178.82,-30.88 -67.03,-12.45 -134.99,-17.14 -194.24,-32.16 -60.33,-8.84 -134.37,-20.15 -187.82,-32.16 -28.77,-1.93 -58.17,-9.84 -88.76,-15.44 -32.24,-5.9 -65.72,-7.34 -92.62,-16.72 -21.77,-1.7 -42.12,-5.14 -59.18,-10.29 -40.73,-6.02 -81.56,-11.92 -118.35,-21.87 -19.99,0.93 -31.86,-8.25 -50.17,-6.44 -195.54,-40.03 -397.57,-76.17 -590.46,-115.77 -6.51,-1.33 -12.07,-4.99 -19.3,-6.43 -5.71,-1.14 -12.41,0.27 -18.01,-1.29 -5.83,-1.62 -13.17,-3.34 -23.15,-5.15 -17.19,-3.1 -50.68,-11.24 -74.61,-16.72 -18.09,-4.13 -40.18,-7.94 -59.18,-11.57 -39.62,-7.59 -95.2,-21.16 -137.64,-30.87 -40.95,-9.39 -96.79,-20.92 -140.22,-29.6 -26.28,-5.25 -55.87,-15.18 -86.19,-21.86 -13.61,-3.01 -27.42,-4.7 -41.17,-7.73 -81.68,-17.93 -158.79,-39.06 -243.13,-59.17 -52.88,-12.6 -108.01,-27.35 -162.09,-41.16 -15.94,-4.07 -33.04,-5.66 -48.88,-10.29 -20.98,-6.14 -50.9,-13.63 -75.896,-20.59 -28.981,-8.05 -55.559,-14.13 -90.047,-23.15 C 637.777,6911.8 403.492,6841.28 173.668,6764.4 141.078,6753.5 107.41,6744.1 75.8984,6732.24 54.3359,6724.13 26.2539,6712.02 0,6706.51 c 3.37891,8.14 13.7539,10.8 20.582,14.16 179.324,88.27 364.824,178.28 554.441,258.56 123.012,52.08 245.211,104.48 371.774,154.37 54.773,21.6 110.263,42.46 164.663,65.61 4.77,-0.91 5.52,2.2 10.29,1.28 290.5,115.58 595.1,217.08 897.91,320.33 55.93,12.37 108.5,36.9 163.38,52.74 111.79,32.25 227.92,69.27 337.03,102.91 11.46,3.53 23.45,6.82 34.74,10.29 38.22,11.74 71.67,21.26 113.2,33.45 85.05,24.96 168.92,49.46 257.28,74.61 59.89,17.04 119.82,36.36 180.1,52.74 93.55,25.4 182.84,48.55 274,74.61 44.69,12.78 91.13,19.58 135.08,33.45 15.73,4.97 37.52,9.46 59.17,15.44 143.81,39.68 289.31,72.33 432.24,109.34 1.86,0.48 2.38,0.57 3.86,1.29 0.86,0 1.71,0 2.57,0"
         style="fill:#ffffff;fill-opacity:1;fill-rule:evenodd;stroke:none"
         id="path18" /><path
         d="m 21971.9,7542.68 c -38.1,118.43 -87.2,225.87 -145.4,324.18 -28.2,44.52 -55.9,87.87 -87.5,129.92 -10.3,13.83 -21.7,26.86 -29.6,42.46 -9.3,8.66 -19.5,16.45 -23.1,30.87 44.2,-10.66 74.5,-17.17 115.8,-29.59 3.8,0 7.7,0 11.5,0 5.4,-3.24 11.6,-5.63 20.6,-5.14 19.8,-7.8 41.3,-13.28 60.5,-15.44 39.9,-12.64 88,-23.35 123.5,-33.45 17.6,-5.02 38.4,-9.32 57.9,-14.15 24.5,-6.09 47.7,-14.44 70.7,-16.72 1.5,-2.76 5.6,-3.01 7.7,-5.15 79.5,-16.9 158.4,-43.7 232.9,-59.18 1.4,-2.88 6.3,-2.26 7.7,-5.14 89.8,-22.44 175.9,-46.75 265,-70.75 9.1,-2.46 17.9,-7.74 27,-10.29 9,-2.53 19.4,-2.24 28.3,-5.15 3,-0.99 4.8,-4.31 7.7,-5.14 16.6,-4.62 33.8,-7.1 50.2,-11.58 21.2,-5.77 41.7,-14.93 63,-20.58 26,-6.88 56.4,-12.41 83.7,-21.87 2.7,-0.97 4.7,-4.28 7.7,-5.15 9.1,-2.64 19,-2.48 28.3,-5.15 12,-3.47 23.6,-9.37 36,-12.85 25.4,-7.16 56,-14.35 78.5,-24.45 62.3,-13.87 109.9,-34.72 171.1,-48.88 167.8,-56.6 344.5,-106.83 514.5,-165.95 45.3,-15.75 92,-28.69 136.4,-45.02 13.7,-5.06 31.3,-13.41 48.9,-19.3 12.1,-4.09 24.8,-7.27 37.3,-10.29 49.8,-21.76 107.2,-35.98 156.9,-57.89 46.2,-14.66 91.9,-29.9 133.8,-48.88 51.5,-15.36 99.8,-34.02 146.6,-54.04 58,-16.66 106.8,-42.45 164.7,-59.17 40.4,-20.18 84.1,-33.61 126.1,-50.17 56.6,-22.33 111.5,-48.91 169.8,-68.18 120.4,-54.92 248,-102.75 365.3,-160.8 48.4,-19.41 94.9,-40.64 138.9,-64.32 94.3,-38.25 176.8,-88.27 268.9,-128.64 -0.8,-7.22 10.4,-2.43 10.3,-9 -3.8,-3.46 -7.8,0.71 -9,3.85 -21.4,2.11 -39.2,13.25 -59.2,20.59 -18.7,6.9 -38.9,9.97 -57.9,16.72 -29.9,10.7 -59.3,23.86 -90,33.45 -10.3,3.22 -20.3,5.4 -30.9,9 -47.4,16.16 -96.6,31.73 -146.6,46.31 -38.7,11.27 -82.4,23.9 -124.8,36.02 -22.5,6.43 -45.9,13.43 -68.2,20.59 -3.6,1.15 -6.6,4.08 -10.3,5.14 -9.3,2.65 -19.5,2.17 -28.3,5.14 -51,17.22 -112,32.46 -163.4,48.89 -2.2,0.7 -5.2,-0.79 -7.7,0 -88.8,28.43 -186.7,50.79 -281.7,74.61 -20.7,5.18 -42.6,10.03 -66.9,16.72 -62.2,17.17 -129.1,32.95 -194.3,48.89 -49.1,12.03 -100.6,23.71 -146.6,33.45 -9.5,2.01 -18.9,7.42 -28.3,9 -34.9,5.87 -66.5,13.72 -100.3,20.58 -6.2,1.26 -11.9,5.18 -18.1,6.43 -58.5,11.85 -117.5,24.74 -176.2,37.31 -39.8,8.53 -81.5,16.84 -122.2,25.73 -219.4,47.88 -442.1,91.49 -661.2,135.07 -4.4,0.56 -7.2,-0.5 -10.3,-1.29 -37.8,10.04 -75.2,17.08 -111.9,21.87 -38.1,4.98 -80.2,16.59 -123.5,24.45 -21.1,3.82 -44.5,4.27 -60.5,11.57 -7.9,-0.29 -16.3,-0.4 -24.4,1.29 -39,8.14 -81.1,15.6 -121,21.87 -12.9,2.04 -26.7,4.94 -37.2,9.01 -11.3,-2.63 -21,2.96 -32.2,5.14 -2.8,0.55 -5.9,-1.73 -9,-1.29 -2.1,0.31 -4.3,3.36 -6.5,3.86 -29.5,7.05 -68.4,8.09 -100.3,15.44 -2,0.48 -4.3,3.48 -6.4,3.85 -11.5,2.11 -24.8,-2.09 -33.5,5.16 -133.4,18.24 -277.8,47.38 -419.3,65.6"
         style="fill:#ffffff;fill-opacity:1;fill-rule:evenodd;stroke:none"
         id="path20" /><path
         d="m 6720.44,2299.9 c -120.25,186.5 -268.18,327.62 -443.77,423.56 -175.63,95.9 -373.55,143.86 -593.73,143.86 -367.47,0 -666.68,-124.3 -897.68,-372.82 -231.01,-248.6 -346.51,-570.8 -346.51,-966.6 0,-177 30.71,-343.8 92.2,-500.5 61.46,-156.701 150.96,-295.9 268.49,-417.4 118.86,-120.301 251.94,-210.5 399.2,-270.602 147.22,-60.097 308.67,-90.097 484.3,-90.097 332.32,0 602.84,97.898 811.56,293.801 C 6703.21,738.898 6810.26,995 6815.68,1311.1 H 5792.36 v 233 h 1319.17 v -32.4 C 7111.53,1038.8 6982.5,668.699 6724.49,401.199 6466.45,133.801 6111.17,0 5658.62,0 5208.77,0 4844.69,143.199 4566.41,429.602 4288.1,716 4148.98,1091.5 4148.98,1556.3 c 0,213.4 35.11,415 105.37,604.8 70.23,189.8 171.54,355 303.96,495.48 143.17,152.65 304.96,266.79 485.31,342.46 180.34,75.64 381.27,113.48 602.84,113.48 301.24,0 559.28,-54.4 774.08,-163.12 214.79,-108.76 380.26,-268.5 496.46,-479.2 l -196.56,-170.3"
         style="fill:#ffffff;fill-opacity:1;fill-rule:nonzero;stroke:none"
         id="path22" /><path
         d="M 8915.37,2810.59 V 1714.3 h 271.52 c 251.27,0 426.56,40.2 525.85,120.6 99.29,80.3 148.94,217.1 148.94,410.3 0,204 -51.36,349.23 -154,435.7 -102.68,86.43 -276.29,129.69 -520.79,129.69 z M 10447.3,79 H 10119 L 9077.48,1493.4 H 8915.37 V 79 h -269.51 v 2966.65 h 545.1 c 321.48,0 562.31,-66.88 722.39,-200.61 160.05,-133.75 240.15,-336.34 240.15,-607.94 0,-231 -68.6,-412.7 -205.7,-545.1 -137.13,-132.4 -325.92,-198.6 -566.37,-198.6 L 10447.3,79"
         style="fill:#ffffff;fill-opacity:1;fill-rule:nonzero;stroke:none"
         id="path24" /><path
         d="m 13249.1,241.199 c 175.8,0 342,32.403 498.9,97.199 156.8,64.903 298.1,159.403 423.9,283.704 123,125.597 217.3,268.5 282.8,428.598 65.6,160.1 98.4,328.6 98.4,505.6 0,178.3 -32.5,346.8 -97.4,505.5 -64.9,158.8 -159.5,301.6 -283.8,428.6 -123.1,124.3 -263.4,218.87 -420.9,283.71 -157.5,64.85 -324.8,97.27 -501.9,97.27 -175.8,0 -341.4,-32.42 -496.8,-97.27 -155.5,-64.84 -296.1,-159.41 -421.9,-283.71 -124.3,-128.3 -219,-271.2 -283.9,-428.6 -64.9,-157.3 -97.3,-325.9 -97.3,-505.5 0,-178.4 32.4,-346.9 97.3,-505.6 64.9,-158.802 159.6,-301.602 283.9,-428.598 124.4,-125.602 263.7,-220.504 417.8,-284.704 154.1,-64.199 321.1,-96.199 500.9,-96.199 z M 14838.8,1556.3 c 0,-209.4 -39.9,-408.4 -119.6,-596.8 C 14639.4,771 14524.5,603.199 14374.5,455.898 14221.7,307.301 14049.4,194.199 13857.4,116.5 13665.4,38.8984 13462.7,0 13249.1,0 c -213.6,0 -416,38.8984 -607.3,116.5 -191.3,77.699 -362.6,190.801 -514,339.398 -151.4,150 -266.6,318.5 -345.7,505.602 -79.1,187.1 -118.6,385.4 -118.6,594.8 0,212 39.5,412.3 118.6,600.8 79.1,188.4 194.3,357.6 345.7,507.59 148.7,147.22 318.4,258.68 509,334.35 190.6,75.64 394.7,113.48 612.3,113.48 219,0 424.1,-38.19 615.4,-114.49 191.3,-76.34 361.3,-187.44 510,-333.34 151.4,-149.99 266.6,-319.19 345.7,-507.59 79.1,-188.5 118.6,-388.8 118.6,-600.8"
         style="fill:#ffffff;fill-opacity:1;fill-rule:nonzero;stroke:none"
         id="path26" /><path
         d="m 16389.4,3045.65 h 265.4 V 1108.4 c 0,-293.099 66.9,-511.002 200.6,-653.502 133.8,-142.5 338.4,-213.699 614,-213.699 271.5,0 474.2,71.199 607.9,213.699 133.8,142.5 200.6,360.403 200.6,653.502 v 1937.25 h 269.5 V 1195.6 c 0,-401.202 -89.1,-700.799 -267.4,-898.702 C 18101.6,99 17831.4,0 17469.4,0 c -363.4,0 -634.2,99 -812.6,296.898 -178.3,197.903 -267.4,497.5 -267.4,898.702 v 1850.05"
         style="fill:#ffffff;fill-opacity:1;fill-rule:nonzero;stroke:none"
         id="path28" /><path
         d="m 20509.3,1647.5 h 184.4 c 326.9,0 546.8,41.5 659.6,124.6 112.8,83.1 169.2,228.6 169.2,436.7 0,87.8 -12.8,168.5 -38.5,242.1 -25.7,73.6 -64.2,139.48 -115.5,197.58 -52.7,59.43 -124.3,101.32 -214.8,125.63 -90.5,24.32 -243.8,36.48 -460,36.48 h -184.4 z M 20239.8,79 v 2966.65 h 541.1 c 213.4,0 370.4,-11.5 471.1,-34.46 100.6,-22.98 188.1,-60.78 262.4,-113.47 93.2,-67.56 165.5,-160.08 216.8,-277.61 51.4,-117.51 77,-247.91 77,-391.11 0,-282.3 -79,-489.4 -237.1,-621.1 -158,-131.7 -407.9,-197.5 -749.7,-197.5 h -312.1 V 79 h -269.5"
         style="fill:#ffffff;fill-opacity:1;fill-rule:nonzero;stroke:none"
         id="path30" /></g></g></svg>
