<?xml version="1.0" standalone="no"?>
<!DOCTYPE svg PUBLIC "-//W3C//DTD SVG 20010904//EN"
 "http://www.w3.org/TR/2001/REC-SVG-20010904/DTD/svg10.dtd">
<svg version="1.0" xmlns="http://www.w3.org/2000/svg"
 width="2508.000000pt" height="592.000000pt" viewBox="0 0 2508.000000 592.000000"
 preserveAspectRatio="xMidYMid meet">

<g transform="translate(0.000000,592.000000) scale(0.100000,-0.100000)"
fill="#FFFFFF" stroke="none">
<path d="M2995 5908 c-2 -7 -11 -42 -20 -78 -21 -82 -90 -230 -152 -323 -56
-84 -214 -251 -333 -351 -47 -40 -175 -142 -285 -227 -226 -174 -401 -337
-487 -453 -73 -98 -141 -236 -168 -340 -33 -130 -31 -138 58 -238 42 -47 79
-87 82 -87 3 -1 19 38 34 87 60 188 161 365 291 512 96 108 211 209 455 398
414 322 587 525 685 804 l28 78 -87 115 c-47 63 -89 115 -91 115 -3 0 -8 -6
-10 -12z"/>
<path d="M3313 5409 c-59 -245 -238 -485 -543 -730 -52 -42 -156 -123 -230
-180 -448 -345 -606 -549 -666 -858 l-14 -73 82 -93 c46 -52 85 -94 88 -94 3
-1 19 42 34 94 36 120 116 280 192 385 117 163 258 296 564 530 352 270 496
424 610 650 26 52 57 123 69 158 l21 63 -87 119 c-49 66 -90 119 -93 120 -3 0
-15 -41 -27 -91z"/>
<path d="M3666 5078 c-2 -7 -13 -48 -25 -90 -80 -291 -257 -501 -721 -856
-301 -230 -461 -380 -557 -522 -78 -117 -115 -197 -147 -326 -28 -109 -25
-119 60 -214 42 -47 79 -86 84 -88 4 -1 20 36 35 84 101 326 288 557 725 896
256 199 362 291 448 390 118 135 213 294 262 439 l22 66 -86 117 c-48 64 -89
116 -91 116 -3 0 -7 -6 -9 -12z"/>
<path d="M7710 4724 c-489 -71 -832 -360 -915 -773 -27 -131 -17 -317 23 -439
41 -125 99 -219 201 -325 148 -154 338 -266 654 -387 204 -77 269 -108 365
-170 141 -90 212 -189 231 -320 26 -191 -63 -352 -244 -440 -118 -58 -212 -74
-409 -68 -235 8 -438 57 -664 163 -63 30 -94 40 -97 32 -3 -7 -32 -115 -65
-242 -34 -126 -63 -237 -66 -246 -8 -28 178 -106 366 -154 211 -53 269 -60
545 -60 230 0 273 3 370 22 399 81 668 268 806 558 77 164 105 325 88 518 -29
346 -220 593 -604 785 -55 27 -181 82 -280 122 -436 176 -566 275 -605 463
-40 195 100 380 335 442 197 53 518 17 764 -86 53 -22 100 -41 105 -42 10 -2
162 490 154 498 -16 17 -196 81 -297 106 -222 57 -543 75 -761 43z"/>
<path d="M22230 4711 c-84 -26 -176 -106 -207 -179 -58 -139 -19 -317 89 -403
71 -56 131 -72 247 -67 115 4 186 33 246 100 61 67 79 119 80 223 0 82 -3 96
-33 157 -61 124 -156 179 -310 177 -48 0 -98 -4 -112 -8z"/>
<path d="M11896 3068 c-59 -893 -110 -1649 -113 -1681 l-6 -57 291 0 290 0 6
77 c24 304 107 1962 123 2468 7 228 7 229 21 165 34 -163 178 -728 241 -950
59 -206 283 -933 482 -1562 l50 -158 239 0 238 0 155 463 c85 254 234 696 330
982 175 518 269 816 353 1119 24 88 46 161 49 164 3 3 5 -114 5 -259 0 -310 7
-509 60 -1637 22 -464 40 -850 40 -858 0 -12 48 -14 305 -14 l304 0 -5 48 c-2
26 -45 763 -94 1637 -50 875 -93 1609 -96 1633 l-5 42 -399 0 -398 0 -16 -42
c-9 -24 -119 -342 -244 -708 -278 -807 -365 -1089 -495 -1593 l-43 -168 -81
328 c-118 472 -186 703 -440 1486 l-227 697 -406 0 -406 0 -108 -1622z"/>
<path d="M18923 4377 l-293 -71 0 -273 0 -273 -175 0 -175 0 0 -235 0 -235
175 0 175 0 0 -642 c0 -685 4 -757 51 -913 64 -213 196 -345 414 -415 133 -43
491 -37 658 10 l39 11 -4 234 c-1 128 -5 236 -8 239 -3 3 -46 -2 -95 -11 -177
-30 -313 2 -374 90 -73 107 -81 186 -81 855 l0 542 290 0 290 0 0 235 0 235
-290 0 -290 0 0 345 c0 190 -3 345 -7 344 -5 0 -140 -33 -300 -72z"/>
<path d="M3896 4307 l-89 -82 91 -29 c122 -38 290 -121 386 -190 171 -124 270
-227 494 -516 186 -239 264 -330 369 -430 148 -141 299 -237 465 -295 l77 -27
121 88 c96 70 117 90 103 96 -10 3 -58 18 -108 33 -173 52 -324 145 -484 300
-108 105 -169 176 -370 434 -244 314 -367 444 -523 550 -114 77 -315 151 -407
151 -31 0 -48 -12 -125 -83z"/>
<path d="M3472 3973 l-92 -85 114 -38 c203 -69 366 -166 524 -316 109 -101
192 -198 362 -419 325 -423 514 -584 808 -689 l73 -26 120 87 c65 48 119 90
119 93 0 3 -28 12 -62 19 -152 31 -338 132 -491 265 -106 92 -207 209 -422
486 -101 129 -227 281 -280 337 -200 213 -410 332 -640 366 -39 6 -42 4 -133
-80z"/>
<path d="M915 3765 c-49 -46 -87 -86 -85 -88 3 -2 45 -16 93 -31 119 -36 303
-131 407 -210 127 -95 295 -275 484 -518 338 -436 504 -581 794 -693 l93 -36
120 87 c65 48 119 90 119 93 0 4 -38 16 -85 28 -162 42 -322 131 -468 261
-110 99 -207 209 -380 432 -196 253 -275 346 -383 451 -140 135 -272 218 -424
267 -55 18 -171 43 -189 42 -3 -1 -46 -39 -96 -85z"/>
<path d="M16745 3791 c-284 -60 -503 -199 -672 -428 -321 -434 -350 -1146 -63
-1583 157 -238 391 -390 711 -462 94 -21 128 -23 364 -23 272 0 373 10 560 56
107 26 265 79 265 88 0 6 -17 86 -75 357 l-16 72 -87 -28 c-190 -61 -373 -85
-606 -77 -188 6 -250 19 -385 84 -111 53 -207 142 -259 240 -35 66 -72 195
-72 250 l0 33 804 0 c632 0 806 3 813 12 4 7 9 94 11 193 8 340 -56 600 -202
818 -130 195 -301 320 -527 383 -83 23 -116 27 -284 30 -157 3 -205 0 -280
-15z m328 -416 c218 -46 354 -224 382 -497 l7 -68 -526 0 c-509 0 -526 1 -526
19 0 39 52 198 88 266 46 89 156 201 233 239 107 52 225 66 342 41z"/>
<path d="M21320 3794 c-122 -33 -250 -111 -334 -205 -53 -59 -125 -173 -152
-241 -11 -27 -22 -48 -25 -48 -4 0 -10 104 -14 230 l-7 230 -275 0 c-259 0
-275 -1 -267 -17 5 -10 10 -557 12 -1215 l3 -1198 310 0 309 0 0 625 c0 380 4
664 11 722 20 186 79 315 191 419 108 102 220 139 398 131 63 -2 123 -8 133
-12 16 -7 17 11 17 288 l0 295 -22 6 c-43 11 -233 5 -288 -10z"/>
<path d="M24285 3804 c-337 -51 -577 -160 -772 -352 -182 -178 -304 -419 -349
-690 -20 -126 -15 -445 10 -552 57 -248 149 -422 306 -581 126 -127 260 -210
437 -270 167 -56 227 -64 488 -64 251 0 305 6 490 52 128 31 185 56 185 80 0
23 -78 434 -83 439 -2 2 -44 -10 -93 -26 -123 -42 -236 -60 -376 -60 -150 0
-235 18 -357 77 -179 86 -305 245 -363 458 -17 65 -21 109 -22 235 -1 182 13
247 79 385 69 143 161 239 297 310 107 57 202 78 353 79 152 1 246 -14 372
-59 l92 -33 50 209 c28 116 51 222 51 238 0 25 -6 30 -78 55 -154 53 -249 68
-477 71 -115 2 -223 1 -240 -1z"/>
<path d="M9079 3737 c5 -12 212 -532 460 -1155 248 -624 451 -1147 451 -1162
0 -37 -65 -162 -128 -248 -130 -175 -343 -329 -537 -388 -33 -10 -61 -19 -63
-20 -1 0 24 -100 57 -220 32 -120 64 -239 71 -263 l11 -43 47 7 c131 19 341
109 469 201 240 171 408 382 585 730 164 323 244 525 673 1694 175 476 320
871 322 878 4 9 -66 12 -329 12 l-334 0 -202 -692 c-168 -576 -300 -1045 -303
-1076 0 -4 -23 74 -50 173 -38 138 -361 1117 -507 1535 l-19 55 -341 3 -342 2
9 -23z"/>
<path d="M22030 2545 l0 -1215 310 0 310 0 0 1215 0 1215 -310 0 -310 0 0
-1215z"/>
<path d="M3068 3642 c-47 -42 -87 -80 -87 -83 -1 -4 44 -21 100 -38 55 -18
149 -57 207 -87 233 -119 405 -281 682 -644 320 -417 525 -593 812 -695 l78
-28 115 87 c64 48 113 90 111 95 -3 4 -31 13 -63 20 -188 42 -379 159 -565
348 -115 117 -156 166 -358 428 -173 223 -336 398 -453 486 -96 72 -235 141
-341 168 -130 34 -138 32 -238 -57z"/>
<path d="M487 3427 c-48 -45 -87 -85 -87 -88 0 -4 17 -10 38 -14 102 -19 312
-118 431 -203 171 -122 275 -232 535 -566 202 -259 324 -391 455 -489 129 -98
346 -207 409 -207 17 0 234 153 240 169 1 4 -27 15 -62 24 -272 67 -502 239
-767 572 -52 66 -151 192 -220 280 -215 277 -399 442 -585 526 -69 32 -239 79
-278 79 -12 -1 -58 -35 -109 -83z"/>
<path d="M85 3096 c-50 -46 -88 -86 -85 -89 3 -2 43 -16 89 -31 97 -31 232
-92 306 -138 200 -126 333 -263 632 -648 162 -208 255 -313 355 -397 136 -115
268 -194 416 -247 l74 -26 116 86 c65 47 119 90 120 95 2 5 -5 9 -17 9 -37 0
-185 52 -271 95 -214 108 -361 249 -661 635 -203 262 -264 333 -371 436 -149
142 -297 230 -459 273 -152 40 -142 42 -244 -53z"/>
<path d="M3540 2921 c0 -37 -52 -185 -95 -271 -113 -226 -256 -369 -744 -746
-397 -306 -567 -534 -621 -834 l-11 -61 82 -90 c44 -49 84 -89 88 -89 3 0 19
42 35 93 39 123 122 287 198 389 118 161 249 283 568 530 222 172 327 265 415
368 115 134 195 269 249 418 l26 74 -86 116 c-47 65 -90 119 -95 120 -5 2 -9
-5 -9 -17z"/>
<path d="M3863 2430 c-86 -308 -254 -511 -718 -871 -132 -103 -278 -221 -325
-262 -145 -129 -255 -267 -321 -403 -37 -75 -89 -250 -89 -296 0 -19 153 -198
169 -198 4 0 13 24 21 53 41 163 149 363 279 518 100 120 203 212 478 426 248
193 406 339 499 462 99 132 214 371 202 419 -5 19 -159 231 -168 231 -3 1 -15
-35 -27 -79z"/>
<path d="M4198 2041 c-54 -227 -202 -451 -426 -648 -48 -42 -177 -146 -287
-231 -338 -262 -460 -375 -566 -524 -87 -123 -153 -283 -173 -423 -6 -39 -4
-42 75 -127 44 -49 84 -88 88 -88 4 0 20 39 35 88 86 266 241 488 489 700 51
43 164 134 252 202 290 224 400 327 515 481 65 87 136 222 174 327 l26 72 -88
120 c-48 66 -89 120 -92 120 -3 0 -13 -31 -22 -69z"/>
</g>
</svg>
